999
DXF from OpenSCAD
  0
SECTION
  2
HEADER
  9
$ACADVER
  1
AC1006
  9
$INSBASE
 10
0.0
 20
0.0
 30
0.0
  9
$EXTMIN
 10
-200
 20
-180
  9
$EXTMAX
 10
200
 20
180
  9
$LINMIN
 10
-200
 20
-180
  9
$LINMAX
 10
200
 20
180
  0
ENDSEC
  0
SECTION
  2
TABLES
  0
TABLE
  2
LTYPE
 70
1
  0
LTYPE
  2
CONTINUOUS
 70
64
  3
Solid line
 72
65
 73
0
 40
0.000000
  0
ENDTAB
  0
TABLE
  2
LAYER
 70
6
  0
LAYER
  2
0
 70
64
 62
7
  6
CONTINUOUS
  0
ENDTAB
  0
TABLE
  2
STYLE
 70
0
  0
ENDTAB
  0
ENDSEC
  0
SECTION
  2
BLOCKS
  0
ENDSEC
  0
SECTION
  2
ENTITIES
  0
LWPOLYLINE
100
AcDbEntity
  8
0
100
AcDbPolyline
 90
4
 70
1
 10
200
 20
180
 10
-200
 20
180
 10
-200
 20
-180
 10
200
 20
-180
  0
LWPOLYLINE
100
AcDbEntity
  8
0
100
AcDbPolyline
 90
60
 70
1
 10
-180.523
 20
155.027
 10
-181.04
 20
155.109
 10
-181.545
 20
155.245
 10
-182.034
 20
155.432
 10
-182.5
 20
155.67
 10
-182.939
 20
155.955
 10
-183.346
 20
156.284
 10
-183.716
 20
156.654
 10
-184.045
 20
157.061
 10
-184.33
 20
157.5
 10
-184.568
 20
157.966
 10
-184.755
 20
158.455
 10
-184.891
 20
158.96
 10
-184.973
 20
159.477
 10
-185
 20
160
 10
-184.973
 20
160.523
 10
-184.891
 20
161.04
 10
-184.755
 20
161.545
 10
-184.568
 20
162.034
 10
-184.33
 20
162.5
 10
-184.045
 20
162.939
 10
-183.716
 20
163.346
 10
-183.346
 20
163.716
 10
-182.939
 20
164.045
 10
-182.5
 20
164.33
 10
-182.034
 20
164.568
 10
-181.545
 20
164.755
 10
-181.04
 20
164.891
 10
-180.523
 20
164.973
 10
-180
 20
165
 10
-179.477
 20
164.973
 10
-178.96
 20
164.891
 10
-178.455
 20
164.755
 10
-177.966
 20
164.568
 10
-177.5
 20
164.33
 10
-177.061
 20
164.045
 10
-176.654
 20
163.716
 10
-176.284
 20
163.346
 10
-175.955
 20
162.939
 10
-175.67
 20
162.5
 10
-175.432
 20
162.034
 10
-175.245
 20
161.545
 10
-175.109
 20
161.04
 10
-175.027
 20
160.523
 10
-175
 20
160
 10
-175.027
 20
159.477
 10
-175.109
 20
158.96
 10
-175.245
 20
158.455
 10
-175.432
 20
157.966
 10
-175.67
 20
157.5
 10
-175.955
 20
157.061
 10
-176.284
 20
156.654
 10
-176.654
 20
156.284
 10
-177.061
 20
155.955
 10
-177.5
 20
155.67
 10
-177.966
 20
155.432
 10
-178.455
 20
155.245
 10
-178.96
 20
155.109
 10
-179.477
 20
155.027
 10
-180
 20
155
  0
LWPOLYLINE
100
AcDbEntity
  8
0
100
AcDbPolyline
 90
60
 70
1
 10
-180.523
 20
75.0274
 10
-181.04
 20
75.1093
 10
-181.545
 20
75.2447
 10
-182.034
 20
75.4323
 10
-182.5
 20
75.6699
 10
-182.939
 20
75.9549
 10
-183.346
 20
76.2843
 10
-183.716
 20
76.6543
 10
-184.045
 20
77.0611
 10
-184.33
 20
77.5
 10
-184.568
 20
77.9663
 10
-184.755
 20
78.4549
 10
-184.891
 20
78.9604
 10
-184.973
 20
79.4774
 10
-185
 20
80
 10
-184.973
 20
80.5226
 10
-184.891
 20
81.0396
 10
-184.755
 20
81.5451
 10
-184.568
 20
82.0337
 10
-184.33
 20
82.5
 10
-184.045
 20
82.9389
 10
-183.716
 20
83.3457
 10
-183.346
 20
83.7157
 10
-182.939
 20
84.0451
 10
-182.5
 20
84.3301
 10
-182.034
 20
84.5677
 10
-181.545
 20
84.7553
 10
-181.04
 20
84.8907
 10
-180.523
 20
84.9726
 10
-180
 20
85
 10
-179.477
 20
84.9726
 10
-178.96
 20
84.8907
 10
-178.455
 20
84.7553
 10
-177.966
 20
84.5677
 10
-177.5
 20
84.3301
 10
-177.061
 20
84.0451
 10
-176.654
 20
83.7157
 10
-176.284
 20
83.3457
 10
-175.955
 20
82.9389
 10
-175.67
 20
82.5
 10
-175.432
 20
82.0337
 10
-175.245
 20
81.5451
 10
-175.109
 20
81.0396
 10
-175.027
 20
80.5226
 10
-175
 20
80
 10
-175.027
 20
79.4774
 10
-175.109
 20
78.9604
 10
-175.245
 20
78.4549
 10
-175.432
 20
77.9663
 10
-175.67
 20
77.5
 10
-175.955
 20
77.0611
 10
-176.284
 20
76.6543
 10
-176.654
 20
76.2843
 10
-177.061
 20
75.9549
 10
-177.5
 20
75.6699
 10
-177.966
 20
75.4323
 10
-178.455
 20
75.2447
 10
-178.96
 20
75.1093
 10
-179.477
 20
75.0274
 10
-180
 20
75
  0
LWPOLYLINE
100
AcDbEntity
  8
0
100
AcDbPolyline
 90
60
 70
1
 10
-180.523
 20
-4.97261
 10
-181.04
 20
-4.89074
 10
-181.545
 20
-4.75528
 10
-182.034
 20
-4.56773
 10
-182.5
 20
-4.33013
 10
-182.939
 20
-4.04508
 10
-183.346
 20
-3.71572
 10
-183.716
 20
-3.34565
 10
-184.045
 20
-2.93893
 10
-184.33
 20
-2.5
 10
-184.568
 20
-2.03368
 10
-184.755
 20
-1.54508
 10
-184.891
 20
-1.03956
 10
-184.973
 20
-0.522642
 10
-185
 20
0
 10
-184.973
 20
0.522642
 10
-184.891
 20
1.03956
 10
-184.755
 20
1.54508
 10
-184.568
 20
2.03368
 10
-184.33
 20
2.5
 10
-184.045
 20
2.93893
 10
-183.716
 20
3.34565
 10
-183.346
 20
3.71572
 10
-182.939
 20
4.04508
 10
-182.5
 20
4.33013
 10
-182.034
 20
4.56773
 10
-181.545
 20
4.75528
 10
-181.04
 20
4.89074
 10
-180.523
 20
4.97261
 10
-180
 20
5
 10
-179.477
 20
4.97261
 10
-178.96
 20
4.89074
 10
-178.455
 20
4.75528
 10
-177.966
 20
4.56773
 10
-177.5
 20
4.33013
 10
-177.061
 20
4.04508
 10
-176.654
 20
3.71572
 10
-176.284
 20
3.34565
 10
-175.955
 20
2.93893
 10
-175.67
 20
2.5
 10
-175.432
 20
2.03368
 10
-175.245
 20
1.54508
 10
-175.109
 20
1.03956
 10
-175.027
 20
0.522642
 10
-175
 20
0
 10
-175.027
 20
-0.522642
 10
-175.109
 20
-1.03956
 10
-175.245
 20
-1.54508
 10
-175.432
 20
-2.03368
 10
-175.67
 20
-2.5
 10
-175.955
 20
-2.93893
 10
-176.284
 20
-3.34565
 10
-176.654
 20
-3.71572
 10
-177.061
 20
-4.04508
 10
-177.5
 20
-4.33013
 10
-177.966
 20
-4.56773
 10
-178.455
 20
-4.75528
 10
-178.96
 20
-4.89074
 10
-179.477
 20
-4.97261
 10
-180
 20
-5
  0
LWPOLYLINE
100
AcDbEntity
  8
0
100
AcDbPolyline
 90
60
 70
1
 10
-180.523
 20
-84.9726
 10
-181.04
 20
-84.8907
 10
-181.545
 20
-84.7553
 10
-182.034
 20
-84.5677
 10
-182.5
 20
-84.3301
 10
-182.939
 20
-84.0451
 10
-183.346
 20
-83.7157
 10
-183.716
 20
-83.3457
 10
-184.045
 20
-82.9389
 10
-184.33
 20
-82.5
 10
-184.568
 20
-82.0337
 10
-184.755
 20
-81.5451
 10
-184.891
 20
-81.0396
 10
-184.973
 20
-80.5226
 10
-185
 20
-80
 10
-184.973
 20
-79.4774
 10
-184.891
 20
-78.9604
 10
-184.755
 20
-78.4549
 10
-184.568
 20
-77.9663
 10
-184.33
 20
-77.5
 10
-184.045
 20
-77.0611
 10
-183.716
 20
-76.6543
 10
-183.346
 20
-76.2843
 10
-182.939
 20
-75.9549
 10
-182.5
 20
-75.6699
 10
-182.034
 20
-75.4323
 10
-181.545
 20
-75.2447
 10
-181.04
 20
-75.1093
 10
-180.523
 20
-75.0274
 10
-180
 20
-75
 10
-179.477
 20
-75.0274
 10
-178.96
 20
-75.1093
 10
-178.455
 20
-75.2447
 10
-177.966
 20
-75.4323
 10
-177.5
 20
-75.6699
 10
-177.061
 20
-75.9549
 10
-176.654
 20
-76.2843
 10
-176.284
 20
-76.6543
 10
-175.955
 20
-77.0611
 10
-175.67
 20
-77.5
 10
-175.432
 20
-77.9663
 10
-175.245
 20
-78.4549
 10
-175.109
 20
-78.9604
 10
-175.027
 20
-79.4774
 10
-175
 20
-80
 10
-175.027
 20
-80.5226
 10
-175.109
 20
-81.0396
 10
-175.245
 20
-81.5451
 10
-175.432
 20
-82.0337
 10
-175.67
 20
-82.5
 10
-175.955
 20
-82.9389
 10
-176.284
 20
-83.3457
 10
-176.654
 20
-83.7157
 10
-177.061
 20
-84.0451
 10
-177.5
 20
-84.3301
 10
-177.966
 20
-84.5677
 10
-178.455
 20
-84.7553
 10
-178.96
 20
-84.8907
 10
-179.477
 20
-84.9726
 10
-180
 20
-85
  0
LWPOLYLINE
100
AcDbEntity
  8
0
100
AcDbPolyline
 90
60
 70
1
 10
-180.523
 20
-164.973
 10
-181.04
 20
-164.891
 10
-181.545
 20
-164.755
 10
-182.034
 20
-164.568
 10
-182.5
 20
-164.33
 10
-182.939
 20
-164.045
 10
-183.346
 20
-163.716
 10
-183.716
 20
-163.346
 10
-184.045
 20
-162.939
 10
-184.33
 20
-162.5
 10
-184.568
 20
-162.034
 10
-184.755
 20
-161.545
 10
-184.891
 20
-161.04
 10
-184.973
 20
-160.523
 10
-185
 20
-160
 10
-184.973
 20
-159.477
 10
-184.891
 20
-158.96
 10
-184.755
 20
-158.455
 10
-184.568
 20
-157.966
 10
-184.33
 20
-157.5
 10
-184.045
 20
-157.061
 10
-183.716
 20
-156.654
 10
-183.346
 20
-156.284
 10
-182.939
 20
-155.955
 10
-182.5
 20
-155.67
 10
-182.034
 20
-155.432
 10
-181.545
 20
-155.245
 10
-181.04
 20
-155.109
 10
-180.523
 20
-155.027
 10
-180
 20
-155
 10
-179.477
 20
-155.027
 10
-178.96
 20
-155.109
 10
-178.455
 20
-155.245
 10
-177.966
 20
-155.432
 10
-177.5
 20
-155.67
 10
-177.061
 20
-155.955
 10
-176.654
 20
-156.284
 10
-176.284
 20
-156.654
 10
-175.955
 20
-157.061
 10
-175.67
 20
-157.5
 10
-175.432
 20
-157.966
 10
-175.245
 20
-158.455
 10
-175.109
 20
-158.96
 10
-175.027
 20
-159.477
 10
-175
 20
-160
 10
-175.027
 20
-160.523
 10
-175.109
 20
-161.04
 10
-175.245
 20
-161.545
 10
-175.432
 20
-162.034
 10
-175.67
 20
-162.5
 10
-175.955
 20
-162.939
 10
-176.284
 20
-163.346
 10
-176.654
 20
-163.716
 10
-177.061
 20
-164.045
 10
-177.5
 20
-164.33
 10
-177.966
 20
-164.568
 10
-178.455
 20
-164.755
 10
-178.96
 20
-164.891
 10
-179.477
 20
-164.973
 10
-180
 20
-165
  0
LWPOLYLINE
100
AcDbEntity
  8
0
100
AcDbPolyline
 90
60
 70
1
 10
19.4774
 20
-164.973
 10
18.9604
 20
-164.891
 10
18.4549
 20
-164.755
 10
17.9663
 20
-164.568
 10
17.5
 20
-164.33
 10
17.0611
 20
-164.045
 10
16.6543
 20
-163.716
 10
16.2843
 20
-163.346
 10
15.9549
 20
-162.939
 10
15.6699
 20
-162.5
 10
15.4323
 20
-162.034
 10
15.2447
 20
-161.545
 10
15.1093
 20
-161.04
 10
15.0274
 20
-160.523
 10
15
 20
-160
 10
15.0274
 20
-159.477
 10
15.1093
 20
-158.96
 10
15.2447
 20
-158.455
 10
15.4323
 20
-157.966
 10
15.6699
 20
-157.5
 10
15.9549
 20
-157.061
 10
16.2843
 20
-156.654
 10
16.6543
 20
-156.284
 10
17.0611
 20
-155.955
 10
17.5
 20
-155.67
 10
17.9663
 20
-155.432
 10
18.4549
 20
-155.245
 10
18.9604
 20
-155.109
 10
19.4774
 20
-155.027
 10
20
 20
-155
 10
20.5226
 20
-155.027
 10
21.0396
 20
-155.109
 10
21.5451
 20
-155.245
 10
22.0337
 20
-155.432
 10
22.5
 20
-155.67
 10
22.9389
 20
-155.955
 10
23.3457
 20
-156.284
 10
23.7157
 20
-156.654
 10
24.0451
 20
-157.061
 10
24.3301
 20
-157.5
 10
24.5677
 20
-157.966
 10
24.7553
 20
-158.455
 10
24.8907
 20
-158.96
 10
24.9726
 20
-159.477
 10
25
 20
-160
 10
24.9726
 20
-160.523
 10
24.8907
 20
-161.04
 10
24.7553
 20
-161.545
 10
24.5677
 20
-162.034
 10
24.3301
 20
-162.5
 10
24.0451
 20
-162.939
 10
23.7157
 20
-163.346
 10
23.3457
 20
-163.716
 10
22.9389
 20
-164.045
 10
22.5
 20
-164.33
 10
22.0337
 20
-164.568
 10
21.5451
 20
-164.755
 10
21.0396
 20
-164.891
 10
20.5226
 20
-164.973
 10
20
 20
-165
  0
LWPOLYLINE
100
AcDbEntity
  8
0
100
AcDbPolyline
 90
60
 70
1
 10
99.4774
 20
-164.973
 10
98.9604
 20
-164.891
 10
98.4549
 20
-164.755
 10
97.9663
 20
-164.568
 10
97.5
 20
-164.33
 10
97.0611
 20
-164.045
 10
96.6543
 20
-163.716
 10
96.2843
 20
-163.346
 10
95.9549
 20
-162.939
 10
95.6699
 20
-162.5
 10
95.4323
 20
-162.034
 10
95.2447
 20
-161.545
 10
95.1093
 20
-161.04
 10
95.0274
 20
-160.523
 10
95
 20
-160
 10
95.0274
 20
-159.477
 10
95.1093
 20
-158.96
 10
95.2447
 20
-158.455
 10
95.4323
 20
-157.966
 10
95.6699
 20
-157.5
 10
95.9549
 20
-157.061
 10
96.2843
 20
-156.654
 10
96.6543
 20
-156.284
 10
97.0611
 20
-155.955
 10
97.5
 20
-155.67
 10
97.9663
 20
-155.432
 10
98.4549
 20
-155.245
 10
98.9604
 20
-155.109
 10
99.4774
 20
-155.027
 10
100
 20
-155
 10
100.523
 20
-155.027
 10
101.04
 20
-155.109
 10
101.545
 20
-155.245
 10
102.034
 20
-155.432
 10
102.5
 20
-155.67
 10
102.939
 20
-155.955
 10
103.346
 20
-156.284
 10
103.716
 20
-156.654
 10
104.045
 20
-157.061
 10
104.33
 20
-157.5
 10
104.568
 20
-157.966
 10
104.755
 20
-158.455
 10
104.891
 20
-158.96
 10
104.973
 20
-159.477
 10
105
 20
-160
 10
104.973
 20
-160.523
 10
104.891
 20
-161.04
 10
104.755
 20
-161.545
 10
104.568
 20
-162.034
 10
104.33
 20
-162.5
 10
104.045
 20
-162.939
 10
103.716
 20
-163.346
 10
103.346
 20
-163.716
 10
102.939
 20
-164.045
 10
102.5
 20
-164.33
 10
102.034
 20
-164.568
 10
101.545
 20
-164.755
 10
101.04
 20
-164.891
 10
100.523
 20
-164.973
 10
100
 20
-165
  0
LWPOLYLINE
100
AcDbEntity
  8
0
100
AcDbPolyline
 90
60
 70
1
 10
179.477
 20
-164.973
 10
178.96
 20
-164.891
 10
178.455
 20
-164.755
 10
177.966
 20
-164.568
 10
177.5
 20
-164.33
 10
177.061
 20
-164.045
 10
176.654
 20
-163.716
 10
176.284
 20
-163.346
 10
175.955
 20
-162.939
 10
175.67
 20
-162.5
 10
175.432
 20
-162.034
 10
175.245
 20
-161.545
 10
175.109
 20
-161.04
 10
175.027
 20
-160.523
 10
175
 20
-160
 10
175.027
 20
-159.477
 10
175.109
 20
-158.96
 10
175.245
 20
-158.455
 10
175.432
 20
-157.966
 10
175.67
 20
-157.5
 10
175.955
 20
-157.061
 10
176.284
 20
-156.654
 10
176.654
 20
-156.284
 10
177.061
 20
-155.955
 10
177.5
 20
-155.67
 10
177.966
 20
-155.432
 10
178.455
 20
-155.245
 10
178.96
 20
-155.109
 10
179.477
 20
-155.027
 10
180
 20
-155
 10
180.523
 20
-155.027
 10
181.04
 20
-155.109
 10
181.545
 20
-155.245
 10
182.034
 20
-155.432
 10
182.5
 20
-155.67
 10
182.939
 20
-155.955
 10
183.346
 20
-156.284
 10
183.716
 20
-156.654
 10
184.045
 20
-157.061
 10
184.33
 20
-157.5
 10
184.568
 20
-157.966
 10
184.755
 20
-158.455
 10
184.891
 20
-158.96
 10
184.973
 20
-159.477
 10
185
 20
-160
 10
184.973
 20
-160.523
 10
184.891
 20
-161.04
 10
184.755
 20
-161.545
 10
184.568
 20
-162.034
 10
184.33
 20
-162.5
 10
184.045
 20
-162.939
 10
183.716
 20
-163.346
 10
183.346
 20
-163.716
 10
182.939
 20
-164.045
 10
182.5
 20
-164.33
 10
182.034
 20
-164.568
 10
181.545
 20
-164.755
 10
181.04
 20
-164.891
 10
180.523
 20
-164.973
 10
180
 20
-165
  0
ENDSEC
  0
EOF
