999
DXF from OpenSCAD
  0
SECTION
  2
HEADER
  9
$ACADVER
  1
AC1006
  9
$INSBASE
 10
0.0
 20
0.0
 30
0.0
  9
$EXTMIN
 10
-200
 20
-180
  9
$EXTMAX
 10
200
 20
180
  9
$LINMIN
 10
-200
 20
-180
  9
$LINMAX
 10
200
 20
180
  0
ENDSEC
  0
SECTION
  2
TABLES
  0
TABLE
  2
LTYPE
 70
1
  0
LTYPE
  2
CONTINUOUS
 70
64
  3
Solid line
 72
65
 73
0
 40
0.000000
  0
ENDTAB
  0
TABLE
  2
LAYER
 70
6
  0
LAYER
  2
0
 70
64
 62
7
  6
CONTINUOUS
  0
ENDTAB
  0
TABLE
  2
STYLE
 70
0
  0
ENDTAB
  0
ENDSEC
  0
SECTION
  2
BLOCKS
  0
ENDSEC
  0
SECTION
  2
ENTITIES
  0
LWPOLYLINE
100
AcDbEntity
  8
0
100
AcDbPolyline
 90
4
 70
1
 10
200
 20
180
 10
-200
 20
180
 10
-200
 20
-180
 10
200
 20
-180
  0
LWPOLYLINE
100
AcDbEntity
  8
0
100
AcDbPolyline
 90
60
 70
1
 10
-180.418
 20
156.022
 10
-180.832
 20
156.087
 10
-181.236
 20
156.196
 10
-181.627
 20
156.346
 10
-182
 20
156.536
 10
-182.351
 20
156.764
 10
-182.677
 20
157.027
 10
-182.973
 20
157.323
 10
-183.236
 20
157.649
 10
-183.464
 20
158
 10
-183.654
 20
158.373
 10
-183.804
 20
158.764
 10
-183.913
 20
159.168
 10
-183.978
 20
159.582
 10
-184
 20
160
 10
-183.978
 20
160.418
 10
-183.913
 20
160.832
 10
-183.804
 20
161.236
 10
-183.654
 20
161.627
 10
-183.464
 20
162
 10
-183.236
 20
162.351
 10
-182.973
 20
162.677
 10
-182.677
 20
162.973
 10
-182.351
 20
163.236
 10
-182
 20
163.464
 10
-181.627
 20
163.654
 10
-181.236
 20
163.804
 10
-180.832
 20
163.913
 10
-180.418
 20
163.978
 10
-180
 20
164
 10
-179.582
 20
163.978
 10
-179.168
 20
163.913
 10
-178.764
 20
163.804
 10
-178.373
 20
163.654
 10
-178
 20
163.464
 10
-177.649
 20
163.236
 10
-177.323
 20
162.973
 10
-177.027
 20
162.677
 10
-176.764
 20
162.351
 10
-176.536
 20
162
 10
-176.346
 20
161.627
 10
-176.196
 20
161.236
 10
-176.087
 20
160.832
 10
-176.022
 20
160.418
 10
-176
 20
160
 10
-176.022
 20
159.582
 10
-176.087
 20
159.168
 10
-176.196
 20
158.764
 10
-176.346
 20
158.373
 10
-176.536
 20
158
 10
-176.764
 20
157.649
 10
-177.027
 20
157.323
 10
-177.323
 20
157.027
 10
-177.649
 20
156.764
 10
-178
 20
156.536
 10
-178.373
 20
156.346
 10
-178.764
 20
156.196
 10
-179.168
 20
156.087
 10
-179.582
 20
156.022
 10
-180
 20
156
  0
LWPOLYLINE
100
AcDbEntity
  8
0
100
AcDbPolyline
 90
60
 70
1
 10
-180.418
 20
76.0219
 10
-180.832
 20
76.0874
 10
-181.236
 20
76.1958
 10
-181.627
 20
76.3458
 10
-182
 20
76.5359
 10
-182.351
 20
76.7639
 10
-182.677
 20
77.0274
 10
-182.973
 20
77.3235
 10
-183.236
 20
77.6489
 10
-183.464
 20
78
 10
-183.654
 20
78.3731
 10
-183.804
 20
78.7639
 10
-183.913
 20
79.1684
 10
-183.978
 20
79.5819
 10
-184
 20
80
 10
-183.978
 20
80.4181
 10
-183.913
 20
80.8316
 10
-183.804
 20
81.2361
 10
-183.654
 20
81.6269
 10
-183.464
 20
82
 10
-183.236
 20
82.3511
 10
-182.973
 20
82.6765
 10
-182.677
 20
82.9726
 10
-182.351
 20
83.2361
 10
-182
 20
83.4641
 10
-181.627
 20
83.6542
 10
-181.236
 20
83.8042
 10
-180.832
 20
83.9126
 10
-180.418
 20
83.9781
 10
-180
 20
84
 10
-179.582
 20
83.9781
 10
-179.168
 20
83.9126
 10
-178.764
 20
83.8042
 10
-178.373
 20
83.6542
 10
-178
 20
83.4641
 10
-177.649
 20
83.2361
 10
-177.323
 20
82.9726
 10
-177.027
 20
82.6765
 10
-176.764
 20
82.3511
 10
-176.536
 20
82
 10
-176.346
 20
81.6269
 10
-176.196
 20
81.2361
 10
-176.087
 20
80.8316
 10
-176.022
 20
80.4181
 10
-176
 20
80
 10
-176.022
 20
79.5819
 10
-176.087
 20
79.1684
 10
-176.196
 20
78.7639
 10
-176.346
 20
78.3731
 10
-176.536
 20
78
 10
-176.764
 20
77.6489
 10
-177.027
 20
77.3235
 10
-177.323
 20
77.0274
 10
-177.649
 20
76.7639
 10
-178
 20
76.5359
 10
-178.373
 20
76.3458
 10
-178.764
 20
76.1958
 10
-179.168
 20
76.0874
 10
-179.582
 20
76.0219
 10
-180
 20
76
  0
LWPOLYLINE
100
AcDbEntity
  8
0
100
AcDbPolyline
 90
60
 70
1
 10
-180.418
 20
-3.97809
 10
-180.832
 20
-3.91259
 10
-181.236
 20
-3.80423
 10
-181.627
 20
-3.65418
 10
-182
 20
-3.4641
 10
-182.351
 20
-3.23607
 10
-182.677
 20
-2.97258
 10
-182.973
 20
-2.67652
 10
-183.236
 20
-2.35114
 10
-183.464
 20
-2
 10
-183.654
 20
-1.62695
 10
-183.804
 20
-1.23607
 10
-183.913
 20
-0.831647
 10
-183.978
 20
-0.418114
 10
-184
 20
0
 10
-183.978
 20
0.418114
 10
-183.913
 20
0.831647
 10
-183.804
 20
1.23607
 10
-183.654
 20
1.62695
 10
-183.464
 20
2
 10
-183.236
 20
2.35114
 10
-182.973
 20
2.67652
 10
-182.677
 20
2.97258
 10
-182.351
 20
3.23607
 10
-182
 20
3.4641
 10
-181.627
 20
3.65418
 10
-181.236
 20
3.80423
 10
-180.832
 20
3.91259
 10
-180.418
 20
3.97809
 10
-180
 20
4
 10
-179.582
 20
3.97809
 10
-179.168
 20
3.91259
 10
-178.764
 20
3.80423
 10
-178.373
 20
3.65418
 10
-178
 20
3.4641
 10
-177.649
 20
3.23607
 10
-177.323
 20
2.97258
 10
-177.027
 20
2.67652
 10
-176.764
 20
2.35114
 10
-176.536
 20
2
 10
-176.346
 20
1.62695
 10
-176.196
 20
1.23607
 10
-176.087
 20
0.831647
 10
-176.022
 20
0.418114
 10
-176
 20
0
 10
-176.022
 20
-0.418114
 10
-176.087
 20
-0.831647
 10
-176.196
 20
-1.23607
 10
-176.346
 20
-1.62695
 10
-176.536
 20
-2
 10
-176.764
 20
-2.35114
 10
-177.027
 20
-2.67652
 10
-177.323
 20
-2.97258
 10
-177.649
 20
-3.23607
 10
-178
 20
-3.4641
 10
-178.373
 20
-3.65418
 10
-178.764
 20
-3.80423
 10
-179.168
 20
-3.91259
 10
-179.582
 20
-3.97809
 10
-180
 20
-4
  0
LWPOLYLINE
100
AcDbEntity
  8
0
100
AcDbPolyline
 90
60
 70
1
 10
-180.418
 20
-83.9781
 10
-180.832
 20
-83.9126
 10
-181.236
 20
-83.8042
 10
-181.627
 20
-83.6542
 10
-182
 20
-83.4641
 10
-182.351
 20
-83.2361
 10
-182.677
 20
-82.9726
 10
-182.973
 20
-82.6765
 10
-183.236
 20
-82.3511
 10
-183.464
 20
-82
 10
-183.654
 20
-81.6269
 10
-183.804
 20
-81.2361
 10
-183.913
 20
-80.8316
 10
-183.978
 20
-80.4181
 10
-184
 20
-80
 10
-183.978
 20
-79.5819
 10
-183.913
 20
-79.1684
 10
-183.804
 20
-78.7639
 10
-183.654
 20
-78.3731
 10
-183.464
 20
-78
 10
-183.236
 20
-77.6489
 10
-182.973
 20
-77.3235
 10
-182.677
 20
-77.0274
 10
-182.351
 20
-76.7639
 10
-182
 20
-76.5359
 10
-181.627
 20
-76.3458
 10
-181.236
 20
-76.1958
 10
-180.832
 20
-76.0874
 10
-180.418
 20
-76.0219
 10
-180
 20
-76
 10
-179.582
 20
-76.0219
 10
-179.168
 20
-76.0874
 10
-178.764
 20
-76.1958
 10
-178.373
 20
-76.3458
 10
-178
 20
-76.5359
 10
-177.649
 20
-76.7639
 10
-177.323
 20
-77.0274
 10
-177.027
 20
-77.3235
 10
-176.764
 20
-77.6489
 10
-176.536
 20
-78
 10
-176.346
 20
-78.3731
 10
-176.196
 20
-78.7639
 10
-176.087
 20
-79.1684
 10
-176.022
 20
-79.5819
 10
-176
 20
-80
 10
-176.022
 20
-80.4181
 10
-176.087
 20
-80.8316
 10
-176.196
 20
-81.2361
 10
-176.346
 20
-81.6269
 10
-176.536
 20
-82
 10
-176.764
 20
-82.3511
 10
-177.027
 20
-82.6765
 10
-177.323
 20
-82.9726
 10
-177.649
 20
-83.2361
 10
-178
 20
-83.4641
 10
-178.373
 20
-83.6542
 10
-178.764
 20
-83.8042
 10
-179.168
 20
-83.9126
 10
-179.582
 20
-83.9781
 10
-180
 20
-84
  0
LWPOLYLINE
100
AcDbEntity
  8
0
100
AcDbPolyline
 90
60
 70
1
 10
97.9094
 20
-129.89
 10
95.8418
 20
-129.563
 10
93.8197
 20
-129.021
 10
91.8653
 20
-128.271
 10
90
 20
-127.321
 10
88.2443
 20
-126.18
 10
86.6174
 20
-124.863
 10
85.1371
 20
-123.383
 10
83.8197
 20
-121.756
 10
82.6795
 20
-120
 10
81.7291
 20
-118.135
 10
80.9789
 20
-116.18
 10
80.437
 20
-114.158
 10
80.1096
 20
-112.091
 10
80
 20
-110
 10
80.1096
 20
-107.909
 10
80.437
 20
-105.842
 10
80.9789
 20
-103.82
 10
81.7291
 20
-101.865
 10
82.6795
 20
-100
 10
83.8197
 20
-98.2443
 10
85.1371
 20
-96.6174
 10
86.6174
 20
-95.1371
 10
88.2443
 20
-93.8197
 10
90
 20
-92.6795
 10
91.8653
 20
-91.7291
 10
93.8197
 20
-90.9789
 10
95.8418
 20
-90.437
 10
97.9094
 20
-90.1096
 10
100
 20
-90
 10
102.091
 20
-90.1096
 10
104.158
 20
-90.437
 10
106.18
 20
-90.9789
 10
108.135
 20
-91.7291
 10
110
 20
-92.6795
 10
111.756
 20
-93.8197
 10
113.383
 20
-95.1371
 10
114.863
 20
-96.6174
 10
116.18
 20
-98.2443
 10
117.321
 20
-100
 10
118.271
 20
-101.865
 10
119.021
 20
-103.82
 10
119.563
 20
-105.842
 10
119.89
 20
-107.909
 10
120
 20
-110
 10
119.89
 20
-112.091
 10
119.563
 20
-114.158
 10
119.021
 20
-116.18
 10
118.271
 20
-118.135
 10
117.321
 20
-120
 10
116.18
 20
-121.756
 10
114.863
 20
-123.383
 10
113.383
 20
-124.863
 10
111.756
 20
-126.18
 10
110
 20
-127.321
 10
108.135
 20
-128.271
 10
106.18
 20
-129.021
 10
104.158
 20
-129.563
 10
102.091
 20
-129.89
 10
100
 20
-130
  0
LWPOLYLINE
100
AcDbEntity
  8
0
100
AcDbPolyline
 90
60
 70
1
 10
-180.418
 20
-163.978
 10
-180.832
 20
-163.913
 10
-181.236
 20
-163.804
 10
-181.627
 20
-163.654
 10
-182
 20
-163.464
 10
-182.351
 20
-163.236
 10
-182.677
 20
-162.973
 10
-182.973
 20
-162.677
 10
-183.236
 20
-162.351
 10
-183.464
 20
-162
 10
-183.654
 20
-161.627
 10
-183.804
 20
-161.236
 10
-183.913
 20
-160.832
 10
-183.978
 20
-160.418
 10
-184
 20
-160
 10
-183.978
 20
-159.582
 10
-183.913
 20
-159.168
 10
-183.804
 20
-158.764
 10
-183.654
 20
-158.373
 10
-183.464
 20
-158
 10
-183.236
 20
-157.649
 10
-182.973
 20
-157.323
 10
-182.677
 20
-157.027
 10
-182.351
 20
-156.764
 10
-182
 20
-156.536
 10
-181.627
 20
-156.346
 10
-181.236
 20
-156.196
 10
-180.832
 20
-156.087
 10
-180.418
 20
-156.022
 10
-180
 20
-156
 10
-179.582
 20
-156.022
 10
-179.168
 20
-156.087
 10
-178.764
 20
-156.196
 10
-178.373
 20
-156.346
 10
-178
 20
-156.536
 10
-177.649
 20
-156.764
 10
-177.323
 20
-157.027
 10
-177.027
 20
-157.323
 10
-176.764
 20
-157.649
 10
-176.536
 20
-158
 10
-176.346
 20
-158.373
 10
-176.196
 20
-158.764
 10
-176.087
 20
-159.168
 10
-176.022
 20
-159.582
 10
-176
 20
-160
 10
-176.022
 20
-160.418
 10
-176.087
 20
-160.832
 10
-176.196
 20
-161.236
 10
-176.346
 20
-161.627
 10
-176.536
 20
-162
 10
-176.764
 20
-162.351
 10
-177.027
 20
-162.677
 10
-177.323
 20
-162.973
 10
-177.649
 20
-163.236
 10
-178
 20
-163.464
 10
-178.373
 20
-163.654
 10
-178.764
 20
-163.804
 10
-179.168
 20
-163.913
 10
-179.582
 20
-163.978
 10
-180
 20
-164
  0
LWPOLYLINE
100
AcDbEntity
  8
0
100
AcDbPolyline
 90
60
 70
1
 10
19.5819
 20
-163.978
 10
19.1684
 20
-163.913
 10
18.7639
 20
-163.804
 10
18.3731
 20
-163.654
 10
18
 20
-163.464
 10
17.6489
 20
-163.236
 10
17.3235
 20
-162.973
 10
17.0274
 20
-162.677
 10
16.7639
 20
-162.351
 10
16.5359
 20
-162
 10
16.3458
 20
-161.627
 10
16.1958
 20
-161.236
 10
16.0874
 20
-160.832
 10
16.0219
 20
-160.418
 10
16
 20
-160
 10
16.0219
 20
-159.582
 10
16.0874
 20
-159.168
 10
16.1958
 20
-158.764
 10
16.3458
 20
-158.373
 10
16.5359
 20
-158
 10
16.7639
 20
-157.649
 10
17.0274
 20
-157.323
 10
17.3235
 20
-157.027
 10
17.6489
 20
-156.764
 10
18
 20
-156.536
 10
18.3731
 20
-156.346
 10
18.7639
 20
-156.196
 10
19.1684
 20
-156.087
 10
19.5819
 20
-156.022
 10
20
 20
-156
 10
20.4181
 20
-156.022
 10
20.8316
 20
-156.087
 10
21.2361
 20
-156.196
 10
21.6269
 20
-156.346
 10
22
 20
-156.536
 10
22.3511
 20
-156.764
 10
22.6765
 20
-157.027
 10
22.9726
 20
-157.323
 10
23.2361
 20
-157.649
 10
23.4641
 20
-158
 10
23.6542
 20
-158.373
 10
23.8042
 20
-158.764
 10
23.9126
 20
-159.168
 10
23.9781
 20
-159.582
 10
24
 20
-160
 10
23.9781
 20
-160.418
 10
23.9126
 20
-160.832
 10
23.8042
 20
-161.236
 10
23.6542
 20
-161.627
 10
23.4641
 20
-162
 10
23.2361
 20
-162.351
 10
22.9726
 20
-162.677
 10
22.6765
 20
-162.973
 10
22.3511
 20
-163.236
 10
22
 20
-163.464
 10
21.6269
 20
-163.654
 10
21.2361
 20
-163.804
 10
20.8316
 20
-163.913
 10
20.4181
 20
-163.978
 10
20
 20
-164
  0
LWPOLYLINE
100
AcDbEntity
  8
0
100
AcDbPolyline
 90
60
 70
1
 10
99.5819
 20
-163.978
 10
99.1684
 20
-163.913
 10
98.7639
 20
-163.804
 10
98.3731
 20
-163.654
 10
98
 20
-163.464
 10
97.6489
 20
-163.236
 10
97.3235
 20
-162.973
 10
97.0274
 20
-162.677
 10
96.7639
 20
-162.351
 10
96.5359
 20
-162
 10
96.3458
 20
-161.627
 10
96.1958
 20
-161.236
 10
96.0874
 20
-160.832
 10
96.0219
 20
-160.418
 10
96
 20
-160
 10
96.0219
 20
-159.582
 10
96.0874
 20
-159.168
 10
96.1958
 20
-158.764
 10
96.3458
 20
-158.373
 10
96.5359
 20
-158
 10
96.7639
 20
-157.649
 10
97.0274
 20
-157.323
 10
97.3235
 20
-157.027
 10
97.6489
 20
-156.764
 10
98
 20
-156.536
 10
98.3731
 20
-156.346
 10
98.7639
 20
-156.196
 10
99.1684
 20
-156.087
 10
99.5819
 20
-156.022
 10
100
 20
-156
 10
100.418
 20
-156.022
 10
100.832
 20
-156.087
 10
101.236
 20
-156.196
 10
101.627
 20
-156.346
 10
102
 20
-156.536
 10
102.351
 20
-156.764
 10
102.677
 20
-157.027
 10
102.973
 20
-157.323
 10
103.236
 20
-157.649
 10
103.464
 20
-158
 10
103.654
 20
-158.373
 10
103.804
 20
-158.764
 10
103.913
 20
-159.168
 10
103.978
 20
-159.582
 10
104
 20
-160
 10
103.978
 20
-160.418
 10
103.913
 20
-160.832
 10
103.804
 20
-161.236
 10
103.654
 20
-161.627
 10
103.464
 20
-162
 10
103.236
 20
-162.351
 10
102.973
 20
-162.677
 10
102.677
 20
-162.973
 10
102.351
 20
-163.236
 10
102
 20
-163.464
 10
101.627
 20
-163.654
 10
101.236
 20
-163.804
 10
100.832
 20
-163.913
 10
100.418
 20
-163.978
 10
100
 20
-164
  0
LWPOLYLINE
100
AcDbEntity
  8
0
100
AcDbPolyline
 90
60
 70
1
 10
179.582
 20
-163.978
 10
179.168
 20
-163.913
 10
178.764
 20
-163.804
 10
178.373
 20
-163.654
 10
178
 20
-163.464
 10
177.649
 20
-163.236
 10
177.323
 20
-162.973
 10
177.027
 20
-162.677
 10
176.764
 20
-162.351
 10
176.536
 20
-162
 10
176.346
 20
-161.627
 10
176.196
 20
-161.236
 10
176.087
 20
-160.832
 10
176.022
 20
-160.418
 10
176
 20
-160
 10
176.022
 20
-159.582
 10
176.087
 20
-159.168
 10
176.196
 20
-158.764
 10
176.346
 20
-158.373
 10
176.536
 20
-158
 10
176.764
 20
-157.649
 10
177.027
 20
-157.323
 10
177.323
 20
-157.027
 10
177.649
 20
-156.764
 10
178
 20
-156.536
 10
178.373
 20
-156.346
 10
178.764
 20
-156.196
 10
179.168
 20
-156.087
 10
179.582
 20
-156.022
 10
180
 20
-156
 10
180.418
 20
-156.022
 10
180.832
 20
-156.087
 10
181.236
 20
-156.196
 10
181.627
 20
-156.346
 10
182
 20
-156.536
 10
182.351
 20
-156.764
 10
182.677
 20
-157.027
 10
182.973
 20
-157.323
 10
183.236
 20
-157.649
 10
183.464
 20
-158
 10
183.654
 20
-158.373
 10
183.804
 20
-158.764
 10
183.913
 20
-159.168
 10
183.978
 20
-159.582
 10
184
 20
-160
 10
183.978
 20
-160.418
 10
183.913
 20
-160.832
 10
183.804
 20
-161.236
 10
183.654
 20
-161.627
 10
183.464
 20
-162
 10
183.236
 20
-162.351
 10
182.973
 20
-162.677
 10
182.677
 20
-162.973
 10
182.351
 20
-163.236
 10
182
 20
-163.464
 10
181.627
 20
-163.654
 10
181.236
 20
-163.804
 10
180.832
 20
-163.913
 10
180.418
 20
-163.978
 10
180
 20
-164
  0
ENDSEC
  0
EOF
