999
DXF from OpenSCAD
  0
SECTION
  2
HEADER
  9
$ACADVER
  1
AC1006
  9
$INSBASE
 10
0.0
 20
0.0
 30
0.0
  9
$EXTMIN
 10
-180
 20
-100
  9
$EXTMAX
 10
180
 20
100
  9
$LINMIN
 10
-180
 20
-100
  9
$LINMAX
 10
180
 20
100
  0
ENDSEC
  0
SECTION
  2
TABLES
  0
TABLE
  2
LTYPE
 70
1
  0
LTYPE
  2
CONTINUOUS
 70
64
  3
Solid line
 72
65
 73
0
 40
0.000000
  0
ENDTAB
  0
TABLE
  2
LAYER
 70
6
  0
LAYER
  2
0
 70
64
 62
7
  6
CONTINUOUS
  0
ENDTAB
  0
TABLE
  2
STYLE
 70
0
  0
ENDTAB
  0
ENDSEC
  0
SECTION
  2
BLOCKS
  0
ENDSEC
  0
SECTION
  2
ENTITIES
  0
LWPOLYLINE
100
AcDbEntity
  8
0
100
AcDbPolyline
 90
4
 70
1
 10
180
 20
100
 10
-180
 20
100
 10
-180
 20
-100
 10
180
 20
-100
  0
LWPOLYLINE
100
AcDbEntity
  8
0
100
AcDbPolyline
 90
60
 70
1
 10
-150.314
 20
88.0164
 10
-150.624
 20
88.0656
 10
-150.927
 20
88.1468
 10
-151.22
 20
88.2594
 10
-151.5
 20
88.4019
 10
-151.763
 20
88.5729
 10
-152.007
 20
88.7706
 10
-152.229
 20
88.9926
 10
-152.427
 20
89.2366
 10
-152.598
 20
89.5
 10
-152.741
 20
89.7798
 10
-152.853
 20
90.0729
 10
-152.934
 20
90.3763
 10
-152.984
 20
90.6864
 10
-153
 20
91
 10
-152.984
 20
91.3136
 10
-152.934
 20
91.6237
 10
-152.853
 20
91.9271
 10
-152.741
 20
92.2202
 10
-152.598
 20
92.5
 10
-152.427
 20
92.7634
 10
-152.229
 20
93.0074
 10
-152.007
 20
93.2294
 10
-151.763
 20
93.4271
 10
-151.5
 20
93.5981
 10
-151.22
 20
93.7406
 10
-150.927
 20
93.8532
 10
-150.624
 20
93.9344
 10
-150.314
 20
93.9836
 10
-150
 20
94
 10
-149.686
 20
93.9836
 10
-149.376
 20
93.9344
 10
-149.073
 20
93.8532
 10
-148.78
 20
93.7406
 10
-148.5
 20
93.5981
 10
-148.237
 20
93.4271
 10
-147.993
 20
93.2294
 10
-147.771
 20
93.0074
 10
-147.573
 20
92.7634
 10
-147.402
 20
92.5
 10
-147.259
 20
92.2202
 10
-147.147
 20
91.9271
 10
-147.066
 20
91.6237
 10
-147.016
 20
91.3136
 10
-147
 20
91
 10
-147.016
 20
90.6864
 10
-147.066
 20
90.3763
 10
-147.147
 20
90.0729
 10
-147.259
 20
89.7798
 10
-147.402
 20
89.5
 10
-147.573
 20
89.2366
 10
-147.771
 20
88.9926
 10
-147.993
 20
88.7706
 10
-148.237
 20
88.5729
 10
-148.5
 20
88.4019
 10
-148.78
 20
88.2594
 10
-149.073
 20
88.1468
 10
-149.376
 20
88.0656
 10
-149.686
 20
88.0164
 10
-150
 20
88
  0
LWPOLYLINE
100
AcDbEntity
  8
0
100
AcDbPolyline
 90
60
 70
1
 10
-50.3136
 20
88.0164
 10
-50.6237
 20
88.0656
 10
-50.9271
 20
88.1468
 10
-51.2202
 20
88.2594
 10
-51.5
 20
88.4019
 10
-51.7634
 20
88.5729
 10
-52.0074
 20
88.7706
 10
-52.2294
 20
88.9926
 10
-52.4271
 20
89.2366
 10
-52.5981
 20
89.5
 10
-52.7406
 20
89.7798
 10
-52.8532
 20
90.0729
 10
-52.9344
 20
90.3763
 10
-52.9836
 20
90.6864
 10
-53
 20
91
 10
-52.9836
 20
91.3136
 10
-52.9344
 20
91.6237
 10
-52.8532
 20
91.9271
 10
-52.7406
 20
92.2202
 10
-52.5981
 20
92.5
 10
-52.4271
 20
92.7634
 10
-52.2294
 20
93.0074
 10
-52.0074
 20
93.2294
 10
-51.7634
 20
93.4271
 10
-51.5
 20
93.5981
 10
-51.2202
 20
93.7406
 10
-50.9271
 20
93.8532
 10
-50.6237
 20
93.9344
 10
-50.3136
 20
93.9836
 10
-50
 20
94
 10
-49.6864
 20
93.9836
 10
-49.3763
 20
93.9344
 10
-49.0729
 20
93.8532
 10
-48.7798
 20
93.7406
 10
-48.5
 20
93.5981
 10
-48.2366
 20
93.4271
 10
-47.9926
 20
93.2294
 10
-47.7706
 20
93.0074
 10
-47.5729
 20
92.7634
 10
-47.4019
 20
92.5
 10
-47.2594
 20
92.2202
 10
-47.1468
 20
91.9271
 10
-47.0656
 20
91.6237
 10
-47.0164
 20
91.3136
 10
-47
 20
91
 10
-47.0164
 20
90.6864
 10
-47.0656
 20
90.3763
 10
-47.1468
 20
90.0729
 10
-47.2594
 20
89.7798
 10
-47.4019
 20
89.5
 10
-47.5729
 20
89.2366
 10
-47.7706
 20
88.9926
 10
-47.9926
 20
88.7706
 10
-48.2366
 20
88.5729
 10
-48.5
 20
88.4019
 10
-48.7798
 20
88.2594
 10
-49.0729
 20
88.1468
 10
-49.3763
 20
88.0656
 10
-49.6864
 20
88.0164
 10
-50
 20
88
  0
LWPOLYLINE
100
AcDbEntity
  8
0
100
AcDbPolyline
 90
60
 70
1
 10
49.6864
 20
88.0164
 10
49.3763
 20
88.0656
 10
49.0729
 20
88.1468
 10
48.7798
 20
88.2594
 10
48.5
 20
88.4019
 10
48.2366
 20
88.5729
 10
47.9926
 20
88.7706
 10
47.7706
 20
88.9926
 10
47.5729
 20
89.2366
 10
47.4019
 20
89.5
 10
47.2594
 20
89.7798
 10
47.1468
 20
90.0729
 10
47.0656
 20
90.3763
 10
47.0164
 20
90.6864
 10
47
 20
91
 10
47.0164
 20
91.3136
 10
47.0656
 20
91.6237
 10
47.1468
 20
91.9271
 10
47.2594
 20
92.2202
 10
47.4019
 20
92.5
 10
47.5729
 20
92.7634
 10
47.7706
 20
93.0074
 10
47.9926
 20
93.2294
 10
48.2366
 20
93.4271
 10
48.5
 20
93.5981
 10
48.7798
 20
93.7406
 10
49.0729
 20
93.8532
 10
49.3763
 20
93.9344
 10
49.6864
 20
93.9836
 10
50
 20
94
 10
50.3136
 20
93.9836
 10
50.6237
 20
93.9344
 10
50.9271
 20
93.8532
 10
51.2202
 20
93.7406
 10
51.5
 20
93.5981
 10
51.7634
 20
93.4271
 10
52.0074
 20
93.2294
 10
52.2294
 20
93.0074
 10
52.4271
 20
92.7634
 10
52.5981
 20
92.5
 10
52.7406
 20
92.2202
 10
52.8532
 20
91.9271
 10
52.9344
 20
91.6237
 10
52.9836
 20
91.3136
 10
53
 20
91
 10
52.9836
 20
90.6864
 10
52.9344
 20
90.3763
 10
52.8532
 20
90.0729
 10
52.7406
 20
89.7798
 10
52.5981
 20
89.5
 10
52.4271
 20
89.2366
 10
52.2294
 20
88.9926
 10
52.0074
 20
88.7706
 10
51.7634
 20
88.5729
 10
51.5
 20
88.4019
 10
51.2202
 20
88.2594
 10
50.9271
 20
88.1468
 10
50.6237
 20
88.0656
 10
50.3136
 20
88.0164
 10
50
 20
88
  0
LWPOLYLINE
100
AcDbEntity
  8
0
100
AcDbPolyline
 90
60
 70
1
 10
149.686
 20
88.0164
 10
149.376
 20
88.0656
 10
149.073
 20
88.1468
 10
148.78
 20
88.2594
 10
148.5
 20
88.4019
 10
148.237
 20
88.5729
 10
147.993
 20
88.7706
 10
147.771
 20
88.9926
 10
147.573
 20
89.2366
 10
147.402
 20
89.5
 10
147.259
 20
89.7798
 10
147.147
 20
90.0729
 10
147.066
 20
90.3763
 10
147.016
 20
90.6864
 10
147
 20
91
 10
147.016
 20
91.3136
 10
147.066
 20
91.6237
 10
147.147
 20
91.9271
 10
147.259
 20
92.2202
 10
147.402
 20
92.5
 10
147.573
 20
92.7634
 10
147.771
 20
93.0074
 10
147.993
 20
93.2294
 10
148.237
 20
93.4271
 10
148.5
 20
93.5981
 10
148.78
 20
93.7406
 10
149.073
 20
93.8532
 10
149.376
 20
93.9344
 10
149.686
 20
93.9836
 10
150
 20
94
 10
150.314
 20
93.9836
 10
150.624
 20
93.9344
 10
150.927
 20
93.8532
 10
151.22
 20
93.7406
 10
151.5
 20
93.5981
 10
151.763
 20
93.4271
 10
152.007
 20
93.2294
 10
152.229
 20
93.0074
 10
152.427
 20
92.7634
 10
152.598
 20
92.5
 10
152.741
 20
92.2202
 10
152.853
 20
91.9271
 10
152.934
 20
91.6237
 10
152.984
 20
91.3136
 10
153
 20
91
 10
152.984
 20
90.6864
 10
152.934
 20
90.3763
 10
152.853
 20
90.0729
 10
152.741
 20
89.7798
 10
152.598
 20
89.5
 10
152.427
 20
89.2366
 10
152.229
 20
88.9926
 10
152.007
 20
88.7706
 10
151.763
 20
88.5729
 10
151.5
 20
88.4019
 10
151.22
 20
88.2594
 10
150.927
 20
88.1468
 10
150.624
 20
88.0656
 10
150.314
 20
88.0164
 10
150
 20
88
  0
LWPOLYLINE
100
AcDbEntity
  8
0
100
AcDbPolyline
 90
60
 70
1
 10
-150.314
 20
66.0164
 10
-150.624
 20
66.0656
 10
-150.927
 20
66.1468
 10
-151.22
 20
66.2594
 10
-151.5
 20
66.4019
 10
-151.763
 20
66.5729
 10
-152.007
 20
66.7706
 10
-152.229
 20
66.9926
 10
-152.427
 20
67.2366
 10
-152.598
 20
67.5
 10
-152.741
 20
67.7798
 10
-152.853
 20
68.0729
 10
-152.934
 20
68.3763
 10
-152.984
 20
68.6864
 10
-153
 20
69
 10
-152.984
 20
69.3136
 10
-152.934
 20
69.6237
 10
-152.853
 20
69.9271
 10
-152.741
 20
70.2202
 10
-152.598
 20
70.5
 10
-152.427
 20
70.7634
 10
-152.229
 20
71.0074
 10
-152.007
 20
71.2294
 10
-151.763
 20
71.4271
 10
-151.5
 20
71.5981
 10
-151.22
 20
71.7406
 10
-150.927
 20
71.8532
 10
-150.624
 20
71.9344
 10
-150.314
 20
71.9836
 10
-150
 20
72
 10
-149.686
 20
71.9836
 10
-149.376
 20
71.9344
 10
-149.073
 20
71.8532
 10
-148.78
 20
71.7406
 10
-148.5
 20
71.5981
 10
-148.237
 20
71.4271
 10
-147.993
 20
71.2294
 10
-147.771
 20
71.0074
 10
-147.573
 20
70.7634
 10
-147.402
 20
70.5
 10
-147.259
 20
70.2202
 10
-147.147
 20
69.9271
 10
-147.066
 20
69.6237
 10
-147.016
 20
69.3136
 10
-147
 20
69
 10
-147.016
 20
68.6864
 10
-147.066
 20
68.3763
 10
-147.147
 20
68.0729
 10
-147.259
 20
67.7798
 10
-147.402
 20
67.5
 10
-147.573
 20
67.2366
 10
-147.771
 20
66.9926
 10
-147.993
 20
66.7706
 10
-148.237
 20
66.5729
 10
-148.5
 20
66.4019
 10
-148.78
 20
66.2594
 10
-149.073
 20
66.1468
 10
-149.376
 20
66.0656
 10
-149.686
 20
66.0164
 10
-150
 20
66
  0
LWPOLYLINE
100
AcDbEntity
  8
0
100
AcDbPolyline
 90
60
 70
1
 10
-50.3136
 20
66.0164
 10
-50.6237
 20
66.0656
 10
-50.9271
 20
66.1468
 10
-51.2202
 20
66.2594
 10
-51.5
 20
66.4019
 10
-51.7634
 20
66.5729
 10
-52.0074
 20
66.7706
 10
-52.2294
 20
66.9926
 10
-52.4271
 20
67.2366
 10
-52.5981
 20
67.5
 10
-52.7406
 20
67.7798
 10
-52.8532
 20
68.0729
 10
-52.9344
 20
68.3763
 10
-52.9836
 20
68.6864
 10
-53
 20
69
 10
-52.9836
 20
69.3136
 10
-52.9344
 20
69.6237
 10
-52.8532
 20
69.9271
 10
-52.7406
 20
70.2202
 10
-52.5981
 20
70.5
 10
-52.4271
 20
70.7634
 10
-52.2294
 20
71.0074
 10
-52.0074
 20
71.2294
 10
-51.7634
 20
71.4271
 10
-51.5
 20
71.5981
 10
-51.2202
 20
71.7406
 10
-50.9271
 20
71.8532
 10
-50.6237
 20
71.9344
 10
-50.3136
 20
71.9836
 10
-50
 20
72
 10
-49.6864
 20
71.9836
 10
-49.3763
 20
71.9344
 10
-49.0729
 20
71.8532
 10
-48.7798
 20
71.7406
 10
-48.5
 20
71.5981
 10
-48.2366
 20
71.4271
 10
-47.9926
 20
71.2294
 10
-47.7706
 20
71.0074
 10
-47.5729
 20
70.7634
 10
-47.4019
 20
70.5
 10
-47.2594
 20
70.2202
 10
-47.1468
 20
69.9271
 10
-47.0656
 20
69.6237
 10
-47.0164
 20
69.3136
 10
-47
 20
69
 10
-47.0164
 20
68.6864
 10
-47.0656
 20
68.3763
 10
-47.1468
 20
68.0729
 10
-47.2594
 20
67.7798
 10
-47.4019
 20
67.5
 10
-47.5729
 20
67.2366
 10
-47.7706
 20
66.9926
 10
-47.9926
 20
66.7706
 10
-48.2366
 20
66.5729
 10
-48.5
 20
66.4019
 10
-48.7798
 20
66.2594
 10
-49.0729
 20
66.1468
 10
-49.3763
 20
66.0656
 10
-49.6864
 20
66.0164
 10
-50
 20
66
  0
LWPOLYLINE
100
AcDbEntity
  8
0
100
AcDbPolyline
 90
60
 70
1
 10
49.6864
 20
66.0164
 10
49.3763
 20
66.0656
 10
49.0729
 20
66.1468
 10
48.7798
 20
66.2594
 10
48.5
 20
66.4019
 10
48.2366
 20
66.5729
 10
47.9926
 20
66.7706
 10
47.7706
 20
66.9926
 10
47.5729
 20
67.2366
 10
47.4019
 20
67.5
 10
47.2594
 20
67.7798
 10
47.1468
 20
68.0729
 10
47.0656
 20
68.3763
 10
47.0164
 20
68.6864
 10
47
 20
69
 10
47.0164
 20
69.3136
 10
47.0656
 20
69.6237
 10
47.1468
 20
69.9271
 10
47.2594
 20
70.2202
 10
47.4019
 20
70.5
 10
47.5729
 20
70.7634
 10
47.7706
 20
71.0074
 10
47.9926
 20
71.2294
 10
48.2366
 20
71.4271
 10
48.5
 20
71.5981
 10
48.7798
 20
71.7406
 10
49.0729
 20
71.8532
 10
49.3763
 20
71.9344
 10
49.6864
 20
71.9836
 10
50
 20
72
 10
50.3136
 20
71.9836
 10
50.6237
 20
71.9344
 10
50.9271
 20
71.8532
 10
51.2202
 20
71.7406
 10
51.5
 20
71.5981
 10
51.7634
 20
71.4271
 10
52.0074
 20
71.2294
 10
52.2294
 20
71.0074
 10
52.4271
 20
70.7634
 10
52.5981
 20
70.5
 10
52.7406
 20
70.2202
 10
52.8532
 20
69.9271
 10
52.9344
 20
69.6237
 10
52.9836
 20
69.3136
 10
53
 20
69
 10
52.9836
 20
68.6864
 10
52.9344
 20
68.3763
 10
52.8532
 20
68.0729
 10
52.7406
 20
67.7798
 10
52.5981
 20
67.5
 10
52.4271
 20
67.2366
 10
52.2294
 20
66.9926
 10
52.0074
 20
66.7706
 10
51.7634
 20
66.5729
 10
51.5
 20
66.4019
 10
51.2202
 20
66.2594
 10
50.9271
 20
66.1468
 10
50.6237
 20
66.0656
 10
50.3136
 20
66.0164
 10
50
 20
66
  0
LWPOLYLINE
100
AcDbEntity
  8
0
100
AcDbPolyline
 90
60
 70
1
 10
149.686
 20
66.0164
 10
149.376
 20
66.0656
 10
149.073
 20
66.1468
 10
148.78
 20
66.2594
 10
148.5
 20
66.4019
 10
148.237
 20
66.5729
 10
147.993
 20
66.7706
 10
147.771
 20
66.9926
 10
147.573
 20
67.2366
 10
147.402
 20
67.5
 10
147.259
 20
67.7798
 10
147.147
 20
68.0729
 10
147.066
 20
68.3763
 10
147.016
 20
68.6864
 10
147
 20
69
 10
147.016
 20
69.3136
 10
147.066
 20
69.6237
 10
147.147
 20
69.9271
 10
147.259
 20
70.2202
 10
147.402
 20
70.5
 10
147.573
 20
70.7634
 10
147.771
 20
71.0074
 10
147.993
 20
71.2294
 10
148.237
 20
71.4271
 10
148.5
 20
71.5981
 10
148.78
 20
71.7406
 10
149.073
 20
71.8532
 10
149.376
 20
71.9344
 10
149.686
 20
71.9836
 10
150
 20
72
 10
150.314
 20
71.9836
 10
150.624
 20
71.9344
 10
150.927
 20
71.8532
 10
151.22
 20
71.7406
 10
151.5
 20
71.5981
 10
151.763
 20
71.4271
 10
152.007
 20
71.2294
 10
152.229
 20
71.0074
 10
152.427
 20
70.7634
 10
152.598
 20
70.5
 10
152.741
 20
70.2202
 10
152.853
 20
69.9271
 10
152.934
 20
69.6237
 10
152.984
 20
69.3136
 10
153
 20
69
 10
152.984
 20
68.6864
 10
152.934
 20
68.3763
 10
152.853
 20
68.0729
 10
152.741
 20
67.7798
 10
152.598
 20
67.5
 10
152.427
 20
67.2366
 10
152.229
 20
66.9926
 10
152.007
 20
66.7706
 10
151.763
 20
66.5729
 10
151.5
 20
66.4019
 10
151.22
 20
66.2594
 10
150.927
 20
66.1468
 10
150.624
 20
66.0656
 10
150.314
 20
66.0164
 10
150
 20
66
  0
LWPOLYLINE
100
AcDbEntity
  8
0
100
AcDbPolyline
 90
60
 70
1
 10
-165.314
 20
20.0164
 10
-165.624
 20
20.0656
 10
-165.927
 20
20.1468
 10
-166.22
 20
20.2594
 10
-166.5
 20
20.4019
 10
-166.763
 20
20.5729
 10
-167.007
 20
20.7706
 10
-167.229
 20
20.9926
 10
-167.427
 20
21.2366
 10
-167.598
 20
21.5
 10
-167.741
 20
21.7798
 10
-167.853
 20
22.0729
 10
-167.934
 20
22.3763
 10
-167.984
 20
22.6864
 10
-168
 20
23
 10
-167.984
 20
23.3136
 10
-167.934
 20
23.6237
 10
-167.853
 20
23.9271
 10
-167.741
 20
24.2202
 10
-167.598
 20
24.5
 10
-167.427
 20
24.7634
 10
-167.229
 20
25.0074
 10
-167.007
 20
25.2294
 10
-166.763
 20
25.4271
 10
-166.5
 20
25.5981
 10
-166.22
 20
25.7406
 10
-165.927
 20
25.8532
 10
-165.624
 20
25.9344
 10
-165.314
 20
25.9836
 10
-165
 20
26
 10
-164.686
 20
25.9836
 10
-164.376
 20
25.9344
 10
-164.073
 20
25.8532
 10
-163.78
 20
25.7406
 10
-163.5
 20
25.5981
 10
-163.237
 20
25.4271
 10
-162.993
 20
25.2294
 10
-162.771
 20
25.0074
 10
-162.573
 20
24.7634
 10
-162.402
 20
24.5
 10
-162.259
 20
24.2202
 10
-162.147
 20
23.9271
 10
-162.066
 20
23.6237
 10
-162.016
 20
23.3136
 10
-162
 20
23
 10
-162.016
 20
22.6864
 10
-162.066
 20
22.3763
 10
-162.147
 20
22.0729
 10
-162.259
 20
21.7798
 10
-162.402
 20
21.5
 10
-162.573
 20
21.2366
 10
-162.771
 20
20.9926
 10
-162.993
 20
20.7706
 10
-163.237
 20
20.5729
 10
-163.5
 20
20.4019
 10
-163.78
 20
20.2594
 10
-164.073
 20
20.1468
 10
-164.376
 20
20.0656
 10
-164.686
 20
20.0164
 10
-165
 20
20
  0
LWPOLYLINE
100
AcDbEntity
  8
0
100
AcDbPolyline
 90
60
 70
1
 10
127.186
 20
20.0164
 10
126.876
 20
20.0656
 10
126.573
 20
20.1468
 10
126.28
 20
20.2594
 10
126
 20
20.4019
 10
125.737
 20
20.5729
 10
125.493
 20
20.7706
 10
125.271
 20
20.9926
 10
125.073
 20
21.2366
 10
124.902
 20
21.5
 10
124.759
 20
21.7798
 10
124.647
 20
22.0729
 10
124.566
 20
22.3763
 10
124.516
 20
22.6864
 10
124.5
 20
23
 10
124.516
 20
23.3136
 10
124.566
 20
23.6237
 10
124.647
 20
23.9271
 10
124.759
 20
24.2202
 10
124.902
 20
24.5
 10
125.073
 20
24.7634
 10
125.271
 20
25.0074
 10
125.493
 20
25.2294
 10
125.737
 20
25.4271
 10
126
 20
25.5981
 10
126.28
 20
25.7406
 10
126.573
 20
25.8532
 10
126.876
 20
25.9344
 10
127.186
 20
25.9836
 10
127.5
 20
26
 10
127.814
 20
25.9836
 10
128.124
 20
25.9344
 10
128.427
 20
25.8532
 10
128.72
 20
25.7406
 10
129
 20
25.5981
 10
129.263
 20
25.4271
 10
129.507
 20
25.2294
 10
129.729
 20
25.0074
 10
129.927
 20
24.7634
 10
130.098
 20
24.5
 10
130.241
 20
24.2202
 10
130.353
 20
23.9271
 10
130.434
 20
23.6237
 10
130.484
 20
23.3136
 10
130.5
 20
23
 10
130.484
 20
22.6864
 10
130.434
 20
22.3763
 10
130.353
 20
22.0729
 10
130.241
 20
21.7798
 10
130.098
 20
21.5
 10
129.927
 20
21.2366
 10
129.729
 20
20.9926
 10
129.507
 20
20.7706
 10
129.263
 20
20.5729
 10
129
 20
20.4019
 10
128.72
 20
20.2594
 10
128.427
 20
20.1468
 10
128.124
 20
20.0656
 10
127.814
 20
20.0164
 10
127.5
 20
20
  0
LWPOLYLINE
100
AcDbEntity
  8
0
100
AcDbPolyline
 90
60
 70
1
 10
140.186
 20
20.0164
 10
139.876
 20
20.0656
 10
139.573
 20
20.1468
 10
139.28
 20
20.2594
 10
139
 20
20.4019
 10
138.737
 20
20.5729
 10
138.493
 20
20.7706
 10
138.271
 20
20.9926
 10
138.073
 20
21.2366
 10
137.902
 20
21.5
 10
137.759
 20
21.7798
 10
137.647
 20
22.0729
 10
137.566
 20
22.3763
 10
137.516
 20
22.6864
 10
137.5
 20
23
 10
137.516
 20
23.3136
 10
137.566
 20
23.6237
 10
137.647
 20
23.9271
 10
137.759
 20
24.2202
 10
137.902
 20
24.5
 10
138.073
 20
24.7634
 10
138.271
 20
25.0074
 10
138.493
 20
25.2294
 10
138.737
 20
25.4271
 10
139
 20
25.5981
 10
139.28
 20
25.7406
 10
139.573
 20
25.8532
 10
139.876
 20
25.9344
 10
140.186
 20
25.9836
 10
140.5
 20
26
 10
140.814
 20
25.9836
 10
141.124
 20
25.9344
 10
141.427
 20
25.8532
 10
141.72
 20
25.7406
 10
142
 20
25.5981
 10
142.263
 20
25.4271
 10
142.507
 20
25.2294
 10
142.729
 20
25.0074
 10
142.927
 20
24.7634
 10
143.098
 20
24.5
 10
143.241
 20
24.2202
 10
143.353
 20
23.9271
 10
143.434
 20
23.6237
 10
143.484
 20
23.3136
 10
143.5
 20
23
 10
143.484
 20
22.6864
 10
143.434
 20
22.3763
 10
143.353
 20
22.0729
 10
143.241
 20
21.7798
 10
143.098
 20
21.5
 10
142.927
 20
21.2366
 10
142.729
 20
20.9926
 10
142.507
 20
20.7706
 10
142.263
 20
20.5729
 10
142
 20
20.4019
 10
141.72
 20
20.2594
 10
141.427
 20
20.1468
 10
141.124
 20
20.0656
 10
140.814
 20
20.0164
 10
140.5
 20
20
  0
LWPOLYLINE
100
AcDbEntity
  8
0
100
AcDbPolyline
 90
60
 70
1
 10
-165.314
 20
-25.9836
 10
-165.624
 20
-25.9344
 10
-165.927
 20
-25.8532
 10
-166.22
 20
-25.7406
 10
-166.5
 20
-25.5981
 10
-166.763
 20
-25.4271
 10
-167.007
 20
-25.2294
 10
-167.229
 20
-25.0074
 10
-167.427
 20
-24.7634
 10
-167.598
 20
-24.5
 10
-167.741
 20
-24.2202
 10
-167.853
 20
-23.9271
 10
-167.934
 20
-23.6237
 10
-167.984
 20
-23.3136
 10
-168
 20
-23
 10
-167.984
 20
-22.6864
 10
-167.934
 20
-22.3763
 10
-167.853
 20
-22.0729
 10
-167.741
 20
-21.7798
 10
-167.598
 20
-21.5
 10
-167.427
 20
-21.2366
 10
-167.229
 20
-20.9926
 10
-167.007
 20
-20.7706
 10
-166.763
 20
-20.5729
 10
-166.5
 20
-20.4019
 10
-166.22
 20
-20.2594
 10
-165.927
 20
-20.1468
 10
-165.624
 20
-20.0656
 10
-165.314
 20
-20.0164
 10
-165
 20
-20
 10
-164.686
 20
-20.0164
 10
-164.376
 20
-20.0656
 10
-164.073
 20
-20.1468
 10
-163.78
 20
-20.2594
 10
-163.5
 20
-20.4019
 10
-163.237
 20
-20.5729
 10
-162.993
 20
-20.7706
 10
-162.771
 20
-20.9926
 10
-162.573
 20
-21.2366
 10
-162.402
 20
-21.5
 10
-162.259
 20
-21.7798
 10
-162.147
 20
-22.0729
 10
-162.066
 20
-22.3763
 10
-162.016
 20
-22.6864
 10
-162
 20
-23
 10
-162.016
 20
-23.3136
 10
-162.066
 20
-23.6237
 10
-162.147
 20
-23.9271
 10
-162.259
 20
-24.2202
 10
-162.402
 20
-24.5
 10
-162.573
 20
-24.7634
 10
-162.771
 20
-25.0074
 10
-162.993
 20
-25.2294
 10
-163.237
 20
-25.4271
 10
-163.5
 20
-25.5981
 10
-163.78
 20
-25.7406
 10
-164.073
 20
-25.8532
 10
-164.376
 20
-25.9344
 10
-164.686
 20
-25.9836
 10
-165
 20
-26
  0
LWPOLYLINE
100
AcDbEntity
  8
0
100
AcDbPolyline
 90
60
 70
1
 10
127.186
 20
-25.9836
 10
126.876
 20
-25.9344
 10
126.573
 20
-25.8532
 10
126.28
 20
-25.7406
 10
126
 20
-25.5981
 10
125.737
 20
-25.4271
 10
125.493
 20
-25.2294
 10
125.271
 20
-25.0074
 10
125.073
 20
-24.7634
 10
124.902
 20
-24.5
 10
124.759
 20
-24.2202
 10
124.647
 20
-23.9271
 10
124.566
 20
-23.6237
 10
124.516
 20
-23.3136
 10
124.5
 20
-23
 10
124.516
 20
-22.6864
 10
124.566
 20
-22.3763
 10
124.647
 20
-22.0729
 10
124.759
 20
-21.7798
 10
124.902
 20
-21.5
 10
125.073
 20
-21.2366
 10
125.271
 20
-20.9926
 10
125.493
 20
-20.7706
 10
125.737
 20
-20.5729
 10
126
 20
-20.4019
 10
126.28
 20
-20.2594
 10
126.573
 20
-20.1468
 10
126.876
 20
-20.0656
 10
127.186
 20
-20.0164
 10
127.5
 20
-20
 10
127.814
 20
-20.0164
 10
128.124
 20
-20.0656
 10
128.427
 20
-20.1468
 10
128.72
 20
-20.2594
 10
129
 20
-20.4019
 10
129.263
 20
-20.5729
 10
129.507
 20
-20.7706
 10
129.729
 20
-20.9926
 10
129.927
 20
-21.2366
 10
130.098
 20
-21.5
 10
130.241
 20
-21.7798
 10
130.353
 20
-22.0729
 10
130.434
 20
-22.3763
 10
130.484
 20
-22.6864
 10
130.5
 20
-23
 10
130.484
 20
-23.3136
 10
130.434
 20
-23.6237
 10
130.353
 20
-23.9271
 10
130.241
 20
-24.2202
 10
130.098
 20
-24.5
 10
129.927
 20
-24.7634
 10
129.729
 20
-25.0074
 10
129.507
 20
-25.2294
 10
129.263
 20
-25.4271
 10
129
 20
-25.5981
 10
128.72
 20
-25.7406
 10
128.427
 20
-25.8532
 10
128.124
 20
-25.9344
 10
127.814
 20
-25.9836
 10
127.5
 20
-26
  0
LWPOLYLINE
100
AcDbEntity
  8
0
100
AcDbPolyline
 90
60
 70
1
 10
140.186
 20
-25.9836
 10
139.876
 20
-25.9344
 10
139.573
 20
-25.8532
 10
139.28
 20
-25.7406
 10
139
 20
-25.5981
 10
138.737
 20
-25.4271
 10
138.493
 20
-25.2294
 10
138.271
 20
-25.0074
 10
138.073
 20
-24.7634
 10
137.902
 20
-24.5
 10
137.759
 20
-24.2202
 10
137.647
 20
-23.9271
 10
137.566
 20
-23.6237
 10
137.516
 20
-23.3136
 10
137.5
 20
-23
 10
137.516
 20
-22.6864
 10
137.566
 20
-22.3763
 10
137.647
 20
-22.0729
 10
137.759
 20
-21.7798
 10
137.902
 20
-21.5
 10
138.073
 20
-21.2366
 10
138.271
 20
-20.9926
 10
138.493
 20
-20.7706
 10
138.737
 20
-20.5729
 10
139
 20
-20.4019
 10
139.28
 20
-20.2594
 10
139.573
 20
-20.1468
 10
139.876
 20
-20.0656
 10
140.186
 20
-20.0164
 10
140.5
 20
-20
 10
140.814
 20
-20.0164
 10
141.124
 20
-20.0656
 10
141.427
 20
-20.1468
 10
141.72
 20
-20.2594
 10
142
 20
-20.4019
 10
142.263
 20
-20.5729
 10
142.507
 20
-20.7706
 10
142.729
 20
-20.9926
 10
142.927
 20
-21.2366
 10
143.098
 20
-21.5
 10
143.241
 20
-21.7798
 10
143.353
 20
-22.0729
 10
143.434
 20
-22.3763
 10
143.484
 20
-22.6864
 10
143.5
 20
-23
 10
143.484
 20
-23.3136
 10
143.434
 20
-23.6237
 10
143.353
 20
-23.9271
 10
143.241
 20
-24.2202
 10
143.098
 20
-24.5
 10
142.927
 20
-24.7634
 10
142.729
 20
-25.0074
 10
142.507
 20
-25.2294
 10
142.263
 20
-25.4271
 10
142
 20
-25.5981
 10
141.72
 20
-25.7406
 10
141.427
 20
-25.8532
 10
141.124
 20
-25.9344
 10
140.814
 20
-25.9836
 10
140.5
 20
-26
  0
LWPOLYLINE
100
AcDbEntity
  8
0
100
AcDbPolyline
 90
60
 70
1
 10
-150.314
 20
-71.9836
 10
-150.624
 20
-71.9344
 10
-150.927
 20
-71.8532
 10
-151.22
 20
-71.7406
 10
-151.5
 20
-71.5981
 10
-151.763
 20
-71.4271
 10
-152.007
 20
-71.2294
 10
-152.229
 20
-71.0074
 10
-152.427
 20
-70.7634
 10
-152.598
 20
-70.5
 10
-152.741
 20
-70.2202
 10
-152.853
 20
-69.9271
 10
-152.934
 20
-69.6237
 10
-152.984
 20
-69.3136
 10
-153
 20
-69
 10
-152.984
 20
-68.6864
 10
-152.934
 20
-68.3763
 10
-152.853
 20
-68.0729
 10
-152.741
 20
-67.7798
 10
-152.598
 20
-67.5
 10
-152.427
 20
-67.2366
 10
-152.229
 20
-66.9926
 10
-152.007
 20
-66.7706
 10
-151.763
 20
-66.5729
 10
-151.5
 20
-66.4019
 10
-151.22
 20
-66.2594
 10
-150.927
 20
-66.1468
 10
-150.624
 20
-66.0656
 10
-150.314
 20
-66.0164
 10
-150
 20
-66
 10
-149.686
 20
-66.0164
 10
-149.376
 20
-66.0656
 10
-149.073
 20
-66.1468
 10
-148.78
 20
-66.2594
 10
-148.5
 20
-66.4019
 10
-148.237
 20
-66.5729
 10
-147.993
 20
-66.7706
 10
-147.771
 20
-66.9926
 10
-147.573
 20
-67.2366
 10
-147.402
 20
-67.5
 10
-147.259
 20
-67.7798
 10
-147.147
 20
-68.0729
 10
-147.066
 20
-68.3763
 10
-147.016
 20
-68.6864
 10
-147
 20
-69
 10
-147.016
 20
-69.3136
 10
-147.066
 20
-69.6237
 10
-147.147
 20
-69.9271
 10
-147.259
 20
-70.2202
 10
-147.402
 20
-70.5
 10
-147.573
 20
-70.7634
 10
-147.771
 20
-71.0074
 10
-147.993
 20
-71.2294
 10
-148.237
 20
-71.4271
 10
-148.5
 20
-71.5981
 10
-148.78
 20
-71.7406
 10
-149.073
 20
-71.8532
 10
-149.376
 20
-71.9344
 10
-149.686
 20
-71.9836
 10
-150
 20
-72
  0
LWPOLYLINE
100
AcDbEntity
  8
0
100
AcDbPolyline
 90
60
 70
1
 10
-50.3136
 20
-71.9836
 10
-50.6237
 20
-71.9344
 10
-50.9271
 20
-71.8532
 10
-51.2202
 20
-71.7406
 10
-51.5
 20
-71.5981
 10
-51.7634
 20
-71.4271
 10
-52.0074
 20
-71.2294
 10
-52.2294
 20
-71.0074
 10
-52.4271
 20
-70.7634
 10
-52.5981
 20
-70.5
 10
-52.7406
 20
-70.2202
 10
-52.8532
 20
-69.9271
 10
-52.9344
 20
-69.6237
 10
-52.9836
 20
-69.3136
 10
-53
 20
-69
 10
-52.9836
 20
-68.6864
 10
-52.9344
 20
-68.3763
 10
-52.8532
 20
-68.0729
 10
-52.7406
 20
-67.7798
 10
-52.5981
 20
-67.5
 10
-52.4271
 20
-67.2366
 10
-52.2294
 20
-66.9926
 10
-52.0074
 20
-66.7706
 10
-51.7634
 20
-66.5729
 10
-51.5
 20
-66.4019
 10
-51.2202
 20
-66.2594
 10
-50.9271
 20
-66.1468
 10
-50.6237
 20
-66.0656
 10
-50.3136
 20
-66.0164
 10
-50
 20
-66
 10
-49.6864
 20
-66.0164
 10
-49.3763
 20
-66.0656
 10
-49.0729
 20
-66.1468
 10
-48.7798
 20
-66.2594
 10
-48.5
 20
-66.4019
 10
-48.2366
 20
-66.5729
 10
-47.9926
 20
-66.7706
 10
-47.7706
 20
-66.9926
 10
-47.5729
 20
-67.2366
 10
-47.4019
 20
-67.5
 10
-47.2594
 20
-67.7798
 10
-47.1468
 20
-68.0729
 10
-47.0656
 20
-68.3763
 10
-47.0164
 20
-68.6864
 10
-47
 20
-69
 10
-47.0164
 20
-69.3136
 10
-47.0656
 20
-69.6237
 10
-47.1468
 20
-69.9271
 10
-47.2594
 20
-70.2202
 10
-47.4019
 20
-70.5
 10
-47.5729
 20
-70.7634
 10
-47.7706
 20
-71.0074
 10
-47.9926
 20
-71.2294
 10
-48.2366
 20
-71.4271
 10
-48.5
 20
-71.5981
 10
-48.7798
 20
-71.7406
 10
-49.0729
 20
-71.8532
 10
-49.3763
 20
-71.9344
 10
-49.6864
 20
-71.9836
 10
-50
 20
-72
  0
LWPOLYLINE
100
AcDbEntity
  8
0
100
AcDbPolyline
 90
60
 70
1
 10
49.6864
 20
-71.9836
 10
49.3763
 20
-71.9344
 10
49.0729
 20
-71.8532
 10
48.7798
 20
-71.7406
 10
48.5
 20
-71.5981
 10
48.2366
 20
-71.4271
 10
47.9926
 20
-71.2294
 10
47.7706
 20
-71.0074
 10
47.5729
 20
-70.7634
 10
47.4019
 20
-70.5
 10
47.2594
 20
-70.2202
 10
47.1468
 20
-69.9271
 10
47.0656
 20
-69.6237
 10
47.0164
 20
-69.3136
 10
47
 20
-69
 10
47.0164
 20
-68.6864
 10
47.0656
 20
-68.3763
 10
47.1468
 20
-68.0729
 10
47.2594
 20
-67.7798
 10
47.4019
 20
-67.5
 10
47.5729
 20
-67.2366
 10
47.7706
 20
-66.9926
 10
47.9926
 20
-66.7706
 10
48.2366
 20
-66.5729
 10
48.5
 20
-66.4019
 10
48.7798
 20
-66.2594
 10
49.0729
 20
-66.1468
 10
49.3763
 20
-66.0656
 10
49.6864
 20
-66.0164
 10
50
 20
-66
 10
50.3136
 20
-66.0164
 10
50.6237
 20
-66.0656
 10
50.9271
 20
-66.1468
 10
51.2202
 20
-66.2594
 10
51.5
 20
-66.4019
 10
51.7634
 20
-66.5729
 10
52.0074
 20
-66.7706
 10
52.2294
 20
-66.9926
 10
52.4271
 20
-67.2366
 10
52.5981
 20
-67.5
 10
52.7406
 20
-67.7798
 10
52.8532
 20
-68.0729
 10
52.9344
 20
-68.3763
 10
52.9836
 20
-68.6864
 10
53
 20
-69
 10
52.9836
 20
-69.3136
 10
52.9344
 20
-69.6237
 10
52.8532
 20
-69.9271
 10
52.7406
 20
-70.2202
 10
52.5981
 20
-70.5
 10
52.4271
 20
-70.7634
 10
52.2294
 20
-71.0074
 10
52.0074
 20
-71.2294
 10
51.7634
 20
-71.4271
 10
51.5
 20
-71.5981
 10
51.2202
 20
-71.7406
 10
50.9271
 20
-71.8532
 10
50.6237
 20
-71.9344
 10
50.3136
 20
-71.9836
 10
50
 20
-72
  0
LWPOLYLINE
100
AcDbEntity
  8
0
100
AcDbPolyline
 90
60
 70
1
 10
149.686
 20
-71.9836
 10
149.376
 20
-71.9344
 10
149.073
 20
-71.8532
 10
148.78
 20
-71.7406
 10
148.5
 20
-71.5981
 10
148.237
 20
-71.4271
 10
147.993
 20
-71.2294
 10
147.771
 20
-71.0074
 10
147.573
 20
-70.7634
 10
147.402
 20
-70.5
 10
147.259
 20
-70.2202
 10
147.147
 20
-69.9271
 10
147.066
 20
-69.6237
 10
147.016
 20
-69.3136
 10
147
 20
-69
 10
147.016
 20
-68.6864
 10
147.066
 20
-68.3763
 10
147.147
 20
-68.0729
 10
147.259
 20
-67.7798
 10
147.402
 20
-67.5
 10
147.573
 20
-67.2366
 10
147.771
 20
-66.9926
 10
147.993
 20
-66.7706
 10
148.237
 20
-66.5729
 10
148.5
 20
-66.4019
 10
148.78
 20
-66.2594
 10
149.073
 20
-66.1468
 10
149.376
 20
-66.0656
 10
149.686
 20
-66.0164
 10
150
 20
-66
 10
150.314
 20
-66.0164
 10
150.624
 20
-66.0656
 10
150.927
 20
-66.1468
 10
151.22
 20
-66.2594
 10
151.5
 20
-66.4019
 10
151.763
 20
-66.5729
 10
152.007
 20
-66.7706
 10
152.229
 20
-66.9926
 10
152.427
 20
-67.2366
 10
152.598
 20
-67.5
 10
152.741
 20
-67.7798
 10
152.853
 20
-68.0729
 10
152.934
 20
-68.3763
 10
152.984
 20
-68.6864
 10
153
 20
-69
 10
152.984
 20
-69.3136
 10
152.934
 20
-69.6237
 10
152.853
 20
-69.9271
 10
152.741
 20
-70.2202
 10
152.598
 20
-70.5
 10
152.427
 20
-70.7634
 10
152.229
 20
-71.0074
 10
152.007
 20
-71.2294
 10
151.763
 20
-71.4271
 10
151.5
 20
-71.5981
 10
151.22
 20
-71.7406
 10
150.927
 20
-71.8532
 10
150.624
 20
-71.9344
 10
150.314
 20
-71.9836
 10
150
 20
-72
  0
LWPOLYLINE
100
AcDbEntity
  8
0
100
AcDbPolyline
 90
60
 70
1
 10
-150.314
 20
-93.9836
 10
-150.624
 20
-93.9344
 10
-150.927
 20
-93.8532
 10
-151.22
 20
-93.7406
 10
-151.5
 20
-93.5981
 10
-151.763
 20
-93.4271
 10
-152.007
 20
-93.2294
 10
-152.229
 20
-93.0074
 10
-152.427
 20
-92.7634
 10
-152.598
 20
-92.5
 10
-152.741
 20
-92.2202
 10
-152.853
 20
-91.9271
 10
-152.934
 20
-91.6237
 10
-152.984
 20
-91.3136
 10
-153
 20
-91
 10
-152.984
 20
-90.6864
 10
-152.934
 20
-90.3763
 10
-152.853
 20
-90.0729
 10
-152.741
 20
-89.7798
 10
-152.598
 20
-89.5
 10
-152.427
 20
-89.2366
 10
-152.229
 20
-88.9926
 10
-152.007
 20
-88.7706
 10
-151.763
 20
-88.5729
 10
-151.5
 20
-88.4019
 10
-151.22
 20
-88.2594
 10
-150.927
 20
-88.1468
 10
-150.624
 20
-88.0656
 10
-150.314
 20
-88.0164
 10
-150
 20
-88
 10
-149.686
 20
-88.0164
 10
-149.376
 20
-88.0656
 10
-149.073
 20
-88.1468
 10
-148.78
 20
-88.2594
 10
-148.5
 20
-88.4019
 10
-148.237
 20
-88.5729
 10
-147.993
 20
-88.7706
 10
-147.771
 20
-88.9926
 10
-147.573
 20
-89.2366
 10
-147.402
 20
-89.5
 10
-147.259
 20
-89.7798
 10
-147.147
 20
-90.0729
 10
-147.066
 20
-90.3763
 10
-147.016
 20
-90.6864
 10
-147
 20
-91
 10
-147.016
 20
-91.3136
 10
-147.066
 20
-91.6237
 10
-147.147
 20
-91.9271
 10
-147.259
 20
-92.2202
 10
-147.402
 20
-92.5
 10
-147.573
 20
-92.7634
 10
-147.771
 20
-93.0074
 10
-147.993
 20
-93.2294
 10
-148.237
 20
-93.4271
 10
-148.5
 20
-93.5981
 10
-148.78
 20
-93.7406
 10
-149.073
 20
-93.8532
 10
-149.376
 20
-93.9344
 10
-149.686
 20
-93.9836
 10
-150
 20
-94
  0
LWPOLYLINE
100
AcDbEntity
  8
0
100
AcDbPolyline
 90
60
 70
1
 10
-50.3136
 20
-93.9836
 10
-50.6237
 20
-93.9344
 10
-50.9271
 20
-93.8532
 10
-51.2202
 20
-93.7406
 10
-51.5
 20
-93.5981
 10
-51.7634
 20
-93.4271
 10
-52.0074
 20
-93.2294
 10
-52.2294
 20
-93.0074
 10
-52.4271
 20
-92.7634
 10
-52.5981
 20
-92.5
 10
-52.7406
 20
-92.2202
 10
-52.8532
 20
-91.9271
 10
-52.9344
 20
-91.6237
 10
-52.9836
 20
-91.3136
 10
-53
 20
-91
 10
-52.9836
 20
-90.6864
 10
-52.9344
 20
-90.3763
 10
-52.8532
 20
-90.0729
 10
-52.7406
 20
-89.7798
 10
-52.5981
 20
-89.5
 10
-52.4271
 20
-89.2366
 10
-52.2294
 20
-88.9926
 10
-52.0074
 20
-88.7706
 10
-51.7634
 20
-88.5729
 10
-51.5
 20
-88.4019
 10
-51.2202
 20
-88.2594
 10
-50.9271
 20
-88.1468
 10
-50.6237
 20
-88.0656
 10
-50.3136
 20
-88.0164
 10
-50
 20
-88
 10
-49.6864
 20
-88.0164
 10
-49.3763
 20
-88.0656
 10
-49.0729
 20
-88.1468
 10
-48.7798
 20
-88.2594
 10
-48.5
 20
-88.4019
 10
-48.2366
 20
-88.5729
 10
-47.9926
 20
-88.7706
 10
-47.7706
 20
-88.9926
 10
-47.5729
 20
-89.2366
 10
-47.4019
 20
-89.5
 10
-47.2594
 20
-89.7798
 10
-47.1468
 20
-90.0729
 10
-47.0656
 20
-90.3763
 10
-47.0164
 20
-90.6864
 10
-47
 20
-91
 10
-47.0164
 20
-91.3136
 10
-47.0656
 20
-91.6237
 10
-47.1468
 20
-91.9271
 10
-47.2594
 20
-92.2202
 10
-47.4019
 20
-92.5
 10
-47.5729
 20
-92.7634
 10
-47.7706
 20
-93.0074
 10
-47.9926
 20
-93.2294
 10
-48.2366
 20
-93.4271
 10
-48.5
 20
-93.5981
 10
-48.7798
 20
-93.7406
 10
-49.0729
 20
-93.8532
 10
-49.3763
 20
-93.9344
 10
-49.6864
 20
-93.9836
 10
-50
 20
-94
  0
LWPOLYLINE
100
AcDbEntity
  8
0
100
AcDbPolyline
 90
60
 70
1
 10
49.6864
 20
-93.9836
 10
49.3763
 20
-93.9344
 10
49.0729
 20
-93.8532
 10
48.7798
 20
-93.7406
 10
48.5
 20
-93.5981
 10
48.2366
 20
-93.4271
 10
47.9926
 20
-93.2294
 10
47.7706
 20
-93.0074
 10
47.5729
 20
-92.7634
 10
47.4019
 20
-92.5
 10
47.2594
 20
-92.2202
 10
47.1468
 20
-91.9271
 10
47.0656
 20
-91.6237
 10
47.0164
 20
-91.3136
 10
47
 20
-91
 10
47.0164
 20
-90.6864
 10
47.0656
 20
-90.3763
 10
47.1468
 20
-90.0729
 10
47.2594
 20
-89.7798
 10
47.4019
 20
-89.5
 10
47.5729
 20
-89.2366
 10
47.7706
 20
-88.9926
 10
47.9926
 20
-88.7706
 10
48.2366
 20
-88.5729
 10
48.5
 20
-88.4019
 10
48.7798
 20
-88.2594
 10
49.0729
 20
-88.1468
 10
49.3763
 20
-88.0656
 10
49.6864
 20
-88.0164
 10
50
 20
-88
 10
50.3136
 20
-88.0164
 10
50.6237
 20
-88.0656
 10
50.9271
 20
-88.1468
 10
51.2202
 20
-88.2594
 10
51.5
 20
-88.4019
 10
51.7634
 20
-88.5729
 10
52.0074
 20
-88.7706
 10
52.2294
 20
-88.9926
 10
52.4271
 20
-89.2366
 10
52.5981
 20
-89.5
 10
52.7406
 20
-89.7798
 10
52.8532
 20
-90.0729
 10
52.9344
 20
-90.3763
 10
52.9836
 20
-90.6864
 10
53
 20
-91
 10
52.9836
 20
-91.3136
 10
52.9344
 20
-91.6237
 10
52.8532
 20
-91.9271
 10
52.7406
 20
-92.2202
 10
52.5981
 20
-92.5
 10
52.4271
 20
-92.7634
 10
52.2294
 20
-93.0074
 10
52.0074
 20
-93.2294
 10
51.7634
 20
-93.4271
 10
51.5
 20
-93.5981
 10
51.2202
 20
-93.7406
 10
50.9271
 20
-93.8532
 10
50.6237
 20
-93.9344
 10
50.3136
 20
-93.9836
 10
50
 20
-94
  0
LWPOLYLINE
100
AcDbEntity
  8
0
100
AcDbPolyline
 90
60
 70
1
 10
149.686
 20
-93.9836
 10
149.376
 20
-93.9344
 10
149.073
 20
-93.8532
 10
148.78
 20
-93.7406
 10
148.5
 20
-93.5981
 10
148.237
 20
-93.4271
 10
147.993
 20
-93.2294
 10
147.771
 20
-93.0074
 10
147.573
 20
-92.7634
 10
147.402
 20
-92.5
 10
147.259
 20
-92.2202
 10
147.147
 20
-91.9271
 10
147.066
 20
-91.6237
 10
147.016
 20
-91.3136
 10
147
 20
-91
 10
147.016
 20
-90.6864
 10
147.066
 20
-90.3763
 10
147.147
 20
-90.0729
 10
147.259
 20
-89.7798
 10
147.402
 20
-89.5
 10
147.573
 20
-89.2366
 10
147.771
 20
-88.9926
 10
147.993
 20
-88.7706
 10
148.237
 20
-88.5729
 10
148.5
 20
-88.4019
 10
148.78
 20
-88.2594
 10
149.073
 20
-88.1468
 10
149.376
 20
-88.0656
 10
149.686
 20
-88.0164
 10
150
 20
-88
 10
150.314
 20
-88.0164
 10
150.624
 20
-88.0656
 10
150.927
 20
-88.1468
 10
151.22
 20
-88.2594
 10
151.5
 20
-88.4019
 10
151.763
 20
-88.5729
 10
152.007
 20
-88.7706
 10
152.229
 20
-88.9926
 10
152.427
 20
-89.2366
 10
152.598
 20
-89.5
 10
152.741
 20
-89.7798
 10
152.853
 20
-90.0729
 10
152.934
 20
-90.3763
 10
152.984
 20
-90.6864
 10
153
 20
-91
 10
152.984
 20
-91.3136
 10
152.934
 20
-91.6237
 10
152.853
 20
-91.9271
 10
152.741
 20
-92.2202
 10
152.598
 20
-92.5
 10
152.427
 20
-92.7634
 10
152.229
 20
-93.0074
 10
152.007
 20
-93.2294
 10
151.763
 20
-93.4271
 10
151.5
 20
-93.5981
 10
151.22
 20
-93.7406
 10
150.927
 20
-93.8532
 10
150.624
 20
-93.9344
 10
150.314
 20
-93.9836
 10
150
 20
-94
  0
ENDSEC
  0
EOF
