999
DXF from OpenSCAD
  0
SECTION
  2
HEADER
  9
$ACADVER
  1
AC1006
  9
$INSBASE
 10
0.0
 20
0.0
 30
0.0
  9
$EXTMIN
 10
-178
 20
-290
  9
$EXTMAX
 10
178
 20
290
  9
$LINMIN
 10
-178
 20
-290
  9
$LINMAX
 10
178
 20
290
  0
ENDSEC
  0
SECTION
  2
TABLES
  0
TABLE
  2
LTYPE
 70
1
  0
LTYPE
  2
CONTINUOUS
 70
64
  3
Solid line
 72
65
 73
0
 40
0.000000
  0
ENDTAB
  0
TABLE
  2
LAYER
 70
6
  0
LAYER
  2
0
 70
64
 62
7
  6
CONTINUOUS
  0
ENDTAB
  0
TABLE
  2
STYLE
 70
0
  0
ENDTAB
  0
ENDSEC
  0
SECTION
  2
BLOCKS
  0
ENDSEC
  0
SECTION
  2
ENTITIES
  0
LWPOLYLINE
100
AcDbEntity
  8
0
100
AcDbPolyline
 90
4
 70
1
 10
178
 20
290
 10
-178
 20
290
 10
-178
 20
-290
 10
178
 20
-290
  0
LWPOLYLINE
100
AcDbEntity
  8
0
100
AcDbPolyline
 90
60
 70
1
 10
-101.314
 20
247.016
 10
-101.624
 20
247.066
 10
-101.927
 20
247.147
 10
-102.22
 20
247.259
 10
-102.5
 20
247.402
 10
-102.763
 20
247.573
 10
-103.007
 20
247.771
 10
-103.229
 20
247.993
 10
-103.427
 20
248.237
 10
-103.598
 20
248.5
 10
-103.741
 20
248.78
 10
-103.853
 20
249.073
 10
-103.934
 20
249.376
 10
-103.984
 20
249.686
 10
-104
 20
250
 10
-103.984
 20
250.314
 10
-103.934
 20
250.624
 10
-103.853
 20
250.927
 10
-103.741
 20
251.22
 10
-103.598
 20
251.5
 10
-103.427
 20
251.763
 10
-103.229
 20
252.007
 10
-103.007
 20
252.229
 10
-102.763
 20
252.427
 10
-102.5
 20
252.598
 10
-102.22
 20
252.741
 10
-101.927
 20
252.853
 10
-101.624
 20
252.934
 10
-101.314
 20
252.984
 10
-101
 20
253
 10
-100.686
 20
252.984
 10
-100.376
 20
252.934
 10
-100.073
 20
252.853
 10
-99.7798
 20
252.741
 10
-99.5
 20
252.598
 10
-99.2366
 20
252.427
 10
-98.9926
 20
252.229
 10
-98.7706
 20
252.007
 10
-98.5729
 20
251.763
 10
-98.4019
 20
251.5
 10
-98.2594
 20
251.22
 10
-98.1468
 20
250.927
 10
-98.0656
 20
250.624
 10
-98.0164
 20
250.314
 10
-98
 20
250
 10
-98.0164
 20
249.686
 10
-98.0656
 20
249.376
 10
-98.1468
 20
249.073
 10
-98.2594
 20
248.78
 10
-98.4019
 20
248.5
 10
-98.5729
 20
248.237
 10
-98.7706
 20
247.993
 10
-98.9926
 20
247.771
 10
-99.2366
 20
247.573
 10
-99.5
 20
247.402
 10
-99.7798
 20
247.259
 10
-100.073
 20
247.147
 10
-100.376
 20
247.066
 10
-100.686
 20
247.016
 10
-101
 20
247
  0
LWPOLYLINE
100
AcDbEntity
  8
0
100
AcDbPolyline
 90
60
 70
1
 10
-79.3136
 20
247.016
 10
-79.6237
 20
247.066
 10
-79.9271
 20
247.147
 10
-80.2202
 20
247.259
 10
-80.5
 20
247.402
 10
-80.7634
 20
247.573
 10
-81.0074
 20
247.771
 10
-81.2294
 20
247.993
 10
-81.4271
 20
248.237
 10
-81.5981
 20
248.5
 10
-81.7406
 20
248.78
 10
-81.8532
 20
249.073
 10
-81.9344
 20
249.376
 10
-81.9836
 20
249.686
 10
-82
 20
250
 10
-81.9836
 20
250.314
 10
-81.9344
 20
250.624
 10
-81.8532
 20
250.927
 10
-81.7406
 20
251.22
 10
-81.5981
 20
251.5
 10
-81.4271
 20
251.763
 10
-81.2294
 20
252.007
 10
-81.0074
 20
252.229
 10
-80.7634
 20
252.427
 10
-80.5
 20
252.598
 10
-80.2202
 20
252.741
 10
-79.9271
 20
252.853
 10
-79.6237
 20
252.934
 10
-79.3136
 20
252.984
 10
-79
 20
253
 10
-78.6864
 20
252.984
 10
-78.3763
 20
252.934
 10
-78.0729
 20
252.853
 10
-77.7798
 20
252.741
 10
-77.5
 20
252.598
 10
-77.2366
 20
252.427
 10
-76.9926
 20
252.229
 10
-76.7706
 20
252.007
 10
-76.5729
 20
251.763
 10
-76.4019
 20
251.5
 10
-76.2594
 20
251.22
 10
-76.1468
 20
250.927
 10
-76.0656
 20
250.624
 10
-76.0164
 20
250.314
 10
-76
 20
250
 10
-76.0164
 20
249.686
 10
-76.0656
 20
249.376
 10
-76.1468
 20
249.073
 10
-76.2594
 20
248.78
 10
-76.4019
 20
248.5
 10
-76.5729
 20
248.237
 10
-76.7706
 20
247.993
 10
-76.9926
 20
247.771
 10
-77.2366
 20
247.573
 10
-77.5
 20
247.402
 10
-77.7798
 20
247.259
 10
-78.0729
 20
247.147
 10
-78.3763
 20
247.066
 10
-78.6864
 20
247.016
 10
-79
 20
247
  0
LWPOLYLINE
100
AcDbEntity
  8
0
100
AcDbPolyline
 90
60
 70
1
 10
78.6864
 20
247.016
 10
78.3763
 20
247.066
 10
78.0729
 20
247.147
 10
77.7798
 20
247.259
 10
77.5
 20
247.402
 10
77.2366
 20
247.573
 10
76.9926
 20
247.771
 10
76.7706
 20
247.993
 10
76.5729
 20
248.237
 10
76.4019
 20
248.5
 10
76.2594
 20
248.78
 10
76.1468
 20
249.073
 10
76.0656
 20
249.376
 10
76.0164
 20
249.686
 10
76
 20
250
 10
76.0164
 20
250.314
 10
76.0656
 20
250.624
 10
76.1468
 20
250.927
 10
76.2594
 20
251.22
 10
76.4019
 20
251.5
 10
76.5729
 20
251.763
 10
76.7706
 20
252.007
 10
76.9926
 20
252.229
 10
77.2366
 20
252.427
 10
77.5
 20
252.598
 10
77.7798
 20
252.741
 10
78.0729
 20
252.853
 10
78.3763
 20
252.934
 10
78.6864
 20
252.984
 10
79
 20
253
 10
79.3136
 20
252.984
 10
79.6237
 20
252.934
 10
79.9271
 20
252.853
 10
80.2202
 20
252.741
 10
80.5
 20
252.598
 10
80.7634
 20
252.427
 10
81.0074
 20
252.229
 10
81.2294
 20
252.007
 10
81.4271
 20
251.763
 10
81.5981
 20
251.5
 10
81.7406
 20
251.22
 10
81.8532
 20
250.927
 10
81.9344
 20
250.624
 10
81.9836
 20
250.314
 10
82
 20
250
 10
81.9836
 20
249.686
 10
81.9344
 20
249.376
 10
81.8532
 20
249.073
 10
81.7406
 20
248.78
 10
81.5981
 20
248.5
 10
81.4271
 20
248.237
 10
81.2294
 20
247.993
 10
81.0074
 20
247.771
 10
80.7634
 20
247.573
 10
80.5
 20
247.402
 10
80.2202
 20
247.259
 10
79.9271
 20
247.147
 10
79.6237
 20
247.066
 10
79.3136
 20
247.016
 10
79
 20
247
  0
LWPOLYLINE
100
AcDbEntity
  8
0
100
AcDbPolyline
 90
60
 70
1
 10
100.686
 20
247.016
 10
100.376
 20
247.066
 10
100.073
 20
247.147
 10
99.7798
 20
247.259
 10
99.5
 20
247.402
 10
99.2366
 20
247.573
 10
98.9926
 20
247.771
 10
98.7706
 20
247.993
 10
98.5729
 20
248.237
 10
98.4019
 20
248.5
 10
98.2594
 20
248.78
 10
98.1468
 20
249.073
 10
98.0656
 20
249.376
 10
98.0164
 20
249.686
 10
98
 20
250
 10
98.0164
 20
250.314
 10
98.0656
 20
250.624
 10
98.1468
 20
250.927
 10
98.2594
 20
251.22
 10
98.4019
 20
251.5
 10
98.5729
 20
251.763
 10
98.7706
 20
252.007
 10
98.9926
 20
252.229
 10
99.2366
 20
252.427
 10
99.5
 20
252.598
 10
99.7798
 20
252.741
 10
100.073
 20
252.853
 10
100.376
 20
252.934
 10
100.686
 20
252.984
 10
101
 20
253
 10
101.314
 20
252.984
 10
101.624
 20
252.934
 10
101.927
 20
252.853
 10
102.22
 20
252.741
 10
102.5
 20
252.598
 10
102.763
 20
252.427
 10
103.007
 20
252.229
 10
103.229
 20
252.007
 10
103.427
 20
251.763
 10
103.598
 20
251.5
 10
103.741
 20
251.22
 10
103.853
 20
250.927
 10
103.934
 20
250.624
 10
103.984
 20
250.314
 10
104
 20
250
 10
103.984
 20
249.686
 10
103.934
 20
249.376
 10
103.853
 20
249.073
 10
103.741
 20
248.78
 10
103.598
 20
248.5
 10
103.427
 20
248.237
 10
103.229
 20
247.993
 10
103.007
 20
247.771
 10
102.763
 20
247.573
 10
102.5
 20
247.402
 10
102.22
 20
247.259
 10
101.927
 20
247.147
 10
101.624
 20
247.066
 10
101.314
 20
247.016
 10
101
 20
247
  0
LWPOLYLINE
100
AcDbEntity
  8
0
100
AcDbPolyline
 90
60
 70
1
 10
-140.418
 20
236.022
 10
-140.832
 20
236.087
 10
-141.236
 20
236.196
 10
-141.627
 20
236.346
 10
-142
 20
236.536
 10
-142.351
 20
236.764
 10
-142.677
 20
237.027
 10
-142.973
 20
237.323
 10
-143.236
 20
237.649
 10
-143.464
 20
238
 10
-143.654
 20
238.373
 10
-143.804
 20
238.764
 10
-143.913
 20
239.168
 10
-143.978
 20
239.582
 10
-144
 20
240
 10
-143.978
 20
240.418
 10
-143.913
 20
240.832
 10
-143.804
 20
241.236
 10
-143.654
 20
241.627
 10
-143.464
 20
242
 10
-143.236
 20
242.351
 10
-142.973
 20
242.677
 10
-142.677
 20
242.973
 10
-142.351
 20
243.236
 10
-142
 20
243.464
 10
-141.627
 20
243.654
 10
-141.236
 20
243.804
 10
-140.832
 20
243.913
 10
-140.418
 20
243.978
 10
-140
 20
244
 10
-139.582
 20
243.978
 10
-139.168
 20
243.913
 10
-138.764
 20
243.804
 10
-138.373
 20
243.654
 10
-138
 20
243.464
 10
-137.649
 20
243.236
 10
-137.323
 20
242.973
 10
-137.027
 20
242.677
 10
-136.764
 20
242.351
 10
-136.536
 20
242
 10
-136.346
 20
241.627
 10
-136.196
 20
241.236
 10
-136.087
 20
240.832
 10
-136.022
 20
240.418
 10
-136
 20
240
 10
-136.022
 20
239.582
 10
-136.087
 20
239.168
 10
-136.196
 20
238.764
 10
-136.346
 20
238.373
 10
-136.536
 20
238
 10
-136.764
 20
237.649
 10
-137.027
 20
237.323
 10
-137.323
 20
237.027
 10
-137.649
 20
236.764
 10
-138
 20
236.536
 10
-138.373
 20
236.346
 10
-138.764
 20
236.196
 10
-139.168
 20
236.087
 10
-139.582
 20
236.022
 10
-140
 20
236
  0
LWPOLYLINE
100
AcDbEntity
  8
0
100
AcDbPolyline
 90
60
 70
1
 10
139.582
 20
236.022
 10
139.168
 20
236.087
 10
138.764
 20
236.196
 10
138.373
 20
236.346
 10
138
 20
236.536
 10
137.649
 20
236.764
 10
137.323
 20
237.027
 10
137.027
 20
237.323
 10
136.764
 20
237.649
 10
136.536
 20
238
 10
136.346
 20
238.373
 10
136.196
 20
238.764
 10
136.087
 20
239.168
 10
136.022
 20
239.582
 10
136
 20
240
 10
136.022
 20
240.418
 10
136.087
 20
240.832
 10
136.196
 20
241.236
 10
136.346
 20
241.627
 10
136.536
 20
242
 10
136.764
 20
242.351
 10
137.027
 20
242.677
 10
137.323
 20
242.973
 10
137.649
 20
243.236
 10
138
 20
243.464
 10
138.373
 20
243.654
 10
138.764
 20
243.804
 10
139.168
 20
243.913
 10
139.582
 20
243.978
 10
140
 20
244
 10
140.418
 20
243.978
 10
140.832
 20
243.913
 10
141.236
 20
243.804
 10
141.627
 20
243.654
 10
142
 20
243.464
 10
142.351
 20
243.236
 10
142.677
 20
242.973
 10
142.973
 20
242.677
 10
143.236
 20
242.351
 10
143.464
 20
242
 10
143.654
 20
241.627
 10
143.804
 20
241.236
 10
143.913
 20
240.832
 10
143.978
 20
240.418
 10
144
 20
240
 10
143.978
 20
239.582
 10
143.913
 20
239.168
 10
143.804
 20
238.764
 10
143.654
 20
238.373
 10
143.464
 20
238
 10
143.236
 20
237.649
 10
142.973
 20
237.323
 10
142.677
 20
237.027
 10
142.351
 20
236.764
 10
142
 20
236.536
 10
141.627
 20
236.346
 10
141.236
 20
236.196
 10
140.832
 20
236.087
 10
140.418
 20
236.022
 10
140
 20
236
  0
LWPOLYLINE
100
AcDbEntity
  8
0
100
AcDbPolyline
 90
60
 70
1
 10
-23.3136
 20
237.516
 10
-23.6237
 20
237.566
 10
-23.9271
 20
237.647
 10
-24.2202
 20
237.759
 10
-24.5
 20
237.902
 10
-24.7634
 20
238.073
 10
-25.0074
 20
238.271
 10
-25.2294
 20
238.493
 10
-25.4271
 20
238.737
 10
-25.5981
 20
239
 10
-25.7406
 20
239.28
 10
-25.8532
 20
239.573
 10
-25.9344
 20
239.876
 10
-25.9836
 20
240.186
 10
-26
 20
240.5
 10
-25.9836
 20
240.814
 10
-25.9344
 20
241.124
 10
-25.8532
 20
241.427
 10
-25.7406
 20
241.72
 10
-25.5981
 20
242
 10
-25.4271
 20
242.263
 10
-25.2294
 20
242.507
 10
-25.0074
 20
242.729
 10
-24.7634
 20
242.927
 10
-24.5
 20
243.098
 10
-24.2202
 20
243.241
 10
-23.9271
 20
243.353
 10
-23.6237
 20
243.434
 10
-23.3136
 20
243.484
 10
-23
 20
243.5
 10
-22.6864
 20
243.484
 10
-22.3763
 20
243.434
 10
-22.0729
 20
243.353
 10
-21.7798
 20
243.241
 10
-21.5
 20
243.098
 10
-21.2366
 20
242.927
 10
-20.9926
 20
242.729
 10
-20.7706
 20
242.507
 10
-20.5729
 20
242.263
 10
-20.4019
 20
242
 10
-20.2594
 20
241.72
 10
-20.1468
 20
241.427
 10
-20.0656
 20
241.124
 10
-20.0164
 20
240.814
 10
-20
 20
240.5
 10
-20.0164
 20
240.186
 10
-20.0656
 20
239.876
 10
-20.1468
 20
239.573
 10
-20.2594
 20
239.28
 10
-20.4019
 20
239
 10
-20.5729
 20
238.737
 10
-20.7706
 20
238.493
 10
-20.9926
 20
238.271
 10
-21.2366
 20
238.073
 10
-21.5
 20
237.902
 10
-21.7798
 20
237.759
 10
-22.0729
 20
237.647
 10
-22.3763
 20
237.566
 10
-22.6864
 20
237.516
 10
-23
 20
237.5
  0
LWPOLYLINE
100
AcDbEntity
  8
0
100
AcDbPolyline
 90
60
 70
1
 10
22.6864
 20
237.516
 10
22.3763
 20
237.566
 10
22.0729
 20
237.647
 10
21.7798
 20
237.759
 10
21.5
 20
237.902
 10
21.2366
 20
238.073
 10
20.9926
 20
238.271
 10
20.7706
 20
238.493
 10
20.5729
 20
238.737
 10
20.4019
 20
239
 10
20.2594
 20
239.28
 10
20.1468
 20
239.573
 10
20.0656
 20
239.876
 10
20.0164
 20
240.186
 10
20
 20
240.5
 10
20.0164
 20
240.814
 10
20.0656
 20
241.124
 10
20.1468
 20
241.427
 10
20.2594
 20
241.72
 10
20.4019
 20
242
 10
20.5729
 20
242.263
 10
20.7706
 20
242.507
 10
20.9926
 20
242.729
 10
21.2366
 20
242.927
 10
21.5
 20
243.098
 10
21.7798
 20
243.241
 10
22.0729
 20
243.353
 10
22.3763
 20
243.434
 10
22.6864
 20
243.484
 10
23
 20
243.5
 10
23.3136
 20
243.484
 10
23.6237
 20
243.434
 10
23.9271
 20
243.353
 10
24.2202
 20
243.241
 10
24.5
 20
243.098
 10
24.7634
 20
242.927
 10
25.0074
 20
242.729
 10
25.2294
 20
242.507
 10
25.4271
 20
242.263
 10
25.5981
 20
242
 10
25.7406
 20
241.72
 10
25.8532
 20
241.427
 10
25.9344
 20
241.124
 10
25.9836
 20
240.814
 10
26
 20
240.5
 10
25.9836
 20
240.186
 10
25.9344
 20
239.876
 10
25.8532
 20
239.573
 10
25.7406
 20
239.28
 10
25.5981
 20
239
 10
25.4271
 20
238.737
 10
25.2294
 20
238.493
 10
25.0074
 20
238.271
 10
24.7634
 20
238.073
 10
24.5
 20
237.902
 10
24.2202
 20
237.759
 10
23.9271
 20
237.647
 10
23.6237
 20
237.566
 10
23.3136
 20
237.516
 10
23
 20
237.5
  0
LWPOLYLINE
100
AcDbEntity
  8
0
100
AcDbPolyline
 90
60
 70
1
 10
-23.3136
 20
224.516
 10
-23.6237
 20
224.566
 10
-23.9271
 20
224.647
 10
-24.2202
 20
224.759
 10
-24.5
 20
224.902
 10
-24.7634
 20
225.073
 10
-25.0074
 20
225.271
 10
-25.2294
 20
225.493
 10
-25.4271
 20
225.737
 10
-25.5981
 20
226
 10
-25.7406
 20
226.28
 10
-25.8532
 20
226.573
 10
-25.9344
 20
226.876
 10
-25.9836
 20
227.186
 10
-26
 20
227.5
 10
-25.9836
 20
227.814
 10
-25.9344
 20
228.124
 10
-25.8532
 20
228.427
 10
-25.7406
 20
228.72
 10
-25.5981
 20
229
 10
-25.4271
 20
229.263
 10
-25.2294
 20
229.507
 10
-25.0074
 20
229.729
 10
-24.7634
 20
229.927
 10
-24.5
 20
230.098
 10
-24.2202
 20
230.241
 10
-23.9271
 20
230.353
 10
-23.6237
 20
230.434
 10
-23.3136
 20
230.484
 10
-23
 20
230.5
 10
-22.6864
 20
230.484
 10
-22.3763
 20
230.434
 10
-22.0729
 20
230.353
 10
-21.7798
 20
230.241
 10
-21.5
 20
230.098
 10
-21.2366
 20
229.927
 10
-20.9926
 20
229.729
 10
-20.7706
 20
229.507
 10
-20.5729
 20
229.263
 10
-20.4019
 20
229
 10
-20.2594
 20
228.72
 10
-20.1468
 20
228.427
 10
-20.0656
 20
228.124
 10
-20.0164
 20
227.814
 10
-20
 20
227.5
 10
-20.0164
 20
227.186
 10
-20.0656
 20
226.876
 10
-20.1468
 20
226.573
 10
-20.2594
 20
226.28
 10
-20.4019
 20
226
 10
-20.5729
 20
225.737
 10
-20.7706
 20
225.493
 10
-20.9926
 20
225.271
 10
-21.2366
 20
225.073
 10
-21.5
 20
224.902
 10
-21.7798
 20
224.759
 10
-22.0729
 20
224.647
 10
-22.3763
 20
224.566
 10
-22.6864
 20
224.516
 10
-23
 20
224.5
  0
LWPOLYLINE
100
AcDbEntity
  8
0
100
AcDbPolyline
 90
60
 70
1
 10
22.6864
 20
224.516
 10
22.3763
 20
224.566
 10
22.0729
 20
224.647
 10
21.7798
 20
224.759
 10
21.5
 20
224.902
 10
21.2366
 20
225.073
 10
20.9926
 20
225.271
 10
20.7706
 20
225.493
 10
20.5729
 20
225.737
 10
20.4019
 20
226
 10
20.2594
 20
226.28
 10
20.1468
 20
226.573
 10
20.0656
 20
226.876
 10
20.0164
 20
227.186
 10
20
 20
227.5
 10
20.0164
 20
227.814
 10
20.0656
 20
228.124
 10
20.1468
 20
228.427
 10
20.2594
 20
228.72
 10
20.4019
 20
229
 10
20.5729
 20
229.263
 10
20.7706
 20
229.507
 10
20.9926
 20
229.729
 10
21.2366
 20
229.927
 10
21.5
 20
230.098
 10
21.7798
 20
230.241
 10
22.0729
 20
230.353
 10
22.3763
 20
230.434
 10
22.6864
 20
230.484
 10
23
 20
230.5
 10
23.3136
 20
230.484
 10
23.6237
 20
230.434
 10
23.9271
 20
230.353
 10
24.2202
 20
230.241
 10
24.5
 20
230.098
 10
24.7634
 20
229.927
 10
25.0074
 20
229.729
 10
25.2294
 20
229.507
 10
25.4271
 20
229.263
 10
25.5981
 20
229
 10
25.7406
 20
228.72
 10
25.8532
 20
228.427
 10
25.9344
 20
228.124
 10
25.9836
 20
227.814
 10
26
 20
227.5
 10
25.9836
 20
227.186
 10
25.9344
 20
226.876
 10
25.8532
 20
226.573
 10
25.7406
 20
226.28
 10
25.5981
 20
226
 10
25.4271
 20
225.737
 10
25.2294
 20
225.493
 10
25.0074
 20
225.271
 10
24.7634
 20
225.073
 10
24.5
 20
224.902
 10
24.2202
 20
224.759
 10
23.9271
 20
224.647
 10
23.6237
 20
224.566
 10
23.3136
 20
224.516
 10
23
 20
224.5
  0
LWPOLYLINE
100
AcDbEntity
  8
0
100
AcDbPolyline
 90
60
 70
1
 10
-101.314
 20
147.016
 10
-101.624
 20
147.066
 10
-101.927
 20
147.147
 10
-102.22
 20
147.259
 10
-102.5
 20
147.402
 10
-102.763
 20
147.573
 10
-103.007
 20
147.771
 10
-103.229
 20
147.993
 10
-103.427
 20
148.237
 10
-103.598
 20
148.5
 10
-103.741
 20
148.78
 10
-103.853
 20
149.073
 10
-103.934
 20
149.376
 10
-103.984
 20
149.686
 10
-104
 20
150
 10
-103.984
 20
150.314
 10
-103.934
 20
150.624
 10
-103.853
 20
150.927
 10
-103.741
 20
151.22
 10
-103.598
 20
151.5
 10
-103.427
 20
151.763
 10
-103.229
 20
152.007
 10
-103.007
 20
152.229
 10
-102.763
 20
152.427
 10
-102.5
 20
152.598
 10
-102.22
 20
152.741
 10
-101.927
 20
152.853
 10
-101.624
 20
152.934
 10
-101.314
 20
152.984
 10
-101
 20
153
 10
-100.686
 20
152.984
 10
-100.376
 20
152.934
 10
-100.073
 20
152.853
 10
-99.7798
 20
152.741
 10
-99.5
 20
152.598
 10
-99.2366
 20
152.427
 10
-98.9926
 20
152.229
 10
-98.7706
 20
152.007
 10
-98.5729
 20
151.763
 10
-98.4019
 20
151.5
 10
-98.2594
 20
151.22
 10
-98.1468
 20
150.927
 10
-98.0656
 20
150.624
 10
-98.0164
 20
150.314
 10
-98
 20
150
 10
-98.0164
 20
149.686
 10
-98.0656
 20
149.376
 10
-98.1468
 20
149.073
 10
-98.2594
 20
148.78
 10
-98.4019
 20
148.5
 10
-98.5729
 20
148.237
 10
-98.7706
 20
147.993
 10
-98.9926
 20
147.771
 10
-99.2366
 20
147.573
 10
-99.5
 20
147.402
 10
-99.7798
 20
147.259
 10
-100.073
 20
147.147
 10
-100.376
 20
147.066
 10
-100.686
 20
147.016
 10
-101
 20
147
  0
LWPOLYLINE
100
AcDbEntity
  8
0
100
AcDbPolyline
 90
60
 70
1
 10
-79.3136
 20
147.016
 10
-79.6237
 20
147.066
 10
-79.9271
 20
147.147
 10
-80.2202
 20
147.259
 10
-80.5
 20
147.402
 10
-80.7634
 20
147.573
 10
-81.0074
 20
147.771
 10
-81.2294
 20
147.993
 10
-81.4271
 20
148.237
 10
-81.5981
 20
148.5
 10
-81.7406
 20
148.78
 10
-81.8532
 20
149.073
 10
-81.9344
 20
149.376
 10
-81.9836
 20
149.686
 10
-82
 20
150
 10
-81.9836
 20
150.314
 10
-81.9344
 20
150.624
 10
-81.8532
 20
150.927
 10
-81.7406
 20
151.22
 10
-81.5981
 20
151.5
 10
-81.4271
 20
151.763
 10
-81.2294
 20
152.007
 10
-81.0074
 20
152.229
 10
-80.7634
 20
152.427
 10
-80.5
 20
152.598
 10
-80.2202
 20
152.741
 10
-79.9271
 20
152.853
 10
-79.6237
 20
152.934
 10
-79.3136
 20
152.984
 10
-79
 20
153
 10
-78.6864
 20
152.984
 10
-78.3763
 20
152.934
 10
-78.0729
 20
152.853
 10
-77.7798
 20
152.741
 10
-77.5
 20
152.598
 10
-77.2366
 20
152.427
 10
-76.9926
 20
152.229
 10
-76.7706
 20
152.007
 10
-76.5729
 20
151.763
 10
-76.4019
 20
151.5
 10
-76.2594
 20
151.22
 10
-76.1468
 20
150.927
 10
-76.0656
 20
150.624
 10
-76.0164
 20
150.314
 10
-76
 20
150
 10
-76.0164
 20
149.686
 10
-76.0656
 20
149.376
 10
-76.1468
 20
149.073
 10
-76.2594
 20
148.78
 10
-76.4019
 20
148.5
 10
-76.5729
 20
148.237
 10
-76.7706
 20
147.993
 10
-76.9926
 20
147.771
 10
-77.2366
 20
147.573
 10
-77.5
 20
147.402
 10
-77.7798
 20
147.259
 10
-78.0729
 20
147.147
 10
-78.3763
 20
147.066
 10
-78.6864
 20
147.016
 10
-79
 20
147
  0
LWPOLYLINE
100
AcDbEntity
  8
0
100
AcDbPolyline
 90
60
 70
1
 10
78.6864
 20
147.016
 10
78.3763
 20
147.066
 10
78.0729
 20
147.147
 10
77.7798
 20
147.259
 10
77.5
 20
147.402
 10
77.2366
 20
147.573
 10
76.9926
 20
147.771
 10
76.7706
 20
147.993
 10
76.5729
 20
148.237
 10
76.4019
 20
148.5
 10
76.2594
 20
148.78
 10
76.1468
 20
149.073
 10
76.0656
 20
149.376
 10
76.0164
 20
149.686
 10
76
 20
150
 10
76.0164
 20
150.314
 10
76.0656
 20
150.624
 10
76.1468
 20
150.927
 10
76.2594
 20
151.22
 10
76.4019
 20
151.5
 10
76.5729
 20
151.763
 10
76.7706
 20
152.007
 10
76.9926
 20
152.229
 10
77.2366
 20
152.427
 10
77.5
 20
152.598
 10
77.7798
 20
152.741
 10
78.0729
 20
152.853
 10
78.3763
 20
152.934
 10
78.6864
 20
152.984
 10
79
 20
153
 10
79.3136
 20
152.984
 10
79.6237
 20
152.934
 10
79.9271
 20
152.853
 10
80.2202
 20
152.741
 10
80.5
 20
152.598
 10
80.7634
 20
152.427
 10
81.0074
 20
152.229
 10
81.2294
 20
152.007
 10
81.4271
 20
151.763
 10
81.5981
 20
151.5
 10
81.7406
 20
151.22
 10
81.8532
 20
150.927
 10
81.9344
 20
150.624
 10
81.9836
 20
150.314
 10
82
 20
150
 10
81.9836
 20
149.686
 10
81.9344
 20
149.376
 10
81.8532
 20
149.073
 10
81.7406
 20
148.78
 10
81.5981
 20
148.5
 10
81.4271
 20
148.237
 10
81.2294
 20
147.993
 10
81.0074
 20
147.771
 10
80.7634
 20
147.573
 10
80.5
 20
147.402
 10
80.2202
 20
147.259
 10
79.9271
 20
147.147
 10
79.6237
 20
147.066
 10
79.3136
 20
147.016
 10
79
 20
147
  0
LWPOLYLINE
100
AcDbEntity
  8
0
100
AcDbPolyline
 90
60
 70
1
 10
100.686
 20
147.016
 10
100.376
 20
147.066
 10
100.073
 20
147.147
 10
99.7798
 20
147.259
 10
99.5
 20
147.402
 10
99.2366
 20
147.573
 10
98.9926
 20
147.771
 10
98.7706
 20
147.993
 10
98.5729
 20
148.237
 10
98.4019
 20
148.5
 10
98.2594
 20
148.78
 10
98.1468
 20
149.073
 10
98.0656
 20
149.376
 10
98.0164
 20
149.686
 10
98
 20
150
 10
98.0164
 20
150.314
 10
98.0656
 20
150.624
 10
98.1468
 20
150.927
 10
98.2594
 20
151.22
 10
98.4019
 20
151.5
 10
98.5729
 20
151.763
 10
98.7706
 20
152.007
 10
98.9926
 20
152.229
 10
99.2366
 20
152.427
 10
99.5
 20
152.598
 10
99.7798
 20
152.741
 10
100.073
 20
152.853
 10
100.376
 20
152.934
 10
100.686
 20
152.984
 10
101
 20
153
 10
101.314
 20
152.984
 10
101.624
 20
152.934
 10
101.927
 20
152.853
 10
102.22
 20
152.741
 10
102.5
 20
152.598
 10
102.763
 20
152.427
 10
103.007
 20
152.229
 10
103.229
 20
152.007
 10
103.427
 20
151.763
 10
103.598
 20
151.5
 10
103.741
 20
151.22
 10
103.853
 20
150.927
 10
103.934
 20
150.624
 10
103.984
 20
150.314
 10
104
 20
150
 10
103.984
 20
149.686
 10
103.934
 20
149.376
 10
103.853
 20
149.073
 10
103.741
 20
148.78
 10
103.598
 20
148.5
 10
103.427
 20
148.237
 10
103.229
 20
147.993
 10
103.007
 20
147.771
 10
102.763
 20
147.573
 10
102.5
 20
147.402
 10
102.22
 20
147.259
 10
101.927
 20
147.147
 10
101.624
 20
147.066
 10
101.314
 20
147.016
 10
101
 20
147
  0
LWPOLYLINE
100
AcDbEntity
  8
0
100
AcDbPolyline
 90
60
 70
1
 10
-101.314
 20
47.0164
 10
-101.624
 20
47.0656
 10
-101.927
 20
47.1468
 10
-102.22
 20
47.2594
 10
-102.5
 20
47.4019
 10
-102.763
 20
47.5729
 10
-103.007
 20
47.7706
 10
-103.229
 20
47.9926
 10
-103.427
 20
48.2366
 10
-103.598
 20
48.5
 10
-103.741
 20
48.7798
 10
-103.853
 20
49.0729
 10
-103.934
 20
49.3763
 10
-103.984
 20
49.6864
 10
-104
 20
50
 10
-103.984
 20
50.3136
 10
-103.934
 20
50.6237
 10
-103.853
 20
50.9271
 10
-103.741
 20
51.2202
 10
-103.598
 20
51.5
 10
-103.427
 20
51.7634
 10
-103.229
 20
52.0074
 10
-103.007
 20
52.2294
 10
-102.763
 20
52.4271
 10
-102.5
 20
52.5981
 10
-102.22
 20
52.7406
 10
-101.927
 20
52.8532
 10
-101.624
 20
52.9344
 10
-101.314
 20
52.9836
 10
-101
 20
53
 10
-100.686
 20
52.9836
 10
-100.376
 20
52.9344
 10
-100.073
 20
52.8532
 10
-99.7798
 20
52.7406
 10
-99.5
 20
52.5981
 10
-99.2366
 20
52.4271
 10
-98.9926
 20
52.2294
 10
-98.7706
 20
52.0074
 10
-98.5729
 20
51.7634
 10
-98.4019
 20
51.5
 10
-98.2594
 20
51.2202
 10
-98.1468
 20
50.9271
 10
-98.0656
 20
50.6237
 10
-98.0164
 20
50.3136
 10
-98
 20
50
 10
-98.0164
 20
49.6864
 10
-98.0656
 20
49.3763
 10
-98.1468
 20
49.0729
 10
-98.2594
 20
48.7798
 10
-98.4019
 20
48.5
 10
-98.5729
 20
48.2366
 10
-98.7706
 20
47.9926
 10
-98.9926
 20
47.7706
 10
-99.2366
 20
47.5729
 10
-99.5
 20
47.4019
 10
-99.7798
 20
47.2594
 10
-100.073
 20
47.1468
 10
-100.376
 20
47.0656
 10
-100.686
 20
47.0164
 10
-101
 20
47
  0
LWPOLYLINE
100
AcDbEntity
  8
0
100
AcDbPolyline
 90
60
 70
1
 10
-79.3136
 20
47.0164
 10
-79.6237
 20
47.0656
 10
-79.9271
 20
47.1468
 10
-80.2202
 20
47.2594
 10
-80.5
 20
47.4019
 10
-80.7634
 20
47.5729
 10
-81.0074
 20
47.7706
 10
-81.2294
 20
47.9926
 10
-81.4271
 20
48.2366
 10
-81.5981
 20
48.5
 10
-81.7406
 20
48.7798
 10
-81.8532
 20
49.0729
 10
-81.9344
 20
49.3763
 10
-81.9836
 20
49.6864
 10
-82
 20
50
 10
-81.9836
 20
50.3136
 10
-81.9344
 20
50.6237
 10
-81.8532
 20
50.9271
 10
-81.7406
 20
51.2202
 10
-81.5981
 20
51.5
 10
-81.4271
 20
51.7634
 10
-81.2294
 20
52.0074
 10
-81.0074
 20
52.2294
 10
-80.7634
 20
52.4271
 10
-80.5
 20
52.5981
 10
-80.2202
 20
52.7406
 10
-79.9271
 20
52.8532
 10
-79.6237
 20
52.9344
 10
-79.3136
 20
52.9836
 10
-79
 20
53
 10
-78.6864
 20
52.9836
 10
-78.3763
 20
52.9344
 10
-78.0729
 20
52.8532
 10
-77.7798
 20
52.7406
 10
-77.5
 20
52.5981
 10
-77.2366
 20
52.4271
 10
-76.9926
 20
52.2294
 10
-76.7706
 20
52.0074
 10
-76.5729
 20
51.7634
 10
-76.4019
 20
51.5
 10
-76.2594
 20
51.2202
 10
-76.1468
 20
50.9271
 10
-76.0656
 20
50.6237
 10
-76.0164
 20
50.3136
 10
-76
 20
50
 10
-76.0164
 20
49.6864
 10
-76.0656
 20
49.3763
 10
-76.1468
 20
49.0729
 10
-76.2594
 20
48.7798
 10
-76.4019
 20
48.5
 10
-76.5729
 20
48.2366
 10
-76.7706
 20
47.9926
 10
-76.9926
 20
47.7706
 10
-77.2366
 20
47.5729
 10
-77.5
 20
47.4019
 10
-77.7798
 20
47.2594
 10
-78.0729
 20
47.1468
 10
-78.3763
 20
47.0656
 10
-78.6864
 20
47.0164
 10
-79
 20
47
  0
LWPOLYLINE
100
AcDbEntity
  8
0
100
AcDbPolyline
 90
60
 70
1
 10
78.6864
 20
47.0164
 10
78.3763
 20
47.0656
 10
78.0729
 20
47.1468
 10
77.7798
 20
47.2594
 10
77.5
 20
47.4019
 10
77.2366
 20
47.5729
 10
76.9926
 20
47.7706
 10
76.7706
 20
47.9926
 10
76.5729
 20
48.2366
 10
76.4019
 20
48.5
 10
76.2594
 20
48.7798
 10
76.1468
 20
49.0729
 10
76.0656
 20
49.3763
 10
76.0164
 20
49.6864
 10
76
 20
50
 10
76.0164
 20
50.3136
 10
76.0656
 20
50.6237
 10
76.1468
 20
50.9271
 10
76.2594
 20
51.2202
 10
76.4019
 20
51.5
 10
76.5729
 20
51.7634
 10
76.7706
 20
52.0074
 10
76.9926
 20
52.2294
 10
77.2366
 20
52.4271
 10
77.5
 20
52.5981
 10
77.7798
 20
52.7406
 10
78.0729
 20
52.8532
 10
78.3763
 20
52.9344
 10
78.6864
 20
52.9836
 10
79
 20
53
 10
79.3136
 20
52.9836
 10
79.6237
 20
52.9344
 10
79.9271
 20
52.8532
 10
80.2202
 20
52.7406
 10
80.5
 20
52.5981
 10
80.7634
 20
52.4271
 10
81.0074
 20
52.2294
 10
81.2294
 20
52.0074
 10
81.4271
 20
51.7634
 10
81.5981
 20
51.5
 10
81.7406
 20
51.2202
 10
81.8532
 20
50.9271
 10
81.9344
 20
50.6237
 10
81.9836
 20
50.3136
 10
82
 20
50
 10
81.9836
 20
49.6864
 10
81.9344
 20
49.3763
 10
81.8532
 20
49.0729
 10
81.7406
 20
48.7798
 10
81.5981
 20
48.5
 10
81.4271
 20
48.2366
 10
81.2294
 20
47.9926
 10
81.0074
 20
47.7706
 10
80.7634
 20
47.5729
 10
80.5
 20
47.4019
 10
80.2202
 20
47.2594
 10
79.9271
 20
47.1468
 10
79.6237
 20
47.0656
 10
79.3136
 20
47.0164
 10
79
 20
47
  0
LWPOLYLINE
100
AcDbEntity
  8
0
100
AcDbPolyline
 90
60
 70
1
 10
100.686
 20
47.0164
 10
100.376
 20
47.0656
 10
100.073
 20
47.1468
 10
99.7798
 20
47.2594
 10
99.5
 20
47.4019
 10
99.2366
 20
47.5729
 10
98.9926
 20
47.7706
 10
98.7706
 20
47.9926
 10
98.5729
 20
48.2366
 10
98.4019
 20
48.5
 10
98.2594
 20
48.7798
 10
98.1468
 20
49.0729
 10
98.0656
 20
49.3763
 10
98.0164
 20
49.6864
 10
98
 20
50
 10
98.0164
 20
50.3136
 10
98.0656
 20
50.6237
 10
98.1468
 20
50.9271
 10
98.2594
 20
51.2202
 10
98.4019
 20
51.5
 10
98.5729
 20
51.7634
 10
98.7706
 20
52.0074
 10
98.9926
 20
52.2294
 10
99.2366
 20
52.4271
 10
99.5
 20
52.5981
 10
99.7798
 20
52.7406
 10
100.073
 20
52.8532
 10
100.376
 20
52.9344
 10
100.686
 20
52.9836
 10
101
 20
53
 10
101.314
 20
52.9836
 10
101.624
 20
52.9344
 10
101.927
 20
52.8532
 10
102.22
 20
52.7406
 10
102.5
 20
52.5981
 10
102.763
 20
52.4271
 10
103.007
 20
52.2294
 10
103.229
 20
52.0074
 10
103.427
 20
51.7634
 10
103.598
 20
51.5
 10
103.741
 20
51.2202
 10
103.853
 20
50.9271
 10
103.934
 20
50.6237
 10
103.984
 20
50.3136
 10
104
 20
50
 10
103.984
 20
49.6864
 10
103.934
 20
49.3763
 10
103.853
 20
49.0729
 10
103.741
 20
48.7798
 10
103.598
 20
48.5
 10
103.427
 20
48.2366
 10
103.229
 20
47.9926
 10
103.007
 20
47.7706
 10
102.763
 20
47.5729
 10
102.5
 20
47.4019
 10
102.22
 20
47.2594
 10
101.927
 20
47.1468
 10
101.624
 20
47.0656
 10
101.314
 20
47.0164
 10
101
 20
47
  0
LWPOLYLINE
100
AcDbEntity
  8
0
100
AcDbPolyline
 90
60
 70
1
 10
-101.314
 20
-52.9836
 10
-101.624
 20
-52.9344
 10
-101.927
 20
-52.8532
 10
-102.22
 20
-52.7406
 10
-102.5
 20
-52.5981
 10
-102.763
 20
-52.4271
 10
-103.007
 20
-52.2294
 10
-103.229
 20
-52.0074
 10
-103.427
 20
-51.7634
 10
-103.598
 20
-51.5
 10
-103.741
 20
-51.2202
 10
-103.853
 20
-50.9271
 10
-103.934
 20
-50.6237
 10
-103.984
 20
-50.3136
 10
-104
 20
-50
 10
-103.984
 20
-49.6864
 10
-103.934
 20
-49.3763
 10
-103.853
 20
-49.0729
 10
-103.741
 20
-48.7798
 10
-103.598
 20
-48.5
 10
-103.427
 20
-48.2366
 10
-103.229
 20
-47.9926
 10
-103.007
 20
-47.7706
 10
-102.763
 20
-47.5729
 10
-102.5
 20
-47.4019
 10
-102.22
 20
-47.2594
 10
-101.927
 20
-47.1468
 10
-101.624
 20
-47.0656
 10
-101.314
 20
-47.0164
 10
-101
 20
-47
 10
-100.686
 20
-47.0164
 10
-100.376
 20
-47.0656
 10
-100.073
 20
-47.1468
 10
-99.7798
 20
-47.2594
 10
-99.5
 20
-47.4019
 10
-99.2366
 20
-47.5729
 10
-98.9926
 20
-47.7706
 10
-98.7706
 20
-47.9926
 10
-98.5729
 20
-48.2366
 10
-98.4019
 20
-48.5
 10
-98.2594
 20
-48.7798
 10
-98.1468
 20
-49.0729
 10
-98.0656
 20
-49.3763
 10
-98.0164
 20
-49.6864
 10
-98
 20
-50
 10
-98.0164
 20
-50.3136
 10
-98.0656
 20
-50.6237
 10
-98.1468
 20
-50.9271
 10
-98.2594
 20
-51.2202
 10
-98.4019
 20
-51.5
 10
-98.5729
 20
-51.7634
 10
-98.7706
 20
-52.0074
 10
-98.9926
 20
-52.2294
 10
-99.2366
 20
-52.4271
 10
-99.5
 20
-52.5981
 10
-99.7798
 20
-52.7406
 10
-100.073
 20
-52.8532
 10
-100.376
 20
-52.9344
 10
-100.686
 20
-52.9836
 10
-101
 20
-53
  0
LWPOLYLINE
100
AcDbEntity
  8
0
100
AcDbPolyline
 90
60
 70
1
 10
-79.3136
 20
-52.9836
 10
-79.6237
 20
-52.9344
 10
-79.9271
 20
-52.8532
 10
-80.2202
 20
-52.7406
 10
-80.5
 20
-52.5981
 10
-80.7634
 20
-52.4271
 10
-81.0074
 20
-52.2294
 10
-81.2294
 20
-52.0074
 10
-81.4271
 20
-51.7634
 10
-81.5981
 20
-51.5
 10
-81.7406
 20
-51.2202
 10
-81.8532
 20
-50.9271
 10
-81.9344
 20
-50.6237
 10
-81.9836
 20
-50.3136
 10
-82
 20
-50
 10
-81.9836
 20
-49.6864
 10
-81.9344
 20
-49.3763
 10
-81.8532
 20
-49.0729
 10
-81.7406
 20
-48.7798
 10
-81.5981
 20
-48.5
 10
-81.4271
 20
-48.2366
 10
-81.2294
 20
-47.9926
 10
-81.0074
 20
-47.7706
 10
-80.7634
 20
-47.5729
 10
-80.5
 20
-47.4019
 10
-80.2202
 20
-47.2594
 10
-79.9271
 20
-47.1468
 10
-79.6237
 20
-47.0656
 10
-79.3136
 20
-47.0164
 10
-79
 20
-47
 10
-78.6864
 20
-47.0164
 10
-78.3763
 20
-47.0656
 10
-78.0729
 20
-47.1468
 10
-77.7798
 20
-47.2594
 10
-77.5
 20
-47.4019
 10
-77.2366
 20
-47.5729
 10
-76.9926
 20
-47.7706
 10
-76.7706
 20
-47.9926
 10
-76.5729
 20
-48.2366
 10
-76.4019
 20
-48.5
 10
-76.2594
 20
-48.7798
 10
-76.1468
 20
-49.0729
 10
-76.0656
 20
-49.3763
 10
-76.0164
 20
-49.6864
 10
-76
 20
-50
 10
-76.0164
 20
-50.3136
 10
-76.0656
 20
-50.6237
 10
-76.1468
 20
-50.9271
 10
-76.2594
 20
-51.2202
 10
-76.4019
 20
-51.5
 10
-76.5729
 20
-51.7634
 10
-76.7706
 20
-52.0074
 10
-76.9926
 20
-52.2294
 10
-77.2366
 20
-52.4271
 10
-77.5
 20
-52.5981
 10
-77.7798
 20
-52.7406
 10
-78.0729
 20
-52.8532
 10
-78.3763
 20
-52.9344
 10
-78.6864
 20
-52.9836
 10
-79
 20
-53
  0
LWPOLYLINE
100
AcDbEntity
  8
0
100
AcDbPolyline
 90
60
 70
1
 10
78.6864
 20
-52.9836
 10
78.3763
 20
-52.9344
 10
78.0729
 20
-52.8532
 10
77.7798
 20
-52.7406
 10
77.5
 20
-52.5981
 10
77.2366
 20
-52.4271
 10
76.9926
 20
-52.2294
 10
76.7706
 20
-52.0074
 10
76.5729
 20
-51.7634
 10
76.4019
 20
-51.5
 10
76.2594
 20
-51.2202
 10
76.1468
 20
-50.9271
 10
76.0656
 20
-50.6237
 10
76.0164
 20
-50.3136
 10
76
 20
-50
 10
76.0164
 20
-49.6864
 10
76.0656
 20
-49.3763
 10
76.1468
 20
-49.0729
 10
76.2594
 20
-48.7798
 10
76.4019
 20
-48.5
 10
76.5729
 20
-48.2366
 10
76.7706
 20
-47.9926
 10
76.9926
 20
-47.7706
 10
77.2366
 20
-47.5729
 10
77.5
 20
-47.4019
 10
77.7798
 20
-47.2594
 10
78.0729
 20
-47.1468
 10
78.3763
 20
-47.0656
 10
78.6864
 20
-47.0164
 10
79
 20
-47
 10
79.3136
 20
-47.0164
 10
79.6237
 20
-47.0656
 10
79.9271
 20
-47.1468
 10
80.2202
 20
-47.2594
 10
80.5
 20
-47.4019
 10
80.7634
 20
-47.5729
 10
81.0074
 20
-47.7706
 10
81.2294
 20
-47.9926
 10
81.4271
 20
-48.2366
 10
81.5981
 20
-48.5
 10
81.7406
 20
-48.7798
 10
81.8532
 20
-49.0729
 10
81.9344
 20
-49.3763
 10
81.9836
 20
-49.6864
 10
82
 20
-50
 10
81.9836
 20
-50.3136
 10
81.9344
 20
-50.6237
 10
81.8532
 20
-50.9271
 10
81.7406
 20
-51.2202
 10
81.5981
 20
-51.5
 10
81.4271
 20
-51.7634
 10
81.2294
 20
-52.0074
 10
81.0074
 20
-52.2294
 10
80.7634
 20
-52.4271
 10
80.5
 20
-52.5981
 10
80.2202
 20
-52.7406
 10
79.9271
 20
-52.8532
 10
79.6237
 20
-52.9344
 10
79.3136
 20
-52.9836
 10
79
 20
-53
  0
LWPOLYLINE
100
AcDbEntity
  8
0
100
AcDbPolyline
 90
60
 70
1
 10
100.686
 20
-52.9836
 10
100.376
 20
-52.9344
 10
100.073
 20
-52.8532
 10
99.7798
 20
-52.7406
 10
99.5
 20
-52.5981
 10
99.2366
 20
-52.4271
 10
98.9926
 20
-52.2294
 10
98.7706
 20
-52.0074
 10
98.5729
 20
-51.7634
 10
98.4019
 20
-51.5
 10
98.2594
 20
-51.2202
 10
98.1468
 20
-50.9271
 10
98.0656
 20
-50.6237
 10
98.0164
 20
-50.3136
 10
98
 20
-50
 10
98.0164
 20
-49.6864
 10
98.0656
 20
-49.3763
 10
98.1468
 20
-49.0729
 10
98.2594
 20
-48.7798
 10
98.4019
 20
-48.5
 10
98.5729
 20
-48.2366
 10
98.7706
 20
-47.9926
 10
98.9926
 20
-47.7706
 10
99.2366
 20
-47.5729
 10
99.5
 20
-47.4019
 10
99.7798
 20
-47.2594
 10
100.073
 20
-47.1468
 10
100.376
 20
-47.0656
 10
100.686
 20
-47.0164
 10
101
 20
-47
 10
101.314
 20
-47.0164
 10
101.624
 20
-47.0656
 10
101.927
 20
-47.1468
 10
102.22
 20
-47.2594
 10
102.5
 20
-47.4019
 10
102.763
 20
-47.5729
 10
103.007
 20
-47.7706
 10
103.229
 20
-47.9926
 10
103.427
 20
-48.2366
 10
103.598
 20
-48.5
 10
103.741
 20
-48.7798
 10
103.853
 20
-49.0729
 10
103.934
 20
-49.3763
 10
103.984
 20
-49.6864
 10
104
 20
-50
 10
103.984
 20
-50.3136
 10
103.934
 20
-50.6237
 10
103.853
 20
-50.9271
 10
103.741
 20
-51.2202
 10
103.598
 20
-51.5
 10
103.427
 20
-51.7634
 10
103.229
 20
-52.0074
 10
103.007
 20
-52.2294
 10
102.763
 20
-52.4271
 10
102.5
 20
-52.5981
 10
102.22
 20
-52.7406
 10
101.927
 20
-52.8532
 10
101.624
 20
-52.9344
 10
101.314
 20
-52.9836
 10
101
 20
-53
  0
LWPOLYLINE
100
AcDbEntity
  8
0
100
AcDbPolyline
 90
60
 70
1
 10
-101.314
 20
-152.984
 10
-101.624
 20
-152.934
 10
-101.927
 20
-152.853
 10
-102.22
 20
-152.741
 10
-102.5
 20
-152.598
 10
-102.763
 20
-152.427
 10
-103.007
 20
-152.229
 10
-103.229
 20
-152.007
 10
-103.427
 20
-151.763
 10
-103.598
 20
-151.5
 10
-103.741
 20
-151.22
 10
-103.853
 20
-150.927
 10
-103.934
 20
-150.624
 10
-103.984
 20
-150.314
 10
-104
 20
-150
 10
-103.984
 20
-149.686
 10
-103.934
 20
-149.376
 10
-103.853
 20
-149.073
 10
-103.741
 20
-148.78
 10
-103.598
 20
-148.5
 10
-103.427
 20
-148.237
 10
-103.229
 20
-147.993
 10
-103.007
 20
-147.771
 10
-102.763
 20
-147.573
 10
-102.5
 20
-147.402
 10
-102.22
 20
-147.259
 10
-101.927
 20
-147.147
 10
-101.624
 20
-147.066
 10
-101.314
 20
-147.016
 10
-101
 20
-147
 10
-100.686
 20
-147.016
 10
-100.376
 20
-147.066
 10
-100.073
 20
-147.147
 10
-99.7798
 20
-147.259
 10
-99.5
 20
-147.402
 10
-99.2366
 20
-147.573
 10
-98.9926
 20
-147.771
 10
-98.7706
 20
-147.993
 10
-98.5729
 20
-148.237
 10
-98.4019
 20
-148.5
 10
-98.2594
 20
-148.78
 10
-98.1468
 20
-149.073
 10
-98.0656
 20
-149.376
 10
-98.0164
 20
-149.686
 10
-98
 20
-150
 10
-98.0164
 20
-150.314
 10
-98.0656
 20
-150.624
 10
-98.1468
 20
-150.927
 10
-98.2594
 20
-151.22
 10
-98.4019
 20
-151.5
 10
-98.5729
 20
-151.763
 10
-98.7706
 20
-152.007
 10
-98.9926
 20
-152.229
 10
-99.2366
 20
-152.427
 10
-99.5
 20
-152.598
 10
-99.7798
 20
-152.741
 10
-100.073
 20
-152.853
 10
-100.376
 20
-152.934
 10
-100.686
 20
-152.984
 10
-101
 20
-153
  0
LWPOLYLINE
100
AcDbEntity
  8
0
100
AcDbPolyline
 90
60
 70
1
 10
-79.3136
 20
-152.984
 10
-79.6237
 20
-152.934
 10
-79.9271
 20
-152.853
 10
-80.2202
 20
-152.741
 10
-80.5
 20
-152.598
 10
-80.7634
 20
-152.427
 10
-81.0074
 20
-152.229
 10
-81.2294
 20
-152.007
 10
-81.4271
 20
-151.763
 10
-81.5981
 20
-151.5
 10
-81.7406
 20
-151.22
 10
-81.8532
 20
-150.927
 10
-81.9344
 20
-150.624
 10
-81.9836
 20
-150.314
 10
-82
 20
-150
 10
-81.9836
 20
-149.686
 10
-81.9344
 20
-149.376
 10
-81.8532
 20
-149.073
 10
-81.7406
 20
-148.78
 10
-81.5981
 20
-148.5
 10
-81.4271
 20
-148.237
 10
-81.2294
 20
-147.993
 10
-81.0074
 20
-147.771
 10
-80.7634
 20
-147.573
 10
-80.5
 20
-147.402
 10
-80.2202
 20
-147.259
 10
-79.9271
 20
-147.147
 10
-79.6237
 20
-147.066
 10
-79.3136
 20
-147.016
 10
-79
 20
-147
 10
-78.6864
 20
-147.016
 10
-78.3763
 20
-147.066
 10
-78.0729
 20
-147.147
 10
-77.7798
 20
-147.259
 10
-77.5
 20
-147.402
 10
-77.2366
 20
-147.573
 10
-76.9926
 20
-147.771
 10
-76.7706
 20
-147.993
 10
-76.5729
 20
-148.237
 10
-76.4019
 20
-148.5
 10
-76.2594
 20
-148.78
 10
-76.1468
 20
-149.073
 10
-76.0656
 20
-149.376
 10
-76.0164
 20
-149.686
 10
-76
 20
-150
 10
-76.0164
 20
-150.314
 10
-76.0656
 20
-150.624
 10
-76.1468
 20
-150.927
 10
-76.2594
 20
-151.22
 10
-76.4019
 20
-151.5
 10
-76.5729
 20
-151.763
 10
-76.7706
 20
-152.007
 10
-76.9926
 20
-152.229
 10
-77.2366
 20
-152.427
 10
-77.5
 20
-152.598
 10
-77.7798
 20
-152.741
 10
-78.0729
 20
-152.853
 10
-78.3763
 20
-152.934
 10
-78.6864
 20
-152.984
 10
-79
 20
-153
  0
LWPOLYLINE
100
AcDbEntity
  8
0
100
AcDbPolyline
 90
60
 70
1
 10
78.6864
 20
-152.984
 10
78.3763
 20
-152.934
 10
78.0729
 20
-152.853
 10
77.7798
 20
-152.741
 10
77.5
 20
-152.598
 10
77.2366
 20
-152.427
 10
76.9926
 20
-152.229
 10
76.7706
 20
-152.007
 10
76.5729
 20
-151.763
 10
76.4019
 20
-151.5
 10
76.2594
 20
-151.22
 10
76.1468
 20
-150.927
 10
76.0656
 20
-150.624
 10
76.0164
 20
-150.314
 10
76
 20
-150
 10
76.0164
 20
-149.686
 10
76.0656
 20
-149.376
 10
76.1468
 20
-149.073
 10
76.2594
 20
-148.78
 10
76.4019
 20
-148.5
 10
76.5729
 20
-148.237
 10
76.7706
 20
-147.993
 10
76.9926
 20
-147.771
 10
77.2366
 20
-147.573
 10
77.5
 20
-147.402
 10
77.7798
 20
-147.259
 10
78.0729
 20
-147.147
 10
78.3763
 20
-147.066
 10
78.6864
 20
-147.016
 10
79
 20
-147
 10
79.3136
 20
-147.016
 10
79.6237
 20
-147.066
 10
79.9271
 20
-147.147
 10
80.2202
 20
-147.259
 10
80.5
 20
-147.402
 10
80.7634
 20
-147.573
 10
81.0074
 20
-147.771
 10
81.2294
 20
-147.993
 10
81.4271
 20
-148.237
 10
81.5981
 20
-148.5
 10
81.7406
 20
-148.78
 10
81.8532
 20
-149.073
 10
81.9344
 20
-149.376
 10
81.9836
 20
-149.686
 10
82
 20
-150
 10
81.9836
 20
-150.314
 10
81.9344
 20
-150.624
 10
81.8532
 20
-150.927
 10
81.7406
 20
-151.22
 10
81.5981
 20
-151.5
 10
81.4271
 20
-151.763
 10
81.2294
 20
-152.007
 10
81.0074
 20
-152.229
 10
80.7634
 20
-152.427
 10
80.5
 20
-152.598
 10
80.2202
 20
-152.741
 10
79.9271
 20
-152.853
 10
79.6237
 20
-152.934
 10
79.3136
 20
-152.984
 10
79
 20
-153
  0
LWPOLYLINE
100
AcDbEntity
  8
0
100
AcDbPolyline
 90
60
 70
1
 10
100.686
 20
-152.984
 10
100.376
 20
-152.934
 10
100.073
 20
-152.853
 10
99.7798
 20
-152.741
 10
99.5
 20
-152.598
 10
99.2366
 20
-152.427
 10
98.9926
 20
-152.229
 10
98.7706
 20
-152.007
 10
98.5729
 20
-151.763
 10
98.4019
 20
-151.5
 10
98.2594
 20
-151.22
 10
98.1468
 20
-150.927
 10
98.0656
 20
-150.624
 10
98.0164
 20
-150.314
 10
98
 20
-150
 10
98.0164
 20
-149.686
 10
98.0656
 20
-149.376
 10
98.1468
 20
-149.073
 10
98.2594
 20
-148.78
 10
98.4019
 20
-148.5
 10
98.5729
 20
-148.237
 10
98.7706
 20
-147.993
 10
98.9926
 20
-147.771
 10
99.2366
 20
-147.573
 10
99.5
 20
-147.402
 10
99.7798
 20
-147.259
 10
100.073
 20
-147.147
 10
100.376
 20
-147.066
 10
100.686
 20
-147.016
 10
101
 20
-147
 10
101.314
 20
-147.016
 10
101.624
 20
-147.066
 10
101.927
 20
-147.147
 10
102.22
 20
-147.259
 10
102.5
 20
-147.402
 10
102.763
 20
-147.573
 10
103.007
 20
-147.771
 10
103.229
 20
-147.993
 10
103.427
 20
-148.237
 10
103.598
 20
-148.5
 10
103.741
 20
-148.78
 10
103.853
 20
-149.073
 10
103.934
 20
-149.376
 10
103.984
 20
-149.686
 10
104
 20
-150
 10
103.984
 20
-150.314
 10
103.934
 20
-150.624
 10
103.853
 20
-150.927
 10
103.741
 20
-151.22
 10
103.598
 20
-151.5
 10
103.427
 20
-151.763
 10
103.229
 20
-152.007
 10
103.007
 20
-152.229
 10
102.763
 20
-152.427
 10
102.5
 20
-152.598
 10
102.22
 20
-152.741
 10
101.927
 20
-152.853
 10
101.624
 20
-152.934
 10
101.314
 20
-152.984
 10
101
 20
-153
  0
LWPOLYLINE
100
AcDbEntity
  8
0
100
AcDbPolyline
 90
60
 70
1
 10
-140.418
 20
-243.978
 10
-140.832
 20
-243.913
 10
-141.236
 20
-243.804
 10
-141.627
 20
-243.654
 10
-142
 20
-243.464
 10
-142.351
 20
-243.236
 10
-142.677
 20
-242.973
 10
-142.973
 20
-242.677
 10
-143.236
 20
-242.351
 10
-143.464
 20
-242
 10
-143.654
 20
-241.627
 10
-143.804
 20
-241.236
 10
-143.913
 20
-240.832
 10
-143.978
 20
-240.418
 10
-144
 20
-240
 10
-143.978
 20
-239.582
 10
-143.913
 20
-239.168
 10
-143.804
 20
-238.764
 10
-143.654
 20
-238.373
 10
-143.464
 20
-238
 10
-143.236
 20
-237.649
 10
-142.973
 20
-237.323
 10
-142.677
 20
-237.027
 10
-142.351
 20
-236.764
 10
-142
 20
-236.536
 10
-141.627
 20
-236.346
 10
-141.236
 20
-236.196
 10
-140.832
 20
-236.087
 10
-140.418
 20
-236.022
 10
-140
 20
-236
 10
-139.582
 20
-236.022
 10
-139.168
 20
-236.087
 10
-138.764
 20
-236.196
 10
-138.373
 20
-236.346
 10
-138
 20
-236.536
 10
-137.649
 20
-236.764
 10
-137.323
 20
-237.027
 10
-137.027
 20
-237.323
 10
-136.764
 20
-237.649
 10
-136.536
 20
-238
 10
-136.346
 20
-238.373
 10
-136.196
 20
-238.764
 10
-136.087
 20
-239.168
 10
-136.022
 20
-239.582
 10
-136
 20
-240
 10
-136.022
 20
-240.418
 10
-136.087
 20
-240.832
 10
-136.196
 20
-241.236
 10
-136.346
 20
-241.627
 10
-136.536
 20
-242
 10
-136.764
 20
-242.351
 10
-137.027
 20
-242.677
 10
-137.323
 20
-242.973
 10
-137.649
 20
-243.236
 10
-138
 20
-243.464
 10
-138.373
 20
-243.654
 10
-138.764
 20
-243.804
 10
-139.168
 20
-243.913
 10
-139.582
 20
-243.978
 10
-140
 20
-244
  0
LWPOLYLINE
100
AcDbEntity
  8
0
100
AcDbPolyline
 90
60
 70
1
 10
139.582
 20
-243.978
 10
139.168
 20
-243.913
 10
138.764
 20
-243.804
 10
138.373
 20
-243.654
 10
138
 20
-243.464
 10
137.649
 20
-243.236
 10
137.323
 20
-242.973
 10
137.027
 20
-242.677
 10
136.764
 20
-242.351
 10
136.536
 20
-242
 10
136.346
 20
-241.627
 10
136.196
 20
-241.236
 10
136.087
 20
-240.832
 10
136.022
 20
-240.418
 10
136
 20
-240
 10
136.022
 20
-239.582
 10
136.087
 20
-239.168
 10
136.196
 20
-238.764
 10
136.346
 20
-238.373
 10
136.536
 20
-238
 10
136.764
 20
-237.649
 10
137.027
 20
-237.323
 10
137.323
 20
-237.027
 10
137.649
 20
-236.764
 10
138
 20
-236.536
 10
138.373
 20
-236.346
 10
138.764
 20
-236.196
 10
139.168
 20
-236.087
 10
139.582
 20
-236.022
 10
140
 20
-236
 10
140.418
 20
-236.022
 10
140.832
 20
-236.087
 10
141.236
 20
-236.196
 10
141.627
 20
-236.346
 10
142
 20
-236.536
 10
142.351
 20
-236.764
 10
142.677
 20
-237.027
 10
142.973
 20
-237.323
 10
143.236
 20
-237.649
 10
143.464
 20
-238
 10
143.654
 20
-238.373
 10
143.804
 20
-238.764
 10
143.913
 20
-239.168
 10
143.978
 20
-239.582
 10
144
 20
-240
 10
143.978
 20
-240.418
 10
143.913
 20
-240.832
 10
143.804
 20
-241.236
 10
143.654
 20
-241.627
 10
143.464
 20
-242
 10
143.236
 20
-242.351
 10
142.973
 20
-242.677
 10
142.677
 20
-242.973
 10
142.351
 20
-243.236
 10
142
 20
-243.464
 10
141.627
 20
-243.654
 10
141.236
 20
-243.804
 10
140.832
 20
-243.913
 10
140.418
 20
-243.978
 10
140
 20
-244
  0
LWPOLYLINE
100
AcDbEntity
  8
0
100
AcDbPolyline
 90
60
 70
1
 10
-101.314
 20
-252.984
 10
-101.624
 20
-252.934
 10
-101.927
 20
-252.853
 10
-102.22
 20
-252.741
 10
-102.5
 20
-252.598
 10
-102.763
 20
-252.427
 10
-103.007
 20
-252.229
 10
-103.229
 20
-252.007
 10
-103.427
 20
-251.763
 10
-103.598
 20
-251.5
 10
-103.741
 20
-251.22
 10
-103.853
 20
-250.927
 10
-103.934
 20
-250.624
 10
-103.984
 20
-250.314
 10
-104
 20
-250
 10
-103.984
 20
-249.686
 10
-103.934
 20
-249.376
 10
-103.853
 20
-249.073
 10
-103.741
 20
-248.78
 10
-103.598
 20
-248.5
 10
-103.427
 20
-248.237
 10
-103.229
 20
-247.993
 10
-103.007
 20
-247.771
 10
-102.763
 20
-247.573
 10
-102.5
 20
-247.402
 10
-102.22
 20
-247.259
 10
-101.927
 20
-247.147
 10
-101.624
 20
-247.066
 10
-101.314
 20
-247.016
 10
-101
 20
-247
 10
-100.686
 20
-247.016
 10
-100.376
 20
-247.066
 10
-100.073
 20
-247.147
 10
-99.7798
 20
-247.259
 10
-99.5
 20
-247.402
 10
-99.2366
 20
-247.573
 10
-98.9926
 20
-247.771
 10
-98.7706
 20
-247.993
 10
-98.5729
 20
-248.237
 10
-98.4019
 20
-248.5
 10
-98.2594
 20
-248.78
 10
-98.1468
 20
-249.073
 10
-98.0656
 20
-249.376
 10
-98.0164
 20
-249.686
 10
-98
 20
-250
 10
-98.0164
 20
-250.314
 10
-98.0656
 20
-250.624
 10
-98.1468
 20
-250.927
 10
-98.2594
 20
-251.22
 10
-98.4019
 20
-251.5
 10
-98.5729
 20
-251.763
 10
-98.7706
 20
-252.007
 10
-98.9926
 20
-252.229
 10
-99.2366
 20
-252.427
 10
-99.5
 20
-252.598
 10
-99.7798
 20
-252.741
 10
-100.073
 20
-252.853
 10
-100.376
 20
-252.934
 10
-100.686
 20
-252.984
 10
-101
 20
-253
  0
LWPOLYLINE
100
AcDbEntity
  8
0
100
AcDbPolyline
 90
60
 70
1
 10
-79.3136
 20
-252.984
 10
-79.6237
 20
-252.934
 10
-79.9271
 20
-252.853
 10
-80.2202
 20
-252.741
 10
-80.5
 20
-252.598
 10
-80.7634
 20
-252.427
 10
-81.0074
 20
-252.229
 10
-81.2294
 20
-252.007
 10
-81.4271
 20
-251.763
 10
-81.5981
 20
-251.5
 10
-81.7406
 20
-251.22
 10
-81.8532
 20
-250.927
 10
-81.9344
 20
-250.624
 10
-81.9836
 20
-250.314
 10
-82
 20
-250
 10
-81.9836
 20
-249.686
 10
-81.9344
 20
-249.376
 10
-81.8532
 20
-249.073
 10
-81.7406
 20
-248.78
 10
-81.5981
 20
-248.5
 10
-81.4271
 20
-248.237
 10
-81.2294
 20
-247.993
 10
-81.0074
 20
-247.771
 10
-80.7634
 20
-247.573
 10
-80.5
 20
-247.402
 10
-80.2202
 20
-247.259
 10
-79.9271
 20
-247.147
 10
-79.6237
 20
-247.066
 10
-79.3136
 20
-247.016
 10
-79
 20
-247
 10
-78.6864
 20
-247.016
 10
-78.3763
 20
-247.066
 10
-78.0729
 20
-247.147
 10
-77.7798
 20
-247.259
 10
-77.5
 20
-247.402
 10
-77.2366
 20
-247.573
 10
-76.9926
 20
-247.771
 10
-76.7706
 20
-247.993
 10
-76.5729
 20
-248.237
 10
-76.4019
 20
-248.5
 10
-76.2594
 20
-248.78
 10
-76.1468
 20
-249.073
 10
-76.0656
 20
-249.376
 10
-76.0164
 20
-249.686
 10
-76
 20
-250
 10
-76.0164
 20
-250.314
 10
-76.0656
 20
-250.624
 10
-76.1468
 20
-250.927
 10
-76.2594
 20
-251.22
 10
-76.4019
 20
-251.5
 10
-76.5729
 20
-251.763
 10
-76.7706
 20
-252.007
 10
-76.9926
 20
-252.229
 10
-77.2366
 20
-252.427
 10
-77.5
 20
-252.598
 10
-77.7798
 20
-252.741
 10
-78.0729
 20
-252.853
 10
-78.3763
 20
-252.934
 10
-78.6864
 20
-252.984
 10
-79
 20
-253
  0
LWPOLYLINE
100
AcDbEntity
  8
0
100
AcDbPolyline
 90
60
 70
1
 10
78.6864
 20
-252.984
 10
78.3763
 20
-252.934
 10
78.0729
 20
-252.853
 10
77.7798
 20
-252.741
 10
77.5
 20
-252.598
 10
77.2366
 20
-252.427
 10
76.9926
 20
-252.229
 10
76.7706
 20
-252.007
 10
76.5729
 20
-251.763
 10
76.4019
 20
-251.5
 10
76.2594
 20
-251.22
 10
76.1468
 20
-250.927
 10
76.0656
 20
-250.624
 10
76.0164
 20
-250.314
 10
76
 20
-250
 10
76.0164
 20
-249.686
 10
76.0656
 20
-249.376
 10
76.1468
 20
-249.073
 10
76.2594
 20
-248.78
 10
76.4019
 20
-248.5
 10
76.5729
 20
-248.237
 10
76.7706
 20
-247.993
 10
76.9926
 20
-247.771
 10
77.2366
 20
-247.573
 10
77.5
 20
-247.402
 10
77.7798
 20
-247.259
 10
78.0729
 20
-247.147
 10
78.3763
 20
-247.066
 10
78.6864
 20
-247.016
 10
79
 20
-247
 10
79.3136
 20
-247.016
 10
79.6237
 20
-247.066
 10
79.9271
 20
-247.147
 10
80.2202
 20
-247.259
 10
80.5
 20
-247.402
 10
80.7634
 20
-247.573
 10
81.0074
 20
-247.771
 10
81.2294
 20
-247.993
 10
81.4271
 20
-248.237
 10
81.5981
 20
-248.5
 10
81.7406
 20
-248.78
 10
81.8532
 20
-249.073
 10
81.9344
 20
-249.376
 10
81.9836
 20
-249.686
 10
82
 20
-250
 10
81.9836
 20
-250.314
 10
81.9344
 20
-250.624
 10
81.8532
 20
-250.927
 10
81.7406
 20
-251.22
 10
81.5981
 20
-251.5
 10
81.4271
 20
-251.763
 10
81.2294
 20
-252.007
 10
81.0074
 20
-252.229
 10
80.7634
 20
-252.427
 10
80.5
 20
-252.598
 10
80.2202
 20
-252.741
 10
79.9271
 20
-252.853
 10
79.6237
 20
-252.934
 10
79.3136
 20
-252.984
 10
79
 20
-253
  0
LWPOLYLINE
100
AcDbEntity
  8
0
100
AcDbPolyline
 90
60
 70
1
 10
100.686
 20
-252.984
 10
100.376
 20
-252.934
 10
100.073
 20
-252.853
 10
99.7798
 20
-252.741
 10
99.5
 20
-252.598
 10
99.2366
 20
-252.427
 10
98.9926
 20
-252.229
 10
98.7706
 20
-252.007
 10
98.5729
 20
-251.763
 10
98.4019
 20
-251.5
 10
98.2594
 20
-251.22
 10
98.1468
 20
-250.927
 10
98.0656
 20
-250.624
 10
98.0164
 20
-250.314
 10
98
 20
-250
 10
98.0164
 20
-249.686
 10
98.0656
 20
-249.376
 10
98.1468
 20
-249.073
 10
98.2594
 20
-248.78
 10
98.4019
 20
-248.5
 10
98.5729
 20
-248.237
 10
98.7706
 20
-247.993
 10
98.9926
 20
-247.771
 10
99.2366
 20
-247.573
 10
99.5
 20
-247.402
 10
99.7798
 20
-247.259
 10
100.073
 20
-247.147
 10
100.376
 20
-247.066
 10
100.686
 20
-247.016
 10
101
 20
-247
 10
101.314
 20
-247.016
 10
101.624
 20
-247.066
 10
101.927
 20
-247.147
 10
102.22
 20
-247.259
 10
102.5
 20
-247.402
 10
102.763
 20
-247.573
 10
103.007
 20
-247.771
 10
103.229
 20
-247.993
 10
103.427
 20
-248.237
 10
103.598
 20
-248.5
 10
103.741
 20
-248.78
 10
103.853
 20
-249.073
 10
103.934
 20
-249.376
 10
103.984
 20
-249.686
 10
104
 20
-250
 10
103.984
 20
-250.314
 10
103.934
 20
-250.624
 10
103.853
 20
-250.927
 10
103.741
 20
-251.22
 10
103.598
 20
-251.5
 10
103.427
 20
-251.763
 10
103.229
 20
-252.007
 10
103.007
 20
-252.229
 10
102.763
 20
-252.427
 10
102.5
 20
-252.598
 10
102.22
 20
-252.741
 10
101.927
 20
-252.853
 10
101.624
 20
-252.934
 10
101.314
 20
-252.984
 10
101
 20
-253
  0
LWPOLYLINE
100
AcDbEntity
  8
0
100
AcDbPolyline
 90
60
 70
1
 10
-23.3136
 20
-267.984
 10
-23.6237
 20
-267.934
 10
-23.9271
 20
-267.853
 10
-24.2202
 20
-267.741
 10
-24.5
 20
-267.598
 10
-24.7634
 20
-267.427
 10
-25.0074
 20
-267.229
 10
-25.2294
 20
-267.007
 10
-25.4271
 20
-266.763
 10
-25.5981
 20
-266.5
 10
-25.7406
 20
-266.22
 10
-25.8532
 20
-265.927
 10
-25.9344
 20
-265.624
 10
-25.9836
 20
-265.314
 10
-26
 20
-265
 10
-25.9836
 20
-264.686
 10
-25.9344
 20
-264.376
 10
-25.8532
 20
-264.073
 10
-25.7406
 20
-263.78
 10
-25.5981
 20
-263.5
 10
-25.4271
 20
-263.237
 10
-25.2294
 20
-262.993
 10
-25.0074
 20
-262.771
 10
-24.7634
 20
-262.573
 10
-24.5
 20
-262.402
 10
-24.2202
 20
-262.259
 10
-23.9271
 20
-262.147
 10
-23.6237
 20
-262.066
 10
-23.3136
 20
-262.016
 10
-23
 20
-262
 10
-22.6864
 20
-262.016
 10
-22.3763
 20
-262.066
 10
-22.0729
 20
-262.147
 10
-21.7798
 20
-262.259
 10
-21.5
 20
-262.402
 10
-21.2366
 20
-262.573
 10
-20.9926
 20
-262.771
 10
-20.7706
 20
-262.993
 10
-20.5729
 20
-263.237
 10
-20.4019
 20
-263.5
 10
-20.2594
 20
-263.78
 10
-20.1468
 20
-264.073
 10
-20.0656
 20
-264.376
 10
-20.0164
 20
-264.686
 10
-20
 20
-265
 10
-20.0164
 20
-265.314
 10
-20.0656
 20
-265.624
 10
-20.1468
 20
-265.927
 10
-20.2594
 20
-266.22
 10
-20.4019
 20
-266.5
 10
-20.5729
 20
-266.763
 10
-20.7706
 20
-267.007
 10
-20.9926
 20
-267.229
 10
-21.2366
 20
-267.427
 10
-21.5
 20
-267.598
 10
-21.7798
 20
-267.741
 10
-22.0729
 20
-267.853
 10
-22.3763
 20
-267.934
 10
-22.6864
 20
-267.984
 10
-23
 20
-268
  0
LWPOLYLINE
100
AcDbEntity
  8
0
100
AcDbPolyline
 90
60
 70
1
 10
22.6864
 20
-267.984
 10
22.3763
 20
-267.934
 10
22.0729
 20
-267.853
 10
21.7798
 20
-267.741
 10
21.5
 20
-267.598
 10
21.2366
 20
-267.427
 10
20.9926
 20
-267.229
 10
20.7706
 20
-267.007
 10
20.5729
 20
-266.763
 10
20.4019
 20
-266.5
 10
20.2594
 20
-266.22
 10
20.1468
 20
-265.927
 10
20.0656
 20
-265.624
 10
20.0164
 20
-265.314
 10
20
 20
-265
 10
20.0164
 20
-264.686
 10
20.0656
 20
-264.376
 10
20.1468
 20
-264.073
 10
20.2594
 20
-263.78
 10
20.4019
 20
-263.5
 10
20.5729
 20
-263.237
 10
20.7706
 20
-262.993
 10
20.9926
 20
-262.771
 10
21.2366
 20
-262.573
 10
21.5
 20
-262.402
 10
21.7798
 20
-262.259
 10
22.0729
 20
-262.147
 10
22.3763
 20
-262.066
 10
22.6864
 20
-262.016
 10
23
 20
-262
 10
23.3136
 20
-262.016
 10
23.6237
 20
-262.066
 10
23.9271
 20
-262.147
 10
24.2202
 20
-262.259
 10
24.5
 20
-262.402
 10
24.7634
 20
-262.573
 10
25.0074
 20
-262.771
 10
25.2294
 20
-262.993
 10
25.4271
 20
-263.237
 10
25.5981
 20
-263.5
 10
25.7406
 20
-263.78
 10
25.8532
 20
-264.073
 10
25.9344
 20
-264.376
 10
25.9836
 20
-264.686
 10
26
 20
-265
 10
25.9836
 20
-265.314
 10
25.9344
 20
-265.624
 10
25.8532
 20
-265.927
 10
25.7406
 20
-266.22
 10
25.5981
 20
-266.5
 10
25.4271
 20
-266.763
 10
25.2294
 20
-267.007
 10
25.0074
 20
-267.229
 10
24.7634
 20
-267.427
 10
24.5
 20
-267.598
 10
24.2202
 20
-267.741
 10
23.9271
 20
-267.853
 10
23.6237
 20
-267.934
 10
23.3136
 20
-267.984
 10
23
 20
-268
  0
ENDSEC
  0
EOF
