999
DXF from OpenSCAD
  0
SECTION
  2
HEADER
  9
$ACADVER
  1
AC1006
  9
$INSBASE
 10
0.0
 20
0.0
 30
0.0
  9
$EXTMIN
 10
-178
 20
-290
  9
$EXTMAX
 10
178
 20
290
  9
$LINMIN
 10
-178
 20
-290
  9
$LINMAX
 10
178
 20
290
  0
ENDSEC
  0
SECTION
  2
TABLES
  0
TABLE
  2
LTYPE
 70
1
  0
LTYPE
  2
CONTINUOUS
 70
64
  3
Solid line
 72
65
 73
0
 40
0.000000
  0
ENDTAB
  0
TABLE
  2
LAYER
 70
6
  0
LAYER
  2
0
 70
64
 62
7
  6
CONTINUOUS
  0
ENDTAB
  0
TABLE
  2
STYLE
 70
0
  0
ENDTAB
  0
ENDSEC
  0
SECTION
  2
BLOCKS
  0
ENDSEC
  0
SECTION
  2
ENTITIES
  0
LWPOLYLINE
100
AcDbEntity
  8
0
100
AcDbPolyline
 90
4
 70
1
 10
178
 20
290
 10
-178
 20
290
 10
-178
 20
-290
 10
178
 20
-290
  0
LWPOLYLINE
100
AcDbEntity
  8
0
100
AcDbPolyline
 90
60
 70
1
 10
-140.418
 20
246.022
 10
-140.832
 20
246.087
 10
-141.236
 20
246.196
 10
-141.627
 20
246.346
 10
-142
 20
246.536
 10
-142.351
 20
246.764
 10
-142.677
 20
247.027
 10
-142.973
 20
247.323
 10
-143.236
 20
247.649
 10
-143.464
 20
248
 10
-143.654
 20
248.373
 10
-143.804
 20
248.764
 10
-143.913
 20
249.168
 10
-143.978
 20
249.582
 10
-144
 20
250
 10
-143.978
 20
250.418
 10
-143.913
 20
250.832
 10
-143.804
 20
251.236
 10
-143.654
 20
251.627
 10
-143.464
 20
252
 10
-143.236
 20
252.351
 10
-142.973
 20
252.677
 10
-142.677
 20
252.973
 10
-142.351
 20
253.236
 10
-142
 20
253.464
 10
-141.627
 20
253.654
 10
-141.236
 20
253.804
 10
-140.832
 20
253.913
 10
-140.418
 20
253.978
 10
-140
 20
254
 10
-139.582
 20
253.978
 10
-139.168
 20
253.913
 10
-138.764
 20
253.804
 10
-138.373
 20
253.654
 10
-138
 20
253.464
 10
-137.649
 20
253.236
 10
-137.323
 20
252.973
 10
-137.027
 20
252.677
 10
-136.764
 20
252.351
 10
-136.536
 20
252
 10
-136.346
 20
251.627
 10
-136.196
 20
251.236
 10
-136.087
 20
250.832
 10
-136.022
 20
250.418
 10
-136
 20
250
 10
-136.022
 20
249.582
 10
-136.087
 20
249.168
 10
-136.196
 20
248.764
 10
-136.346
 20
248.373
 10
-136.536
 20
248
 10
-136.764
 20
247.649
 10
-137.027
 20
247.323
 10
-137.323
 20
247.027
 10
-137.649
 20
246.764
 10
-138
 20
246.536
 10
-138.373
 20
246.346
 10
-138.764
 20
246.196
 10
-139.168
 20
246.087
 10
-139.582
 20
246.022
 10
-140
 20
246
  0
LWPOLYLINE
100
AcDbEntity
  8
0
100
AcDbPolyline
 90
60
 70
1
 10
139.582
 20
246.022
 10
139.168
 20
246.087
 10
138.764
 20
246.196
 10
138.373
 20
246.346
 10
138
 20
246.536
 10
137.649
 20
246.764
 10
137.323
 20
247.027
 10
137.027
 20
247.323
 10
136.764
 20
247.649
 10
136.536
 20
248
 10
136.346
 20
248.373
 10
136.196
 20
248.764
 10
136.087
 20
249.168
 10
136.022
 20
249.582
 10
136
 20
250
 10
136.022
 20
250.418
 10
136.087
 20
250.832
 10
136.196
 20
251.236
 10
136.346
 20
251.627
 10
136.536
 20
252
 10
136.764
 20
252.351
 10
137.027
 20
252.677
 10
137.323
 20
252.973
 10
137.649
 20
253.236
 10
138
 20
253.464
 10
138.373
 20
253.654
 10
138.764
 20
253.804
 10
139.168
 20
253.913
 10
139.582
 20
253.978
 10
140
 20
254
 10
140.418
 20
253.978
 10
140.832
 20
253.913
 10
141.236
 20
253.804
 10
141.627
 20
253.654
 10
142
 20
253.464
 10
142.351
 20
253.236
 10
142.677
 20
252.973
 10
142.973
 20
252.677
 10
143.236
 20
252.351
 10
143.464
 20
252
 10
143.654
 20
251.627
 10
143.804
 20
251.236
 10
143.913
 20
250.832
 10
143.978
 20
250.418
 10
144
 20
250
 10
143.978
 20
249.582
 10
143.913
 20
249.168
 10
143.804
 20
248.764
 10
143.654
 20
248.373
 10
143.464
 20
248
 10
143.236
 20
247.649
 10
142.973
 20
247.323
 10
142.677
 20
247.027
 10
142.351
 20
246.764
 10
142
 20
246.536
 10
141.627
 20
246.346
 10
141.236
 20
246.196
 10
140.832
 20
246.087
 10
140.418
 20
246.022
 10
140
 20
246
  0
LWPOLYLINE
100
AcDbEntity
  8
0
100
AcDbPolyline
 90
60
 70
1
 10
-23.3136
 20
237.516
 10
-23.6237
 20
237.566
 10
-23.9271
 20
237.647
 10
-24.2202
 20
237.759
 10
-24.5
 20
237.902
 10
-24.7634
 20
238.073
 10
-25.0074
 20
238.271
 10
-25.2294
 20
238.493
 10
-25.4271
 20
238.737
 10
-25.5981
 20
239
 10
-25.7406
 20
239.28
 10
-25.8532
 20
239.573
 10
-25.9344
 20
239.876
 10
-25.9836
 20
240.186
 10
-26
 20
240.5
 10
-25.9836
 20
240.814
 10
-25.9344
 20
241.124
 10
-25.8532
 20
241.427
 10
-25.7406
 20
241.72
 10
-25.5981
 20
242
 10
-25.4271
 20
242.263
 10
-25.2294
 20
242.507
 10
-25.0074
 20
242.729
 10
-24.7634
 20
242.927
 10
-24.5
 20
243.098
 10
-24.2202
 20
243.241
 10
-23.9271
 20
243.353
 10
-23.6237
 20
243.434
 10
-23.3136
 20
243.484
 10
-23
 20
243.5
 10
-22.6864
 20
243.484
 10
-22.3763
 20
243.434
 10
-22.0729
 20
243.353
 10
-21.7798
 20
243.241
 10
-21.5
 20
243.098
 10
-21.2366
 20
242.927
 10
-20.9926
 20
242.729
 10
-20.7706
 20
242.507
 10
-20.5729
 20
242.263
 10
-20.4019
 20
242
 10
-20.2594
 20
241.72
 10
-20.1468
 20
241.427
 10
-20.0656
 20
241.124
 10
-20.0164
 20
240.814
 10
-20
 20
240.5
 10
-20.0164
 20
240.186
 10
-20.0656
 20
239.876
 10
-20.1468
 20
239.573
 10
-20.2594
 20
239.28
 10
-20.4019
 20
239
 10
-20.5729
 20
238.737
 10
-20.7706
 20
238.493
 10
-20.9926
 20
238.271
 10
-21.2366
 20
238.073
 10
-21.5
 20
237.902
 10
-21.7798
 20
237.759
 10
-22.0729
 20
237.647
 10
-22.3763
 20
237.566
 10
-22.6864
 20
237.516
 10
-23
 20
237.5
  0
LWPOLYLINE
100
AcDbEntity
  8
0
100
AcDbPolyline
 90
60
 70
1
 10
22.6864
 20
237.516
 10
22.3763
 20
237.566
 10
22.0729
 20
237.647
 10
21.7798
 20
237.759
 10
21.5
 20
237.902
 10
21.2366
 20
238.073
 10
20.9926
 20
238.271
 10
20.7706
 20
238.493
 10
20.5729
 20
238.737
 10
20.4019
 20
239
 10
20.2594
 20
239.28
 10
20.1468
 20
239.573
 10
20.0656
 20
239.876
 10
20.0164
 20
240.186
 10
20
 20
240.5
 10
20.0164
 20
240.814
 10
20.0656
 20
241.124
 10
20.1468
 20
241.427
 10
20.2594
 20
241.72
 10
20.4019
 20
242
 10
20.5729
 20
242.263
 10
20.7706
 20
242.507
 10
20.9926
 20
242.729
 10
21.2366
 20
242.927
 10
21.5
 20
243.098
 10
21.7798
 20
243.241
 10
22.0729
 20
243.353
 10
22.3763
 20
243.434
 10
22.6864
 20
243.484
 10
23
 20
243.5
 10
23.3136
 20
243.484
 10
23.6237
 20
243.434
 10
23.9271
 20
243.353
 10
24.2202
 20
243.241
 10
24.5
 20
243.098
 10
24.7634
 20
242.927
 10
25.0074
 20
242.729
 10
25.2294
 20
242.507
 10
25.4271
 20
242.263
 10
25.5981
 20
242
 10
25.7406
 20
241.72
 10
25.8532
 20
241.427
 10
25.9344
 20
241.124
 10
25.9836
 20
240.814
 10
26
 20
240.5
 10
25.9836
 20
240.186
 10
25.9344
 20
239.876
 10
25.8532
 20
239.573
 10
25.7406
 20
239.28
 10
25.5981
 20
239
 10
25.4271
 20
238.737
 10
25.2294
 20
238.493
 10
25.0074
 20
238.271
 10
24.7634
 20
238.073
 10
24.5
 20
237.902
 10
24.2202
 20
237.759
 10
23.9271
 20
237.647
 10
23.6237
 20
237.566
 10
23.3136
 20
237.516
 10
23
 20
237.5
  0
LWPOLYLINE
100
AcDbEntity
  8
0
100
AcDbPolyline
 90
60
 70
1
 10
-23.3136
 20
224.516
 10
-23.6237
 20
224.566
 10
-23.9271
 20
224.647
 10
-24.2202
 20
224.759
 10
-24.5
 20
224.902
 10
-24.7634
 20
225.073
 10
-25.0074
 20
225.271
 10
-25.2294
 20
225.493
 10
-25.4271
 20
225.737
 10
-25.5981
 20
226
 10
-25.7406
 20
226.28
 10
-25.8532
 20
226.573
 10
-25.9344
 20
226.876
 10
-25.9836
 20
227.186
 10
-26
 20
227.5
 10
-25.9836
 20
227.814
 10
-25.9344
 20
228.124
 10
-25.8532
 20
228.427
 10
-25.7406
 20
228.72
 10
-25.5981
 20
229
 10
-25.4271
 20
229.263
 10
-25.2294
 20
229.507
 10
-25.0074
 20
229.729
 10
-24.7634
 20
229.927
 10
-24.5
 20
230.098
 10
-24.2202
 20
230.241
 10
-23.9271
 20
230.353
 10
-23.6237
 20
230.434
 10
-23.3136
 20
230.484
 10
-23
 20
230.5
 10
-22.6864
 20
230.484
 10
-22.3763
 20
230.434
 10
-22.0729
 20
230.353
 10
-21.7798
 20
230.241
 10
-21.5
 20
230.098
 10
-21.2366
 20
229.927
 10
-20.9926
 20
229.729
 10
-20.7706
 20
229.507
 10
-20.5729
 20
229.263
 10
-20.4019
 20
229
 10
-20.2594
 20
228.72
 10
-20.1468
 20
228.427
 10
-20.0656
 20
228.124
 10
-20.0164
 20
227.814
 10
-20
 20
227.5
 10
-20.0164
 20
227.186
 10
-20.0656
 20
226.876
 10
-20.1468
 20
226.573
 10
-20.2594
 20
226.28
 10
-20.4019
 20
226
 10
-20.5729
 20
225.737
 10
-20.7706
 20
225.493
 10
-20.9926
 20
225.271
 10
-21.2366
 20
225.073
 10
-21.5
 20
224.902
 10
-21.7798
 20
224.759
 10
-22.0729
 20
224.647
 10
-22.3763
 20
224.566
 10
-22.6864
 20
224.516
 10
-23
 20
224.5
  0
LWPOLYLINE
100
AcDbEntity
  8
0
100
AcDbPolyline
 90
60
 70
1
 10
22.6864
 20
224.516
 10
22.3763
 20
224.566
 10
22.0729
 20
224.647
 10
21.7798
 20
224.759
 10
21.5
 20
224.902
 10
21.2366
 20
225.073
 10
20.9926
 20
225.271
 10
20.7706
 20
225.493
 10
20.5729
 20
225.737
 10
20.4019
 20
226
 10
20.2594
 20
226.28
 10
20.1468
 20
226.573
 10
20.0656
 20
226.876
 10
20.0164
 20
227.186
 10
20
 20
227.5
 10
20.0164
 20
227.814
 10
20.0656
 20
228.124
 10
20.1468
 20
228.427
 10
20.2594
 20
228.72
 10
20.4019
 20
229
 10
20.5729
 20
229.263
 10
20.7706
 20
229.507
 10
20.9926
 20
229.729
 10
21.2366
 20
229.927
 10
21.5
 20
230.098
 10
21.7798
 20
230.241
 10
22.0729
 20
230.353
 10
22.3763
 20
230.434
 10
22.6864
 20
230.484
 10
23
 20
230.5
 10
23.3136
 20
230.484
 10
23.6237
 20
230.434
 10
23.9271
 20
230.353
 10
24.2202
 20
230.241
 10
24.5
 20
230.098
 10
24.7634
 20
229.927
 10
25.0074
 20
229.729
 10
25.2294
 20
229.507
 10
25.4271
 20
229.263
 10
25.5981
 20
229
 10
25.7406
 20
228.72
 10
25.8532
 20
228.427
 10
25.9344
 20
228.124
 10
25.9836
 20
227.814
 10
26
 20
227.5
 10
25.9836
 20
227.186
 10
25.9344
 20
226.876
 10
25.8532
 20
226.573
 10
25.7406
 20
226.28
 10
25.5981
 20
226
 10
25.4271
 20
225.737
 10
25.2294
 20
225.493
 10
25.0074
 20
225.271
 10
24.7634
 20
225.073
 10
24.5
 20
224.902
 10
24.2202
 20
224.759
 10
23.9271
 20
224.647
 10
23.6237
 20
224.566
 10
23.3136
 20
224.516
 10
23
 20
224.5
  0
LWPOLYLINE
100
AcDbEntity
  8
0
100
AcDbPolyline
 90
60
 70
1
 10
-91.3136
 20
222.016
 10
-91.6237
 20
222.066
 10
-91.9271
 20
222.147
 10
-92.2202
 20
222.259
 10
-92.5
 20
222.402
 10
-92.7634
 20
222.573
 10
-93.0074
 20
222.771
 10
-93.2294
 20
222.993
 10
-93.4271
 20
223.237
 10
-93.5981
 20
223.5
 10
-93.7406
 20
223.78
 10
-93.8532
 20
224.073
 10
-93.9344
 20
224.376
 10
-93.9836
 20
224.686
 10
-94
 20
225
 10
-93.9836
 20
225.314
 10
-93.9344
 20
225.624
 10
-93.8532
 20
225.927
 10
-93.7406
 20
226.22
 10
-93.5981
 20
226.5
 10
-93.4271
 20
226.763
 10
-93.2294
 20
227.007
 10
-93.0074
 20
227.229
 10
-92.7634
 20
227.427
 10
-92.5
 20
227.598
 10
-92.2202
 20
227.741
 10
-91.9271
 20
227.853
 10
-91.6237
 20
227.934
 10
-91.3136
 20
227.984
 10
-91
 20
228
 10
-90.6864
 20
227.984
 10
-90.3763
 20
227.934
 10
-90.0729
 20
227.853
 10
-89.7798
 20
227.741
 10
-89.5
 20
227.598
 10
-89.2366
 20
227.427
 10
-88.9926
 20
227.229
 10
-88.7706
 20
227.007
 10
-88.5729
 20
226.763
 10
-88.4019
 20
226.5
 10
-88.2594
 20
226.22
 10
-88.1468
 20
225.927
 10
-88.0656
 20
225.624
 10
-88.0164
 20
225.314
 10
-88
 20
225
 10
-88.0164
 20
224.686
 10
-88.0656
 20
224.376
 10
-88.1468
 20
224.073
 10
-88.2594
 20
223.78
 10
-88.4019
 20
223.5
 10
-88.5729
 20
223.237
 10
-88.7706
 20
222.993
 10
-88.9926
 20
222.771
 10
-89.2366
 20
222.573
 10
-89.5
 20
222.402
 10
-89.7798
 20
222.259
 10
-90.0729
 20
222.147
 10
-90.3763
 20
222.066
 10
-90.6864
 20
222.016
 10
-91
 20
222
  0
LWPOLYLINE
100
AcDbEntity
  8
0
100
AcDbPolyline
 90
60
 70
1
 10
-69.3136
 20
222.016
 10
-69.6237
 20
222.066
 10
-69.9271
 20
222.147
 10
-70.2202
 20
222.259
 10
-70.5
 20
222.402
 10
-70.7634
 20
222.573
 10
-71.0074
 20
222.771
 10
-71.2294
 20
222.993
 10
-71.4271
 20
223.237
 10
-71.5981
 20
223.5
 10
-71.7406
 20
223.78
 10
-71.8532
 20
224.073
 10
-71.9344
 20
224.376
 10
-71.9836
 20
224.686
 10
-72
 20
225
 10
-71.9836
 20
225.314
 10
-71.9344
 20
225.624
 10
-71.8532
 20
225.927
 10
-71.7406
 20
226.22
 10
-71.5981
 20
226.5
 10
-71.4271
 20
226.763
 10
-71.2294
 20
227.007
 10
-71.0074
 20
227.229
 10
-70.7634
 20
227.427
 10
-70.5
 20
227.598
 10
-70.2202
 20
227.741
 10
-69.9271
 20
227.853
 10
-69.6237
 20
227.934
 10
-69.3136
 20
227.984
 10
-69
 20
228
 10
-68.6864
 20
227.984
 10
-68.3763
 20
227.934
 10
-68.0729
 20
227.853
 10
-67.7798
 20
227.741
 10
-67.5
 20
227.598
 10
-67.2366
 20
227.427
 10
-66.9926
 20
227.229
 10
-66.7706
 20
227.007
 10
-66.5729
 20
226.763
 10
-66.4019
 20
226.5
 10
-66.2594
 20
226.22
 10
-66.1468
 20
225.927
 10
-66.0656
 20
225.624
 10
-66.0164
 20
225.314
 10
-66
 20
225
 10
-66.0164
 20
224.686
 10
-66.0656
 20
224.376
 10
-66.1468
 20
224.073
 10
-66.2594
 20
223.78
 10
-66.4019
 20
223.5
 10
-66.5729
 20
223.237
 10
-66.7706
 20
222.993
 10
-66.9926
 20
222.771
 10
-67.2366
 20
222.573
 10
-67.5
 20
222.402
 10
-67.7798
 20
222.259
 10
-68.0729
 20
222.147
 10
-68.3763
 20
222.066
 10
-68.6864
 20
222.016
 10
-69
 20
222
  0
LWPOLYLINE
100
AcDbEntity
  8
0
100
AcDbPolyline
 90
60
 70
1
 10
68.6864
 20
222.016
 10
68.3763
 20
222.066
 10
68.0729
 20
222.147
 10
67.7798
 20
222.259
 10
67.5
 20
222.402
 10
67.2366
 20
222.573
 10
66.9926
 20
222.771
 10
66.7706
 20
222.993
 10
66.5729
 20
223.237
 10
66.4019
 20
223.5
 10
66.2594
 20
223.78
 10
66.1468
 20
224.073
 10
66.0656
 20
224.376
 10
66.0164
 20
224.686
 10
66
 20
225
 10
66.0164
 20
225.314
 10
66.0656
 20
225.624
 10
66.1468
 20
225.927
 10
66.2594
 20
226.22
 10
66.4019
 20
226.5
 10
66.5729
 20
226.763
 10
66.7706
 20
227.007
 10
66.9926
 20
227.229
 10
67.2366
 20
227.427
 10
67.5
 20
227.598
 10
67.7798
 20
227.741
 10
68.0729
 20
227.853
 10
68.3763
 20
227.934
 10
68.6864
 20
227.984
 10
69
 20
228
 10
69.3136
 20
227.984
 10
69.6237
 20
227.934
 10
69.9271
 20
227.853
 10
70.2202
 20
227.741
 10
70.5
 20
227.598
 10
70.7634
 20
227.427
 10
71.0074
 20
227.229
 10
71.2294
 20
227.007
 10
71.4271
 20
226.763
 10
71.5981
 20
226.5
 10
71.7406
 20
226.22
 10
71.8532
 20
225.927
 10
71.9344
 20
225.624
 10
71.9836
 20
225.314
 10
72
 20
225
 10
71.9836
 20
224.686
 10
71.9344
 20
224.376
 10
71.8532
 20
224.073
 10
71.7406
 20
223.78
 10
71.5981
 20
223.5
 10
71.4271
 20
223.237
 10
71.2294
 20
222.993
 10
71.0074
 20
222.771
 10
70.7634
 20
222.573
 10
70.5
 20
222.402
 10
70.2202
 20
222.259
 10
69.9271
 20
222.147
 10
69.6237
 20
222.066
 10
69.3136
 20
222.016
 10
69
 20
222
  0
LWPOLYLINE
100
AcDbEntity
  8
0
100
AcDbPolyline
 90
60
 70
1
 10
90.6864
 20
222.016
 10
90.3763
 20
222.066
 10
90.0729
 20
222.147
 10
89.7798
 20
222.259
 10
89.5
 20
222.402
 10
89.2366
 20
222.573
 10
88.9926
 20
222.771
 10
88.7706
 20
222.993
 10
88.5729
 20
223.237
 10
88.4019
 20
223.5
 10
88.2594
 20
223.78
 10
88.1468
 20
224.073
 10
88.0656
 20
224.376
 10
88.0164
 20
224.686
 10
88
 20
225
 10
88.0164
 20
225.314
 10
88.0656
 20
225.624
 10
88.1468
 20
225.927
 10
88.2594
 20
226.22
 10
88.4019
 20
226.5
 10
88.5729
 20
226.763
 10
88.7706
 20
227.007
 10
88.9926
 20
227.229
 10
89.2366
 20
227.427
 10
89.5
 20
227.598
 10
89.7798
 20
227.741
 10
90.0729
 20
227.853
 10
90.3763
 20
227.934
 10
90.6864
 20
227.984
 10
91
 20
228
 10
91.3136
 20
227.984
 10
91.6237
 20
227.934
 10
91.9271
 20
227.853
 10
92.2202
 20
227.741
 10
92.5
 20
227.598
 10
92.7634
 20
227.427
 10
93.0074
 20
227.229
 10
93.2294
 20
227.007
 10
93.4271
 20
226.763
 10
93.5981
 20
226.5
 10
93.7406
 20
226.22
 10
93.8532
 20
225.927
 10
93.9344
 20
225.624
 10
93.9836
 20
225.314
 10
94
 20
225
 10
93.9836
 20
224.686
 10
93.9344
 20
224.376
 10
93.8532
 20
224.073
 10
93.7406
 20
223.78
 10
93.5981
 20
223.5
 10
93.4271
 20
223.237
 10
93.2294
 20
222.993
 10
93.0074
 20
222.771
 10
92.7634
 20
222.573
 10
92.5
 20
222.402
 10
92.2202
 20
222.259
 10
91.9271
 20
222.147
 10
91.6237
 20
222.066
 10
91.3136
 20
222.016
 10
91
 20
222
  0
LWPOLYLINE
100
AcDbEntity
  8
0
100
AcDbPolyline
 90
60
 70
1
 10
-91.3136
 20
72.0164
 10
-91.6237
 20
72.0656
 10
-91.9271
 20
72.1468
 10
-92.2202
 20
72.2594
 10
-92.5
 20
72.4019
 10
-92.7634
 20
72.573
 10
-93.0074
 20
72.7706
 10
-93.2294
 20
72.9926
 10
-93.4271
 20
73.2366
 10
-93.5981
 20
73.5
 10
-93.7406
 20
73.7798
 10
-93.8532
 20
74.073
 10
-93.9344
 20
74.3763
 10
-93.9836
 20
74.6864
 10
-94
 20
75
 10
-93.9836
 20
75.3136
 10
-93.9344
 20
75.6237
 10
-93.8532
 20
75.927
 10
-93.7406
 20
76.2202
 10
-93.5981
 20
76.5
 10
-93.4271
 20
76.7634
 10
-93.2294
 20
77.0074
 10
-93.0074
 20
77.2294
 10
-92.7634
 20
77.427
 10
-92.5
 20
77.5981
 10
-92.2202
 20
77.7406
 10
-91.9271
 20
77.8532
 10
-91.6237
 20
77.9344
 10
-91.3136
 20
77.9836
 10
-91
 20
78
 10
-90.6864
 20
77.9836
 10
-90.3763
 20
77.9344
 10
-90.0729
 20
77.8532
 10
-89.7798
 20
77.7406
 10
-89.5
 20
77.5981
 10
-89.2366
 20
77.427
 10
-88.9926
 20
77.2294
 10
-88.7706
 20
77.0074
 10
-88.5729
 20
76.7634
 10
-88.4019
 20
76.5
 10
-88.2594
 20
76.2202
 10
-88.1468
 20
75.927
 10
-88.0656
 20
75.6237
 10
-88.0164
 20
75.3136
 10
-88
 20
75
 10
-88.0164
 20
74.6864
 10
-88.0656
 20
74.3763
 10
-88.1468
 20
74.073
 10
-88.2594
 20
73.7798
 10
-88.4019
 20
73.5
 10
-88.5729
 20
73.2366
 10
-88.7706
 20
72.9926
 10
-88.9926
 20
72.7706
 10
-89.2366
 20
72.573
 10
-89.5
 20
72.4019
 10
-89.7798
 20
72.2594
 10
-90.0729
 20
72.1468
 10
-90.3763
 20
72.0656
 10
-90.6864
 20
72.0164
 10
-91
 20
72
  0
LWPOLYLINE
100
AcDbEntity
  8
0
100
AcDbPolyline
 90
60
 70
1
 10
-69.3136
 20
72.0164
 10
-69.6237
 20
72.0656
 10
-69.9271
 20
72.1468
 10
-70.2202
 20
72.2594
 10
-70.5
 20
72.4019
 10
-70.7634
 20
72.573
 10
-71.0074
 20
72.7706
 10
-71.2294
 20
72.9926
 10
-71.4271
 20
73.2366
 10
-71.5981
 20
73.5
 10
-71.7406
 20
73.7798
 10
-71.8532
 20
74.073
 10
-71.9344
 20
74.3763
 10
-71.9836
 20
74.6864
 10
-72
 20
75
 10
-71.9836
 20
75.3136
 10
-71.9344
 20
75.6237
 10
-71.8532
 20
75.927
 10
-71.7406
 20
76.2202
 10
-71.5981
 20
76.5
 10
-71.4271
 20
76.7634
 10
-71.2294
 20
77.0074
 10
-71.0074
 20
77.2294
 10
-70.7634
 20
77.427
 10
-70.5
 20
77.5981
 10
-70.2202
 20
77.7406
 10
-69.9271
 20
77.8532
 10
-69.6237
 20
77.9344
 10
-69.3136
 20
77.9836
 10
-69
 20
78
 10
-68.6864
 20
77.9836
 10
-68.3763
 20
77.9344
 10
-68.0729
 20
77.8532
 10
-67.7798
 20
77.7406
 10
-67.5
 20
77.5981
 10
-67.2366
 20
77.427
 10
-66.9926
 20
77.2294
 10
-66.7706
 20
77.0074
 10
-66.5729
 20
76.7634
 10
-66.4019
 20
76.5
 10
-66.2594
 20
76.2202
 10
-66.1468
 20
75.927
 10
-66.0656
 20
75.6237
 10
-66.0164
 20
75.3136
 10
-66
 20
75
 10
-66.0164
 20
74.6864
 10
-66.0656
 20
74.3763
 10
-66.1468
 20
74.073
 10
-66.2594
 20
73.7798
 10
-66.4019
 20
73.5
 10
-66.5729
 20
73.2366
 10
-66.7706
 20
72.9926
 10
-66.9926
 20
72.7706
 10
-67.2366
 20
72.573
 10
-67.5
 20
72.4019
 10
-67.7798
 20
72.2594
 10
-68.0729
 20
72.1468
 10
-68.3763
 20
72.0656
 10
-68.6864
 20
72.0164
 10
-69
 20
72
  0
LWPOLYLINE
100
AcDbEntity
  8
0
100
AcDbPolyline
 90
60
 70
1
 10
68.6864
 20
72.0164
 10
68.3763
 20
72.0656
 10
68.0729
 20
72.1468
 10
67.7798
 20
72.2594
 10
67.5
 20
72.4019
 10
67.2366
 20
72.573
 10
66.9926
 20
72.7706
 10
66.7706
 20
72.9926
 10
66.5729
 20
73.2366
 10
66.4019
 20
73.5
 10
66.2594
 20
73.7798
 10
66.1468
 20
74.073
 10
66.0656
 20
74.3763
 10
66.0164
 20
74.6864
 10
66
 20
75
 10
66.0164
 20
75.3136
 10
66.0656
 20
75.6237
 10
66.1468
 20
75.927
 10
66.2594
 20
76.2202
 10
66.4019
 20
76.5
 10
66.5729
 20
76.7634
 10
66.7706
 20
77.0074
 10
66.9926
 20
77.2294
 10
67.2366
 20
77.427
 10
67.5
 20
77.5981
 10
67.7798
 20
77.7406
 10
68.0729
 20
77.8532
 10
68.3763
 20
77.9344
 10
68.6864
 20
77.9836
 10
69
 20
78
 10
69.3136
 20
77.9836
 10
69.6237
 20
77.9344
 10
69.9271
 20
77.8532
 10
70.2202
 20
77.7406
 10
70.5
 20
77.5981
 10
70.7634
 20
77.427
 10
71.0074
 20
77.2294
 10
71.2294
 20
77.0074
 10
71.4271
 20
76.7634
 10
71.5981
 20
76.5
 10
71.7406
 20
76.2202
 10
71.8532
 20
75.927
 10
71.9344
 20
75.6237
 10
71.9836
 20
75.3136
 10
72
 20
75
 10
71.9836
 20
74.6864
 10
71.9344
 20
74.3763
 10
71.8532
 20
74.073
 10
71.7406
 20
73.7798
 10
71.5981
 20
73.5
 10
71.4271
 20
73.2366
 10
71.2294
 20
72.9926
 10
71.0074
 20
72.7706
 10
70.7634
 20
72.573
 10
70.5
 20
72.4019
 10
70.2202
 20
72.2594
 10
69.9271
 20
72.1468
 10
69.6237
 20
72.0656
 10
69.3136
 20
72.0164
 10
69
 20
72
  0
LWPOLYLINE
100
AcDbEntity
  8
0
100
AcDbPolyline
 90
60
 70
1
 10
90.6864
 20
72.0164
 10
90.3763
 20
72.0656
 10
90.0729
 20
72.1468
 10
89.7798
 20
72.2594
 10
89.5
 20
72.4019
 10
89.2366
 20
72.573
 10
88.9926
 20
72.7706
 10
88.7706
 20
72.9926
 10
88.5729
 20
73.2366
 10
88.4019
 20
73.5
 10
88.2594
 20
73.7798
 10
88.1468
 20
74.073
 10
88.0656
 20
74.3763
 10
88.0164
 20
74.6864
 10
88
 20
75
 10
88.0164
 20
75.3136
 10
88.0656
 20
75.6237
 10
88.1468
 20
75.927
 10
88.2594
 20
76.2202
 10
88.4019
 20
76.5
 10
88.5729
 20
76.7634
 10
88.7706
 20
77.0074
 10
88.9926
 20
77.2294
 10
89.2366
 20
77.427
 10
89.5
 20
77.5981
 10
89.7798
 20
77.7406
 10
90.0729
 20
77.8532
 10
90.3763
 20
77.9344
 10
90.6864
 20
77.9836
 10
91
 20
78
 10
91.3136
 20
77.9836
 10
91.6237
 20
77.9344
 10
91.9271
 20
77.8532
 10
92.2202
 20
77.7406
 10
92.5
 20
77.5981
 10
92.7634
 20
77.427
 10
93.0074
 20
77.2294
 10
93.2294
 20
77.0074
 10
93.4271
 20
76.7634
 10
93.5981
 20
76.5
 10
93.7406
 20
76.2202
 10
93.8532
 20
75.927
 10
93.9344
 20
75.6237
 10
93.9836
 20
75.3136
 10
94
 20
75
 10
93.9836
 20
74.6864
 10
93.9344
 20
74.3763
 10
93.8532
 20
74.073
 10
93.7406
 20
73.7798
 10
93.5981
 20
73.5
 10
93.4271
 20
73.2366
 10
93.2294
 20
72.9926
 10
93.0074
 20
72.7706
 10
92.7634
 20
72.573
 10
92.5
 20
72.4019
 10
92.2202
 20
72.2594
 10
91.9271
 20
72.1468
 10
91.6237
 20
72.0656
 10
91.3136
 20
72.0164
 10
91
 20
72
  0
LWPOLYLINE
100
AcDbEntity
  8
0
100
AcDbPolyline
 90
60
 70
1
 10
-91.3136
 20
-77.9836
 10
-91.6237
 20
-77.9344
 10
-91.9271
 20
-77.8532
 10
-92.2202
 20
-77.7406
 10
-92.5
 20
-77.5981
 10
-92.7634
 20
-77.427
 10
-93.0074
 20
-77.2294
 10
-93.2294
 20
-77.0074
 10
-93.4271
 20
-76.7634
 10
-93.5981
 20
-76.5
 10
-93.7406
 20
-76.2202
 10
-93.8532
 20
-75.927
 10
-93.9344
 20
-75.6237
 10
-93.9836
 20
-75.3136
 10
-94
 20
-75
 10
-93.9836
 20
-74.6864
 10
-93.9344
 20
-74.3763
 10
-93.8532
 20
-74.073
 10
-93.7406
 20
-73.7798
 10
-93.5981
 20
-73.5
 10
-93.4271
 20
-73.2366
 10
-93.2294
 20
-72.9926
 10
-93.0074
 20
-72.7706
 10
-92.7634
 20
-72.573
 10
-92.5
 20
-72.4019
 10
-92.2202
 20
-72.2594
 10
-91.9271
 20
-72.1468
 10
-91.6237
 20
-72.0656
 10
-91.3136
 20
-72.0164
 10
-91
 20
-72
 10
-90.6864
 20
-72.0164
 10
-90.3763
 20
-72.0656
 10
-90.0729
 20
-72.1468
 10
-89.7798
 20
-72.2594
 10
-89.5
 20
-72.4019
 10
-89.2366
 20
-72.573
 10
-88.9926
 20
-72.7706
 10
-88.7706
 20
-72.9926
 10
-88.5729
 20
-73.2366
 10
-88.4019
 20
-73.5
 10
-88.2594
 20
-73.7798
 10
-88.1468
 20
-74.073
 10
-88.0656
 20
-74.3763
 10
-88.0164
 20
-74.6864
 10
-88
 20
-75
 10
-88.0164
 20
-75.3136
 10
-88.0656
 20
-75.6237
 10
-88.1468
 20
-75.927
 10
-88.2594
 20
-76.2202
 10
-88.4019
 20
-76.5
 10
-88.5729
 20
-76.7634
 10
-88.7706
 20
-77.0074
 10
-88.9926
 20
-77.2294
 10
-89.2366
 20
-77.427
 10
-89.5
 20
-77.5981
 10
-89.7798
 20
-77.7406
 10
-90.0729
 20
-77.8532
 10
-90.3763
 20
-77.9344
 10
-90.6864
 20
-77.9836
 10
-91
 20
-78
  0
LWPOLYLINE
100
AcDbEntity
  8
0
100
AcDbPolyline
 90
60
 70
1
 10
-69.3136
 20
-77.9836
 10
-69.6237
 20
-77.9344
 10
-69.9271
 20
-77.8532
 10
-70.2202
 20
-77.7406
 10
-70.5
 20
-77.5981
 10
-70.7634
 20
-77.427
 10
-71.0074
 20
-77.2294
 10
-71.2294
 20
-77.0074
 10
-71.4271
 20
-76.7634
 10
-71.5981
 20
-76.5
 10
-71.7406
 20
-76.2202
 10
-71.8532
 20
-75.927
 10
-71.9344
 20
-75.6237
 10
-71.9836
 20
-75.3136
 10
-72
 20
-75
 10
-71.9836
 20
-74.6864
 10
-71.9344
 20
-74.3763
 10
-71.8532
 20
-74.073
 10
-71.7406
 20
-73.7798
 10
-71.5981
 20
-73.5
 10
-71.4271
 20
-73.2366
 10
-71.2294
 20
-72.9926
 10
-71.0074
 20
-72.7706
 10
-70.7634
 20
-72.573
 10
-70.5
 20
-72.4019
 10
-70.2202
 20
-72.2594
 10
-69.9271
 20
-72.1468
 10
-69.6237
 20
-72.0656
 10
-69.3136
 20
-72.0164
 10
-69
 20
-72
 10
-68.6864
 20
-72.0164
 10
-68.3763
 20
-72.0656
 10
-68.0729
 20
-72.1468
 10
-67.7798
 20
-72.2594
 10
-67.5
 20
-72.4019
 10
-67.2366
 20
-72.573
 10
-66.9926
 20
-72.7706
 10
-66.7706
 20
-72.9926
 10
-66.5729
 20
-73.2366
 10
-66.4019
 20
-73.5
 10
-66.2594
 20
-73.7798
 10
-66.1468
 20
-74.073
 10
-66.0656
 20
-74.3763
 10
-66.0164
 20
-74.6864
 10
-66
 20
-75
 10
-66.0164
 20
-75.3136
 10
-66.0656
 20
-75.6237
 10
-66.1468
 20
-75.927
 10
-66.2594
 20
-76.2202
 10
-66.4019
 20
-76.5
 10
-66.5729
 20
-76.7634
 10
-66.7706
 20
-77.0074
 10
-66.9926
 20
-77.2294
 10
-67.2366
 20
-77.427
 10
-67.5
 20
-77.5981
 10
-67.7798
 20
-77.7406
 10
-68.0729
 20
-77.8532
 10
-68.3763
 20
-77.9344
 10
-68.6864
 20
-77.9836
 10
-69
 20
-78
  0
LWPOLYLINE
100
AcDbEntity
  8
0
100
AcDbPolyline
 90
60
 70
1
 10
68.6864
 20
-77.9836
 10
68.3763
 20
-77.9344
 10
68.0729
 20
-77.8532
 10
67.7798
 20
-77.7406
 10
67.5
 20
-77.5981
 10
67.2366
 20
-77.427
 10
66.9926
 20
-77.2294
 10
66.7706
 20
-77.0074
 10
66.5729
 20
-76.7634
 10
66.4019
 20
-76.5
 10
66.2594
 20
-76.2202
 10
66.1468
 20
-75.927
 10
66.0656
 20
-75.6237
 10
66.0164
 20
-75.3136
 10
66
 20
-75
 10
66.0164
 20
-74.6864
 10
66.0656
 20
-74.3763
 10
66.1468
 20
-74.073
 10
66.2594
 20
-73.7798
 10
66.4019
 20
-73.5
 10
66.5729
 20
-73.2366
 10
66.7706
 20
-72.9926
 10
66.9926
 20
-72.7706
 10
67.2366
 20
-72.573
 10
67.5
 20
-72.4019
 10
67.7798
 20
-72.2594
 10
68.0729
 20
-72.1468
 10
68.3763
 20
-72.0656
 10
68.6864
 20
-72.0164
 10
69
 20
-72
 10
69.3136
 20
-72.0164
 10
69.6237
 20
-72.0656
 10
69.9271
 20
-72.1468
 10
70.2202
 20
-72.2594
 10
70.5
 20
-72.4019
 10
70.7634
 20
-72.573
 10
71.0074
 20
-72.7706
 10
71.2294
 20
-72.9926
 10
71.4271
 20
-73.2366
 10
71.5981
 20
-73.5
 10
71.7406
 20
-73.7798
 10
71.8532
 20
-74.073
 10
71.9344
 20
-74.3763
 10
71.9836
 20
-74.6864
 10
72
 20
-75
 10
71.9836
 20
-75.3136
 10
71.9344
 20
-75.6237
 10
71.8532
 20
-75.927
 10
71.7406
 20
-76.2202
 10
71.5981
 20
-76.5
 10
71.4271
 20
-76.7634
 10
71.2294
 20
-77.0074
 10
71.0074
 20
-77.2294
 10
70.7634
 20
-77.427
 10
70.5
 20
-77.5981
 10
70.2202
 20
-77.7406
 10
69.9271
 20
-77.8532
 10
69.6237
 20
-77.9344
 10
69.3136
 20
-77.9836
 10
69
 20
-78
  0
LWPOLYLINE
100
AcDbEntity
  8
0
100
AcDbPolyline
 90
60
 70
1
 10
90.6864
 20
-77.9836
 10
90.3763
 20
-77.9344
 10
90.0729
 20
-77.8532
 10
89.7798
 20
-77.7406
 10
89.5
 20
-77.5981
 10
89.2366
 20
-77.427
 10
88.9926
 20
-77.2294
 10
88.7706
 20
-77.0074
 10
88.5729
 20
-76.7634
 10
88.4019
 20
-76.5
 10
88.2594
 20
-76.2202
 10
88.1468
 20
-75.927
 10
88.0656
 20
-75.6237
 10
88.0164
 20
-75.3136
 10
88
 20
-75
 10
88.0164
 20
-74.6864
 10
88.0656
 20
-74.3763
 10
88.1468
 20
-74.073
 10
88.2594
 20
-73.7798
 10
88.4019
 20
-73.5
 10
88.5729
 20
-73.2366
 10
88.7706
 20
-72.9926
 10
88.9926
 20
-72.7706
 10
89.2366
 20
-72.573
 10
89.5
 20
-72.4019
 10
89.7798
 20
-72.2594
 10
90.0729
 20
-72.1468
 10
90.3763
 20
-72.0656
 10
90.6864
 20
-72.0164
 10
91
 20
-72
 10
91.3136
 20
-72.0164
 10
91.6237
 20
-72.0656
 10
91.9271
 20
-72.1468
 10
92.2202
 20
-72.2594
 10
92.5
 20
-72.4019
 10
92.7634
 20
-72.573
 10
93.0074
 20
-72.7706
 10
93.2294
 20
-72.9926
 10
93.4271
 20
-73.2366
 10
93.5981
 20
-73.5
 10
93.7406
 20
-73.7798
 10
93.8532
 20
-74.073
 10
93.9344
 20
-74.3763
 10
93.9836
 20
-74.6864
 10
94
 20
-75
 10
93.9836
 20
-75.3136
 10
93.9344
 20
-75.6237
 10
93.8532
 20
-75.927
 10
93.7406
 20
-76.2202
 10
93.5981
 20
-76.5
 10
93.4271
 20
-76.7634
 10
93.2294
 20
-77.0074
 10
93.0074
 20
-77.2294
 10
92.7634
 20
-77.427
 10
92.5
 20
-77.5981
 10
92.2202
 20
-77.7406
 10
91.9271
 20
-77.8532
 10
91.6237
 20
-77.9344
 10
91.3136
 20
-77.9836
 10
91
 20
-78
  0
LWPOLYLINE
100
AcDbEntity
  8
0
100
AcDbPolyline
 90
60
 70
1
 10
-91.3136
 20
-227.984
 10
-91.6237
 20
-227.934
 10
-91.9271
 20
-227.853
 10
-92.2202
 20
-227.741
 10
-92.5
 20
-227.598
 10
-92.7634
 20
-227.427
 10
-93.0074
 20
-227.229
 10
-93.2294
 20
-227.007
 10
-93.4271
 20
-226.763
 10
-93.5981
 20
-226.5
 10
-93.7406
 20
-226.22
 10
-93.8532
 20
-225.927
 10
-93.9344
 20
-225.624
 10
-93.9836
 20
-225.314
 10
-94
 20
-225
 10
-93.9836
 20
-224.686
 10
-93.9344
 20
-224.376
 10
-93.8532
 20
-224.073
 10
-93.7406
 20
-223.78
 10
-93.5981
 20
-223.5
 10
-93.4271
 20
-223.237
 10
-93.2294
 20
-222.993
 10
-93.0074
 20
-222.771
 10
-92.7634
 20
-222.573
 10
-92.5
 20
-222.402
 10
-92.2202
 20
-222.259
 10
-91.9271
 20
-222.147
 10
-91.6237
 20
-222.066
 10
-91.3136
 20
-222.016
 10
-91
 20
-222
 10
-90.6864
 20
-222.016
 10
-90.3763
 20
-222.066
 10
-90.0729
 20
-222.147
 10
-89.7798
 20
-222.259
 10
-89.5
 20
-222.402
 10
-89.2366
 20
-222.573
 10
-88.9926
 20
-222.771
 10
-88.7706
 20
-222.993
 10
-88.5729
 20
-223.237
 10
-88.4019
 20
-223.5
 10
-88.2594
 20
-223.78
 10
-88.1468
 20
-224.073
 10
-88.0656
 20
-224.376
 10
-88.0164
 20
-224.686
 10
-88
 20
-225
 10
-88.0164
 20
-225.314
 10
-88.0656
 20
-225.624
 10
-88.1468
 20
-225.927
 10
-88.2594
 20
-226.22
 10
-88.4019
 20
-226.5
 10
-88.5729
 20
-226.763
 10
-88.7706
 20
-227.007
 10
-88.9926
 20
-227.229
 10
-89.2366
 20
-227.427
 10
-89.5
 20
-227.598
 10
-89.7798
 20
-227.741
 10
-90.0729
 20
-227.853
 10
-90.3763
 20
-227.934
 10
-90.6864
 20
-227.984
 10
-91
 20
-228
  0
LWPOLYLINE
100
AcDbEntity
  8
0
100
AcDbPolyline
 90
60
 70
1
 10
-69.3136
 20
-227.984
 10
-69.6237
 20
-227.934
 10
-69.9271
 20
-227.853
 10
-70.2202
 20
-227.741
 10
-70.5
 20
-227.598
 10
-70.7634
 20
-227.427
 10
-71.0074
 20
-227.229
 10
-71.2294
 20
-227.007
 10
-71.4271
 20
-226.763
 10
-71.5981
 20
-226.5
 10
-71.7406
 20
-226.22
 10
-71.8532
 20
-225.927
 10
-71.9344
 20
-225.624
 10
-71.9836
 20
-225.314
 10
-72
 20
-225
 10
-71.9836
 20
-224.686
 10
-71.9344
 20
-224.376
 10
-71.8532
 20
-224.073
 10
-71.7406
 20
-223.78
 10
-71.5981
 20
-223.5
 10
-71.4271
 20
-223.237
 10
-71.2294
 20
-222.993
 10
-71.0074
 20
-222.771
 10
-70.7634
 20
-222.573
 10
-70.5
 20
-222.402
 10
-70.2202
 20
-222.259
 10
-69.9271
 20
-222.147
 10
-69.6237
 20
-222.066
 10
-69.3136
 20
-222.016
 10
-69
 20
-222
 10
-68.6864
 20
-222.016
 10
-68.3763
 20
-222.066
 10
-68.0729
 20
-222.147
 10
-67.7798
 20
-222.259
 10
-67.5
 20
-222.402
 10
-67.2366
 20
-222.573
 10
-66.9926
 20
-222.771
 10
-66.7706
 20
-222.993
 10
-66.5729
 20
-223.237
 10
-66.4019
 20
-223.5
 10
-66.2594
 20
-223.78
 10
-66.1468
 20
-224.073
 10
-66.0656
 20
-224.376
 10
-66.0164
 20
-224.686
 10
-66
 20
-225
 10
-66.0164
 20
-225.314
 10
-66.0656
 20
-225.624
 10
-66.1468
 20
-225.927
 10
-66.2594
 20
-226.22
 10
-66.4019
 20
-226.5
 10
-66.5729
 20
-226.763
 10
-66.7706
 20
-227.007
 10
-66.9926
 20
-227.229
 10
-67.2366
 20
-227.427
 10
-67.5
 20
-227.598
 10
-67.7798
 20
-227.741
 10
-68.0729
 20
-227.853
 10
-68.3763
 20
-227.934
 10
-68.6864
 20
-227.984
 10
-69
 20
-228
  0
LWPOLYLINE
100
AcDbEntity
  8
0
100
AcDbPolyline
 90
60
 70
1
 10
68.6864
 20
-227.984
 10
68.3763
 20
-227.934
 10
68.0729
 20
-227.853
 10
67.7798
 20
-227.741
 10
67.5
 20
-227.598
 10
67.2366
 20
-227.427
 10
66.9926
 20
-227.229
 10
66.7706
 20
-227.007
 10
66.5729
 20
-226.763
 10
66.4019
 20
-226.5
 10
66.2594
 20
-226.22
 10
66.1468
 20
-225.927
 10
66.0656
 20
-225.624
 10
66.0164
 20
-225.314
 10
66
 20
-225
 10
66.0164
 20
-224.686
 10
66.0656
 20
-224.376
 10
66.1468
 20
-224.073
 10
66.2594
 20
-223.78
 10
66.4019
 20
-223.5
 10
66.5729
 20
-223.237
 10
66.7706
 20
-222.993
 10
66.9926
 20
-222.771
 10
67.2366
 20
-222.573
 10
67.5
 20
-222.402
 10
67.7798
 20
-222.259
 10
68.0729
 20
-222.147
 10
68.3763
 20
-222.066
 10
68.6864
 20
-222.016
 10
69
 20
-222
 10
69.3136
 20
-222.016
 10
69.6237
 20
-222.066
 10
69.9271
 20
-222.147
 10
70.2202
 20
-222.259
 10
70.5
 20
-222.402
 10
70.7634
 20
-222.573
 10
71.0074
 20
-222.771
 10
71.2294
 20
-222.993
 10
71.4271
 20
-223.237
 10
71.5981
 20
-223.5
 10
71.7406
 20
-223.78
 10
71.8532
 20
-224.073
 10
71.9344
 20
-224.376
 10
71.9836
 20
-224.686
 10
72
 20
-225
 10
71.9836
 20
-225.314
 10
71.9344
 20
-225.624
 10
71.8532
 20
-225.927
 10
71.7406
 20
-226.22
 10
71.5981
 20
-226.5
 10
71.4271
 20
-226.763
 10
71.2294
 20
-227.007
 10
71.0074
 20
-227.229
 10
70.7634
 20
-227.427
 10
70.5
 20
-227.598
 10
70.2202
 20
-227.741
 10
69.9271
 20
-227.853
 10
69.6237
 20
-227.934
 10
69.3136
 20
-227.984
 10
69
 20
-228
  0
LWPOLYLINE
100
AcDbEntity
  8
0
100
AcDbPolyline
 90
60
 70
1
 10
90.6864
 20
-227.984
 10
90.3763
 20
-227.934
 10
90.0729
 20
-227.853
 10
89.7798
 20
-227.741
 10
89.5
 20
-227.598
 10
89.2366
 20
-227.427
 10
88.9926
 20
-227.229
 10
88.7706
 20
-227.007
 10
88.5729
 20
-226.763
 10
88.4019
 20
-226.5
 10
88.2594
 20
-226.22
 10
88.1468
 20
-225.927
 10
88.0656
 20
-225.624
 10
88.0164
 20
-225.314
 10
88
 20
-225
 10
88.0164
 20
-224.686
 10
88.0656
 20
-224.376
 10
88.1468
 20
-224.073
 10
88.2594
 20
-223.78
 10
88.4019
 20
-223.5
 10
88.5729
 20
-223.237
 10
88.7706
 20
-222.993
 10
88.9926
 20
-222.771
 10
89.2366
 20
-222.573
 10
89.5
 20
-222.402
 10
89.7798
 20
-222.259
 10
90.0729
 20
-222.147
 10
90.3763
 20
-222.066
 10
90.6864
 20
-222.016
 10
91
 20
-222
 10
91.3136
 20
-222.016
 10
91.6237
 20
-222.066
 10
91.9271
 20
-222.147
 10
92.2202
 20
-222.259
 10
92.5
 20
-222.402
 10
92.7634
 20
-222.573
 10
93.0074
 20
-222.771
 10
93.2294
 20
-222.993
 10
93.4271
 20
-223.237
 10
93.5981
 20
-223.5
 10
93.7406
 20
-223.78
 10
93.8532
 20
-224.073
 10
93.9344
 20
-224.376
 10
93.9836
 20
-224.686
 10
94
 20
-225
 10
93.9836
 20
-225.314
 10
93.9344
 20
-225.624
 10
93.8532
 20
-225.927
 10
93.7406
 20
-226.22
 10
93.5981
 20
-226.5
 10
93.4271
 20
-226.763
 10
93.2294
 20
-227.007
 10
93.0074
 20
-227.229
 10
92.7634
 20
-227.427
 10
92.5
 20
-227.598
 10
92.2202
 20
-227.741
 10
91.9271
 20
-227.853
 10
91.6237
 20
-227.934
 10
91.3136
 20
-227.984
 10
91
 20
-228
  0
LWPOLYLINE
100
AcDbEntity
  8
0
100
AcDbPolyline
 90
60
 70
1
 10
-140.418
 20
-253.978
 10
-140.832
 20
-253.913
 10
-141.236
 20
-253.804
 10
-141.627
 20
-253.654
 10
-142
 20
-253.464
 10
-142.351
 20
-253.236
 10
-142.677
 20
-252.973
 10
-142.973
 20
-252.677
 10
-143.236
 20
-252.351
 10
-143.464
 20
-252
 10
-143.654
 20
-251.627
 10
-143.804
 20
-251.236
 10
-143.913
 20
-250.832
 10
-143.978
 20
-250.418
 10
-144
 20
-250
 10
-143.978
 20
-249.582
 10
-143.913
 20
-249.168
 10
-143.804
 20
-248.764
 10
-143.654
 20
-248.373
 10
-143.464
 20
-248
 10
-143.236
 20
-247.649
 10
-142.973
 20
-247.323
 10
-142.677
 20
-247.027
 10
-142.351
 20
-246.764
 10
-142
 20
-246.536
 10
-141.627
 20
-246.346
 10
-141.236
 20
-246.196
 10
-140.832
 20
-246.087
 10
-140.418
 20
-246.022
 10
-140
 20
-246
 10
-139.582
 20
-246.022
 10
-139.168
 20
-246.087
 10
-138.764
 20
-246.196
 10
-138.373
 20
-246.346
 10
-138
 20
-246.536
 10
-137.649
 20
-246.764
 10
-137.323
 20
-247.027
 10
-137.027
 20
-247.323
 10
-136.764
 20
-247.649
 10
-136.536
 20
-248
 10
-136.346
 20
-248.373
 10
-136.196
 20
-248.764
 10
-136.087
 20
-249.168
 10
-136.022
 20
-249.582
 10
-136
 20
-250
 10
-136.022
 20
-250.418
 10
-136.087
 20
-250.832
 10
-136.196
 20
-251.236
 10
-136.346
 20
-251.627
 10
-136.536
 20
-252
 10
-136.764
 20
-252.351
 10
-137.027
 20
-252.677
 10
-137.323
 20
-252.973
 10
-137.649
 20
-253.236
 10
-138
 20
-253.464
 10
-138.373
 20
-253.654
 10
-138.764
 20
-253.804
 10
-139.168
 20
-253.913
 10
-139.582
 20
-253.978
 10
-140
 20
-254
  0
LWPOLYLINE
100
AcDbEntity
  8
0
100
AcDbPolyline
 90
60
 70
1
 10
139.582
 20
-253.978
 10
139.168
 20
-253.913
 10
138.764
 20
-253.804
 10
138.373
 20
-253.654
 10
138
 20
-253.464
 10
137.649
 20
-253.236
 10
137.323
 20
-252.973
 10
137.027
 20
-252.677
 10
136.764
 20
-252.351
 10
136.536
 20
-252
 10
136.346
 20
-251.627
 10
136.196
 20
-251.236
 10
136.087
 20
-250.832
 10
136.022
 20
-250.418
 10
136
 20
-250
 10
136.022
 20
-249.582
 10
136.087
 20
-249.168
 10
136.196
 20
-248.764
 10
136.346
 20
-248.373
 10
136.536
 20
-248
 10
136.764
 20
-247.649
 10
137.027
 20
-247.323
 10
137.323
 20
-247.027
 10
137.649
 20
-246.764
 10
138
 20
-246.536
 10
138.373
 20
-246.346
 10
138.764
 20
-246.196
 10
139.168
 20
-246.087
 10
139.582
 20
-246.022
 10
140
 20
-246
 10
140.418
 20
-246.022
 10
140.832
 20
-246.087
 10
141.236
 20
-246.196
 10
141.627
 20
-246.346
 10
142
 20
-246.536
 10
142.351
 20
-246.764
 10
142.677
 20
-247.027
 10
142.973
 20
-247.323
 10
143.236
 20
-247.649
 10
143.464
 20
-248
 10
143.654
 20
-248.373
 10
143.804
 20
-248.764
 10
143.913
 20
-249.168
 10
143.978
 20
-249.582
 10
144
 20
-250
 10
143.978
 20
-250.418
 10
143.913
 20
-250.832
 10
143.804
 20
-251.236
 10
143.654
 20
-251.627
 10
143.464
 20
-252
 10
143.236
 20
-252.351
 10
142.973
 20
-252.677
 10
142.677
 20
-252.973
 10
142.351
 20
-253.236
 10
142
 20
-253.464
 10
141.627
 20
-253.654
 10
141.236
 20
-253.804
 10
140.832
 20
-253.913
 10
140.418
 20
-253.978
 10
140
 20
-254
  0
LWPOLYLINE
100
AcDbEntity
  8
0
100
AcDbPolyline
 90
60
 70
1
 10
-23.3136
 20
-267.984
 10
-23.6237
 20
-267.934
 10
-23.9271
 20
-267.853
 10
-24.2202
 20
-267.741
 10
-24.5
 20
-267.598
 10
-24.7634
 20
-267.427
 10
-25.0074
 20
-267.229
 10
-25.2294
 20
-267.007
 10
-25.4271
 20
-266.763
 10
-25.5981
 20
-266.5
 10
-25.7406
 20
-266.22
 10
-25.8532
 20
-265.927
 10
-25.9344
 20
-265.624
 10
-25.9836
 20
-265.314
 10
-26
 20
-265
 10
-25.9836
 20
-264.686
 10
-25.9344
 20
-264.376
 10
-25.8532
 20
-264.073
 10
-25.7406
 20
-263.78
 10
-25.5981
 20
-263.5
 10
-25.4271
 20
-263.237
 10
-25.2294
 20
-262.993
 10
-25.0074
 20
-262.771
 10
-24.7634
 20
-262.573
 10
-24.5
 20
-262.402
 10
-24.2202
 20
-262.259
 10
-23.9271
 20
-262.147
 10
-23.6237
 20
-262.066
 10
-23.3136
 20
-262.016
 10
-23
 20
-262
 10
-22.6864
 20
-262.016
 10
-22.3763
 20
-262.066
 10
-22.0729
 20
-262.147
 10
-21.7798
 20
-262.259
 10
-21.5
 20
-262.402
 10
-21.2366
 20
-262.573
 10
-20.9926
 20
-262.771
 10
-20.7706
 20
-262.993
 10
-20.5729
 20
-263.237
 10
-20.4019
 20
-263.5
 10
-20.2594
 20
-263.78
 10
-20.1468
 20
-264.073
 10
-20.0656
 20
-264.376
 10
-20.0164
 20
-264.686
 10
-20
 20
-265
 10
-20.0164
 20
-265.314
 10
-20.0656
 20
-265.624
 10
-20.1468
 20
-265.927
 10
-20.2594
 20
-266.22
 10
-20.4019
 20
-266.5
 10
-20.5729
 20
-266.763
 10
-20.7706
 20
-267.007
 10
-20.9926
 20
-267.229
 10
-21.2366
 20
-267.427
 10
-21.5
 20
-267.598
 10
-21.7798
 20
-267.741
 10
-22.0729
 20
-267.853
 10
-22.3763
 20
-267.934
 10
-22.6864
 20
-267.984
 10
-23
 20
-268
  0
LWPOLYLINE
100
AcDbEntity
  8
0
100
AcDbPolyline
 90
60
 70
1
 10
22.6864
 20
-267.984
 10
22.3763
 20
-267.934
 10
22.0729
 20
-267.853
 10
21.7798
 20
-267.741
 10
21.5
 20
-267.598
 10
21.2366
 20
-267.427
 10
20.9926
 20
-267.229
 10
20.7706
 20
-267.007
 10
20.5729
 20
-266.763
 10
20.4019
 20
-266.5
 10
20.2594
 20
-266.22
 10
20.1468
 20
-265.927
 10
20.0656
 20
-265.624
 10
20.0164
 20
-265.314
 10
20
 20
-265
 10
20.0164
 20
-264.686
 10
20.0656
 20
-264.376
 10
20.1468
 20
-264.073
 10
20.2594
 20
-263.78
 10
20.4019
 20
-263.5
 10
20.5729
 20
-263.237
 10
20.7706
 20
-262.993
 10
20.9926
 20
-262.771
 10
21.2366
 20
-262.573
 10
21.5
 20
-262.402
 10
21.7798
 20
-262.259
 10
22.0729
 20
-262.147
 10
22.3763
 20
-262.066
 10
22.6864
 20
-262.016
 10
23
 20
-262
 10
23.3136
 20
-262.016
 10
23.6237
 20
-262.066
 10
23.9271
 20
-262.147
 10
24.2202
 20
-262.259
 10
24.5
 20
-262.402
 10
24.7634
 20
-262.573
 10
25.0074
 20
-262.771
 10
25.2294
 20
-262.993
 10
25.4271
 20
-263.237
 10
25.5981
 20
-263.5
 10
25.7406
 20
-263.78
 10
25.8532
 20
-264.073
 10
25.9344
 20
-264.376
 10
25.9836
 20
-264.686
 10
26
 20
-265
 10
25.9836
 20
-265.314
 10
25.9344
 20
-265.624
 10
25.8532
 20
-265.927
 10
25.7406
 20
-266.22
 10
25.5981
 20
-266.5
 10
25.4271
 20
-266.763
 10
25.2294
 20
-267.007
 10
25.0074
 20
-267.229
 10
24.7634
 20
-267.427
 10
24.5
 20
-267.598
 10
24.2202
 20
-267.741
 10
23.9271
 20
-267.853
 10
23.6237
 20
-267.934
 10
23.3136
 20
-267.984
 10
23
 20
-268
  0
ENDSEC
  0
EOF
